<svg width="150" height="56" viewBox="0 0 150 56" fill="none" xmlns="http://www.w3.org/2000/svg">
<g id="6556297d7504a1a52b30a797_adobe.svg">
<g id="Clip path group">
<mask id="mask0_3001_5431" style="mask-type:luminance" maskUnits="userSpaceOnUse" x="28" y="14" width="96" height="26">
<g id="a">
<path id="Vector" d="M123.08 14.7258H28.6023V39.6369H123.08V14.7258Z" fill="white"/>
</g>
</mask>
<g mask="url(#mask0_3001_5431)">
<g id="Group">
<path id="Vector_2" d="M39.0111 14.7346H28.6023V39.6277L39.0111 14.7346Z" fill="#D6E4E2"/>
<path id="Vector_3" d="M46.3353 14.7346H56.7307V39.6277L46.3353 14.7346Z" fill="#D6E4E2"/>
<path id="Vector_4" d="M42.6701 23.9094L49.2951 39.6277H44.9485L42.9684 34.6234H38.12L42.6701 23.9094Z" fill="#D6E4E2"/>
<path id="Vector_5" d="M73.7127 30.5645L74.9401 34.0839C74.9807 34.172 75.0418 34.2127 75.1503 34.2127H77.5101C77.6389 34.2127 77.6593 34.1516 77.6389 34.0229L72.7634 20.4811C72.743 20.3727 72.7227 20.3523 72.6142 20.3523H69.6848C69.6034 20.3523 69.5559 20.4134 69.5559 20.5015C69.5153 21.2135 69.4542 21.4305 69.3661 21.6407L65.0195 34.0025C64.9991 34.1516 65.0466 34.2127 65.1687 34.2127H67.2775C67.4063 34.2127 67.4673 34.172 67.5148 34.0431L68.6743 30.5645H73.7127ZM69.3457 28.2658C69.9831 26.34 70.824 23.8717 71.1631 22.4612H71.1833C71.6038 23.9394 72.5938 26.8688 73.0413 28.2658H69.3457Z" fill="#D6E4E2"/>
<path id="Vector_6" d="M83.9039 34.4233C85.1719 34.4233 86.5214 34.1927 87.8911 33.6027C87.9996 33.5621 88.0199 33.5146 88.0199 33.4129C87.9793 33.0332 87.9318 32.4839 87.9318 32.0635V19.3151C87.9318 19.2337 87.9318 19.1931 87.8301 19.1931H85.5313C85.4432 19.1931 85.4025 19.2337 85.4025 19.3423V23.6618C85.043 23.6211 84.7922 23.6007 84.4938 23.6007C80.7846 23.6007 78.5062 26.0487 78.5062 29.107C78.5062 32.6534 80.8456 34.4233 83.9039 34.4233ZM85.4025 32.0635C85.0228 32.1855 84.6024 32.233 84.1751 32.233C82.4934 32.233 81.1168 31.2837 81.1168 28.9781C81.1168 26.937 82.5342 25.73 84.4124 25.73C84.7922 25.73 85.1245 25.7707 85.4025 25.8791V32.0635Z" fill="#D6E4E2"/>
<path id="Vector_7" d="M95.3571 23.6006C92.1903 23.6006 90.2306 26.0282 90.2306 29.0254C90.2306 31.7039 91.7902 34.423 95.3096 34.423C98.2863 34.423 100.375 32.2328 100.375 28.9576C100.375 26.0688 98.6051 23.6006 95.3571 23.6006ZM95.2282 25.7298C97.0183 25.7298 97.7778 27.2691 97.7778 29.0254C97.7778 31.1953 96.6589 32.2735 95.3571 32.2735C93.7499 32.2735 92.8006 30.9241 92.8006 28.9779C92.8006 26.9775 93.8109 25.7298 95.2282 25.7298Z" fill="#D6E4E2"/>
<path id="Vector_8" d="M102.753 19.1931C102.665 19.1931 102.604 19.2337 102.604 19.3423V33.7723C102.604 33.8333 102.665 33.9418 102.753 33.9621C103.764 34.2741 104.821 34.4233 105.913 34.4233C109.04 34.4233 112.077 32.4839 112.077 28.578C112.077 25.7503 110.138 23.6007 107.1 23.6007C106.401 23.6007 105.75 23.7092 105.181 23.8992L105.154 19.3626C105.154 19.2135 105.113 19.1931 104.964 19.1931H102.753ZM109.48 28.8357C109.48 31.1752 107.88 32.2737 106.151 32.2737C105.791 32.2737 105.472 32.2533 105.181 32.1651V26.008C105.513 25.8791 105.913 25.7707 106.652 25.7707C108.32 25.7707 109.48 26.8286 109.48 28.8357Z" fill="#D6E4E2"/>
<path id="Vector_9" d="M120.652 29.595C121.683 29.595 122.531 29.5746 122.823 29.5069C122.931 29.4865 122.972 29.4458 122.992 29.3577C123.053 29.1271 123.08 28.6457 123.08 28.0557C123.08 26.0486 121.873 23.6006 118.753 23.6006C115.567 23.6006 113.797 26.1977 113.797 29.1271C113.797 31.7242 115.167 34.423 119.004 34.423C120.442 34.423 121.371 34.1926 122.171 33.8128C122.252 33.7721 122.293 33.7043 122.293 33.5822V31.8259C122.293 31.7242 122.232 31.7039 122.171 31.7446C121.371 32.0836 120.503 32.2532 119.554 32.2532C117.404 32.2532 116.427 31.0665 116.366 29.595H120.652ZM116.366 27.7777C116.537 26.747 117.187 25.6281 118.645 25.6281C120.252 25.6281 120.672 26.9775 120.672 27.5878C120.672 27.6081 120.672 27.6963 120.672 27.7574C120.584 27.7777 120.313 27.7777 119.513 27.7777H116.366Z" fill="#D6E4E2"/>
</g>
</g>
</g>
</g>
</svg>
