<svg width="201" height="97" viewBox="0 0 201 97" fill="none" xmlns="http://www.w3.org/2000/svg">
<g id="65a925a823e468a4aa433bba_All%20Citizens.svg">
<path id="Vector" fill-rule="evenodd" clip-rule="evenodd" d="M187.085 44.5198L185.19 45.1872C185.018 44.0893 184.092 42.5823 181.961 42.5823C180.238 42.5823 179.011 43.7018 179.011 45.1227C179.011 46.2206 179.679 47.0602 180.97 47.3401L183.252 47.8352C185.793 48.3948 187.214 49.9879 187.214 52.1193C187.214 54.4872 185.19 56.64 181.94 56.64C178.258 56.64 176.515 54.272 176.235 52.0977L178.258 51.4519C178.409 53.1525 179.615 54.724 181.918 54.724C184.027 54.724 185.061 53.6262 185.061 52.2914C185.061 51.1935 184.308 50.2463 182.779 49.9233L180.604 49.4497C178.431 48.9762 176.881 47.5553 176.881 45.2733C176.881 42.8838 179.098 40.731 181.918 40.731C185.362 40.731 186.74 42.8622 187.085 44.5198ZM26.2858 52.0546L27.9434 56.3171H30.2253L24.1545 41.0539H21.7219L15.651 56.3171H17.9115L19.526 52.0546H26.2858ZM20.2795 50.0956L22.8844 43.2497L25.5323 50.0956H20.2795ZM44.73 56.3171H35.4084V41.0539H37.5182V54.3365H44.73V56.3171ZM59.5485 56.3171H50.227V41.0539H52.3367V54.3365H59.5485V56.3171ZM168.114 56.3171H170.31V41.0539H168.2V52.765L160.579 41.0539H157.759V56.3171H159.869V43.874L168.114 56.3171ZM142.075 56.3171H151.353V54.3581H144.184V49.6865H150.685V47.706H144.184V43.0129H151.353V41.0539H144.136L142.075 43.8377V56.3171ZM124.328 56.3171H136.103V54.3365H126.846L135.996 43.099V41.0539H124.543V43.0129H133.434L124.328 54.2074V56.3171ZM118.24 56.3171H116.087V41.0539H118.24V56.3171ZM105.661 43.0129H110.763V41.0539H98.4491V43.0129H103.551V56.3171H105.661V43.0129ZM93.1146 56.3171H90.9619V41.0539H93.1146V56.3171ZM70.6715 48.6747C70.6715 53.7769 74.3096 56.64 78.2493 56.64C81.7583 56.64 84.1694 54.5949 84.9875 51.7318L83.1145 51.0428C82.4903 53.131 80.8542 54.7025 78.2493 54.7025C75.4721 54.7025 72.8243 52.6574 72.8243 48.6747C72.8243 44.6921 75.4721 42.6685 78.2493 42.6685C80.7465 42.6685 82.4257 43.9602 83.0069 46.2636L84.966 45.5747C84.191 42.6254 81.7368 40.731 78.2493 40.731C74.4603 40.731 70.6715 43.5727 70.6715 48.6747Z" fill="#1D1D1B"/>
</g>
</svg>
