<svg width="150" height="56" viewBox="0 0 150 56" fill="none" xmlns="http://www.w3.org/2000/svg">
<g id="6556297b05974f5b20411210_attentive.svg">
<g id="Clip path group">
<mask id="mask0_3001_5381" style="mask-type:luminance" maskUnits="userSpaceOnUse" x="26" y="18" width="100" height="18">
<g id="a">
<path id="Vector" d="M125.225 18.575H26.919V35.8347H125.225V18.575Z" fill="white"/>
</g>
</mask>
<g mask="url(#mask0_3001_5381)">
<g id="Group">
<path id="Vector_2" d="M123.838 23.7381C123.838 23.3598 123.575 23.1076 123.143 23.1076L122.293 23.1234L122.309 25.0464H122.772V24.3844H123.05L123.452 25.0464H123.992L123.514 24.3056C123.613 24.2494 123.695 24.1672 123.752 24.0673C123.809 23.9674 123.839 23.8537 123.838 23.7381ZM123.05 23.9904H122.757V23.5017H123.097C123.158 23.4948 123.219 23.5123 123.268 23.5504C123.317 23.5886 123.35 23.6445 123.36 23.7066V23.7224C123.358 23.7613 123.349 23.7997 123.332 23.8347C123.316 23.8699 123.292 23.9011 123.263 23.9262C123.234 23.9515 123.2 23.9702 123.163 23.9813C123.127 23.9923 123.088 23.9954 123.05 23.9904ZM54.5344 32.6281C53.7466 32.6281 53.2062 31.9975 53.2062 31.0675V26.8275H56.4496V23.8327H53.2139L53.183 20.3966H49.5996L49.6306 31.84C49.6306 34.157 51.1442 35.7332 53.3683 35.7332C54.5421 35.7332 55.6543 35.5598 56.5346 35.15V32.2339C55.9094 32.5301 55.2227 32.6654 54.5344 32.6281ZM63.0912 23.6436C59.755 23.6436 57.191 26.2916 57.191 29.8066C57.191 33.29 59.755 35.7174 63.292 35.7174C65.2845 35.7174 67.1533 34.9923 68.2963 33.4949L65.547 32.2181C64.991 32.7384 64.1415 32.9433 63.3847 32.9433C62.149 32.9433 60.9134 32.297 60.7434 30.973H68.945C69.0682 30.4999 69.1305 30.0124 69.1303 29.5229C69.1303 25.9133 66.551 23.6436 63.0989 23.6436H63.0912ZM60.7434 28.656C60.8516 27.0797 61.9636 26.3546 63.1839 26.3546C64.5585 26.3546 65.5933 27.1427 65.5933 28.4983V28.656H60.7434ZM46.1939 32.6281C45.4062 32.6281 44.8656 31.9975 44.8656 31.0675V26.8275H48.1091V23.8327H44.8733L44.8424 20.3966H41.2591L41.29 31.84C41.29 34.157 42.8036 35.7332 45.0278 35.7332C46.2017 35.7332 47.3137 35.5598 48.1941 35.15V32.2339C47.5693 32.5315 46.8822 32.6669 46.1939 32.6281ZM33.6059 23.6436C30.5323 23.6436 27.3042 25.7085 27.3042 29.8696C27.3042 33.3374 29.5901 35.7647 32.4784 35.7647C34.131 35.7647 35.3821 35.0869 36.2008 33.889L36.3089 35.5598H39.7763V30.0114C39.7763 25.7872 36.7259 23.6436 33.6059 23.6436ZM33.6059 32.5649C32.0459 32.5649 30.9184 31.3828 30.9184 29.7121C30.9184 28.0412 32.0305 26.8591 33.6059 26.8591C35.0577 26.8591 36.2626 28.1515 36.2626 29.7121C36.2626 31.2725 35.0577 32.5649 33.6059 32.5649ZM122.973 22.2407C121.846 22.2565 121.119 22.9973 121.135 24.1007C121.15 25.204 121.892 25.9291 123.02 25.9133C124.116 25.8975 124.857 25.1567 124.842 24.0376C124.826 22.9185 124.085 22.225 122.973 22.2407ZM123.02 25.598C122.139 25.6138 121.536 25.0148 121.536 24.1007C121.536 23.1864 122.109 22.5717 122.989 22.556C123.869 22.5402 124.456 23.1391 124.471 24.0691C124.471 24.9676 123.884 25.5823 123.027 25.598H123.02ZM105.458 23.8484L102.955 31.2567L100.423 23.8484H96.5302L101.195 35.5441H104.686L109.35 23.8484H105.458ZM114.74 23.6436C111.404 23.6436 108.84 26.2916 108.84 29.8066C108.84 33.29 111.404 35.7174 114.942 35.7174C116.934 35.7174 118.803 34.9923 119.945 33.4949L117.197 32.2181C116.641 32.7384 115.791 32.9433 115.034 32.9433C113.798 32.9433 112.563 32.297 112.392 30.973H120.594C120.717 30.4999 120.78 30.0124 120.78 29.5229C120.78 25.9133 118.2 23.6436 114.74 23.6436ZM117.243 28.656H112.392C112.501 27.0797 113.613 26.3546 114.833 26.3546C116.208 26.3546 117.243 27.1427 117.243 28.4983V28.656ZM93.7655 18.71C92.4991 18.71 91.5414 19.5768 91.5414 20.7906C91.5414 22.0043 92.4991 22.9028 93.7655 22.9028C95.0323 22.9028 95.9901 22.02 95.9901 20.7906C95.9901 19.5611 95.0476 18.71 93.7655 18.71ZM77.5017 23.6278C76.7775 23.6158 76.0626 23.7954 75.4266 24.1489C74.7906 24.5025 74.255 25.018 73.872 25.6453L73.7485 23.8484H70.2887V35.5441H73.872V29.4126C73.9493 27.9467 75.1077 26.8275 76.3742 26.8275C77.7952 26.8275 78.4439 27.9152 78.4439 29.2864V35.5283H82.0116V28.719C82.0116 25.7556 80.2431 23.6278 77.5017 23.6278ZM88.4368 32.6281C87.6494 32.6281 87.1087 31.9975 87.1087 31.0675V26.8275H90.3523V23.8327H87.1087L87.078 20.3966H83.4946L83.5253 31.84C83.5253 34.157 85.039 35.7332 87.2631 35.7332C88.4368 35.7332 89.5489 35.5598 90.4294 35.15V32.2339C89.8073 32.5302 89.1229 32.6656 88.4368 32.6281ZM91.9585 23.8484V35.5441H95.573V23.8484C95.0371 24.2108 94.4086 24.404 93.7655 24.404C93.1227 24.404 92.4944 24.2108 91.9585 23.8484Z" fill="#D6E4E2"/>
</g>
</g>
</g>
</g>
</svg>
