<svg width="25" height="25" viewBox="0 0 25 25" fill="none" xmlns="http://www.w3.org/2000/svg">
<g id="624123d372ff2f78a71dc0fa_facebook%201.svg" clip-path="url(#clip0_3001_6070)">
<path id="Vector" d="M24.8783 12.3481C24.8783 5.72115 19.5053 0.348145 12.8783 0.348145C6.2513 0.348145 0.878296 5.72115 0.878296 12.3481C0.878296 18.3381 5.2663 23.3021 11.0033 24.2021V15.8171H7.9563V12.3471H11.0033V9.70515C11.0033 6.69815 12.7953 5.03615 15.5363 5.03615C16.8483 5.03615 18.2223 5.27115 18.2223 5.27115V8.22415H16.7083C15.2173 8.22415 14.7523 9.14915 14.7523 10.0981V12.3481H18.0803L17.5483 15.8181H14.7523V24.2031C20.4903 23.3021 24.8783 18.3371 24.8783 12.3481Z" fill="#FAF6F2"/>
</g>
<defs>
<clipPath id="clip0_3001_6070">
<rect width="24" height="24" fill="white" transform="translate(0.878296 0.275391)"/>
</clipPath>
</defs>
</svg>
