<svg width="150" height="60" viewBox="0 0 150 60" fill="none" xmlns="http://www.w3.org/2000/svg">
<g id="65654fb00bd5f04e20aa8e36_georgias.svg">
<g id="Clip path group">
<mask id="mask0_3001_5402" style="mask-type:luminance" maskUnits="userSpaceOnUse" x="17" y="13" width="116" height="32">
<g id="a">
<path id="Vector" d="M132.442 13.5229H17.2618V44.1824H132.442V13.5229Z" fill="white"/>
</g>
</mask>
<g mask="url(#mask0_3001_5402)">
<g id="Group">
<g id="Mask group">
<mask id="mask1_3001_5402" style="mask-type:luminance" maskUnits="userSpaceOnUse" x="17" y="13" width="116" height="31">
<g id="Group_2">
<path id="Vector_2" d="M132.442 13.9866H17.2618V43.8175H132.442V13.9866Z" fill="white"/>
</g>
</mask>
<g mask="url(#mask1_3001_5402)">
<g id="Group_3">
<path id="Vector_3" d="M42.0963 20.7932H37.6572V16.3482C37.6572 15.0435 36.6017 13.9866 35.2987 13.9866H19.6203C18.3173 13.9866 17.2618 15.0435 17.2618 16.3482V38.854C17.2618 40.1587 18.3173 41.2157 19.6203 41.2157H39.9221L42.1189 43.4153C42.3765 43.6732 42.7226 43.8175 43.086 43.8175C43.8412 43.8175 44.4548 43.2055 44.4548 42.447V23.1548C44.4548 21.8501 43.3992 20.7932 42.0963 20.7932ZM42.1896 38.945H19.5269V16.2545H35.3895V20.7932H26.4178C25.1149 20.7932 24.0595 21.8501 24.0595 23.1548V32.0474C24.0595 33.3521 25.1149 34.4089 26.4178 34.4089H35.2987C36.6017 34.4089 37.6572 33.3521 37.6572 32.0474V23.0638H42.1896V38.9476V38.945ZM35.3921 23.0613V32.1384H26.327V23.0613H35.3921Z" fill="#D6E4E2"/>
<path id="Vector_4" d="M78.8397 21.5012C77.9256 20.9223 76.8472 20.6289 75.6378 20.6289C74.4282 20.6289 73.35 20.9223 72.436 21.5012C71.5219 22.0804 70.8023 22.9021 70.2922 23.9464C69.7846 24.9879 69.527 26.2194 69.527 27.61C69.527 29.0006 69.7846 30.2144 70.2922 31.2485C70.8023 32.2877 71.5244 33.107 72.436 33.6859C73.35 34.2649 74.4282 34.5582 75.6378 34.5582C76.8472 34.5582 77.9256 34.2649 78.8397 33.6859C79.7537 33.107 80.4733 32.2877 80.9834 31.2485C81.4911 30.2144 81.7485 28.9905 81.7485 27.61C81.7485 26.2294 81.4911 24.9856 80.9834 23.9464C80.4733 22.9021 79.7513 22.0804 78.8397 21.5012ZM79.0594 30.0324C78.7866 30.7655 78.3624 31.3648 77.7992 31.8148C77.2387 32.2599 76.5115 32.4874 75.6378 32.4874C74.7641 32.4874 74.0368 32.2625 73.4763 31.8148C72.9106 31.3648 72.4864 30.7655 72.2163 30.0324C71.941 29.2914 71.8021 28.4772 71.8021 27.61C71.8021 26.7428 71.941 25.9262 72.2163 25.1802C72.489 24.4419 72.9131 23.8351 73.4787 23.38C74.0394 22.9298 74.7666 22.6997 75.6403 22.6997C76.514 22.6997 77.2413 22.9273 77.8018 23.38C78.3673 23.8351 78.7917 24.4393 79.0643 25.1802C79.3396 25.9262 79.4785 26.7454 79.4785 27.61C79.4785 28.4749 79.3396 29.2914 79.0643 30.0324H79.0594Z" fill="#D6E4E2"/>
<path id="Vector_5" d="M89.7341 22.7061L89.719 20.7339C89.719 20.6605 89.6583 20.6023 89.5876 20.5998C89.421 20.5973 89.2771 20.5947 89.1558 20.5947C88.3428 20.5947 87.6029 20.8071 86.954 21.2269C86.3808 21.596 85.959 22.0714 85.6965 22.6403V20.9362C85.6965 20.8628 85.6358 20.8021 85.5626 20.8021H83.6233C83.5501 20.8021 83.4896 20.8628 83.4896 20.9362V34.2309C83.4896 34.3042 83.5501 34.3649 83.6233 34.3649H85.6309C85.7041 34.3649 85.7647 34.3042 85.7647 34.2309V25.7833C85.7647 25.2117 85.9035 24.696 86.1812 24.2484C86.4591 23.8009 86.8429 23.4443 87.3227 23.1891C87.8049 22.9337 88.363 22.8021 88.9816 22.8021C89.1887 22.8021 89.3906 22.8148 89.5826 22.8375C89.6634 22.8476 89.7316 22.7869 89.7316 22.7061H89.7341Z" fill="#D6E4E2"/>
<path id="Vector_6" d="M105.363 20.803H107.371C107.444 20.803 107.504 20.8637 107.504 20.9369V34.2848C107.504 34.358 107.444 34.4187 107.371 34.4187H105.363C105.29 34.4187 105.229 34.358 105.229 34.2848V20.9369C105.229 20.8637 105.29 20.803 105.363 20.803Z" fill="#D6E4E2"/>
<path id="Vector_7" d="M106.388 15.8379C105.961 15.8379 105.59 15.9845 105.284 16.2778C104.977 16.5712 104.82 16.9277 104.82 17.3398C104.82 17.752 104.977 18.1085 105.284 18.4017C105.59 18.6926 105.961 18.8417 106.388 18.8417C106.815 18.8417 107.186 18.6951 107.492 18.4017C107.799 18.1085 107.956 17.752 107.956 17.3398C107.956 16.9277 107.799 16.5712 107.492 16.2778C107.186 15.9871 106.815 15.8379 106.388 15.8379Z" fill="#D6E4E2"/>
<path id="Vector_8" d="M118.34 21.4127C117.81 21.0967 117.257 20.8843 116.689 20.7806C116.131 20.6795 115.631 20.6289 115.199 20.6289C114.528 20.6289 113.833 20.7224 113.142 20.9046C112.441 21.0891 111.79 21.4153 111.204 21.8754C110.647 22.3129 110.189 22.9172 109.846 23.6733C109.813 23.7441 109.849 23.83 109.922 23.8552L111.826 24.5532C111.889 24.576 111.957 24.5481 111.99 24.4874C112.212 24.0626 112.571 23.6555 113.063 23.2764C113.588 22.8691 114.331 22.6643 115.27 22.6643C116.209 22.6643 116.843 22.8894 117.277 23.3344C117.714 23.7795 117.934 24.4165 117.934 25.2308V25.2989C117.934 25.5822 117.841 25.7719 117.646 25.8831C117.429 26.007 117.075 26.0955 116.593 26.1486C116.093 26.2017 115.434 26.2825 114.633 26.3862C114.02 26.4672 113.401 26.5759 112.795 26.7125C112.182 26.849 111.614 27.0589 111.106 27.3318C110.591 27.61 110.172 27.9995 109.864 28.4899C109.553 28.9805 109.396 29.6252 109.396 30.4041C109.396 31.2865 109.606 32.0501 110.02 32.6746C110.432 33.2966 110.997 33.7794 111.696 34.1056C112.394 34.4319 113.176 34.5962 114.03 34.5962C114.813 34.5962 115.484 34.4773 116.033 34.2421C116.578 34.007 117.022 33.7163 117.353 33.38C117.598 33.1297 117.793 32.8894 117.936 32.6594V34.2472C117.936 34.3155 117.992 34.3686 118.058 34.3686H120.091C120.159 34.3686 120.211 34.313 120.211 34.2472V25.4432C120.211 24.3761 120.033 23.5089 119.681 22.8666C119.327 22.2245 118.876 21.7364 118.34 21.4153V21.4127ZM117.936 29.3673C117.936 29.8958 117.798 30.4041 117.528 30.8844C117.255 31.3623 116.848 31.7592 116.315 32.0626C115.783 32.3661 115.119 32.5202 114.341 32.5202C113.563 32.5202 112.911 32.3459 112.409 32.002C111.914 31.6631 111.674 31.1751 111.674 30.5051C111.674 30.0222 111.802 29.6379 112.058 29.3597C112.32 29.074 112.674 28.8566 113.108 28.7125C113.555 28.5633 114.042 28.4546 114.563 28.3863C114.78 28.3585 115.066 28.3205 115.419 28.2775C115.773 28.2346 116.141 28.1815 116.518 28.1208C116.896 28.06 117.237 27.9868 117.53 27.9007C117.697 27.8527 117.83 27.8021 117.936 27.7467V29.3673Z" fill="#D6E4E2"/>
<path id="Vector_9" d="M131.537 28.1158C130.944 27.514 130.035 27.0589 128.838 26.768L126.876 26.2852C126.116 26.0955 125.553 25.8553 125.201 25.5746C124.863 25.304 124.697 24.9425 124.697 24.4723C124.697 23.9413 124.942 23.514 125.449 23.1651C125.962 22.811 126.618 22.6315 127.399 22.6315C127.967 22.6315 128.439 22.7225 128.798 22.9021C129.159 23.0815 129.447 23.3117 129.654 23.5873C129.838 23.83 129.987 24.0829 130.095 24.3382C130.124 24.4015 130.189 24.4343 130.254 24.4165L132.058 23.8906C132.13 23.8679 132.174 23.7869 132.149 23.7137C131.82 22.8135 131.287 22.0753 130.558 21.5164C129.79 20.9274 128.726 20.6289 127.399 20.6289C126.457 20.6289 125.601 20.7984 124.858 21.1322C124.111 21.4658 123.513 21.9361 123.081 22.5253C122.647 23.1196 122.424 23.8097 122.424 24.5809C122.424 25.5215 122.72 26.318 123.306 26.9425C123.884 27.5645 124.8 28.0272 126.03 28.3181L128.234 28.8363C128.876 28.9854 129.353 29.2105 129.656 29.5065C129.957 29.7972 130.1 30.1486 130.1 30.5785C130.1 31.1095 129.843 31.5544 129.312 31.9388C128.777 32.3257 128.043 32.5229 127.125 32.5229C126.323 32.5229 125.669 32.3509 125.177 32.0097C124.719 31.6934 124.396 31.2206 124.215 30.6013C124.195 30.533 124.123 30.49 124.055 30.5078L122.144 30.983C122.073 31.0007 122.028 31.0741 122.043 31.1448C122.3 32.2346 122.871 33.0817 123.745 33.6582C124.644 34.2548 125.793 34.5582 127.161 34.5582C128.202 34.5582 129.126 34.3813 129.914 34.0299C130.704 33.6785 131.33 33.1879 131.775 32.576C132.222 31.9589 132.449 31.251 132.449 30.4697C132.449 29.5164 132.143 28.7226 131.545 28.1131L131.537 28.1158Z" fill="#D6E4E2"/>
<path id="Vector_10" d="M60.0909 31.5626C58.9571 31.5626 58.5101 31.2719 58.5101 30.5539C58.5101 29.6816 59.6464 29.2517 59.6464 29.2517C60.3989 29.5374 61.2853 29.6789 62.2422 29.6789C65.4668 29.6789 67.7647 27.9748 67.7647 25.2541C67.7647 24.6676 67.5702 23.6688 66.7748 22.7003H69.219C69.2923 22.7003 69.3528 22.6398 69.3528 22.5664V20.9356C69.3528 20.8622 69.2923 20.8015 69.219 20.8015H62.2422C59.0481 20.8015 56.7804 22.5057 56.7804 25.2541C56.7804 26.6878 57.4067 27.8533 58.4823 28.6321C57.3182 29.1404 56.5128 29.9471 56.5128 31.0822C56.5128 31.9773 56.9546 32.7738 57.9318 33.2062C57.5076 33.315 55.5583 33.9799 55.5583 36.0761C55.5583 38.4983 58.4823 39.6033 62.0049 39.6033C65.886 39.6033 69.5272 38.3466 69.5272 35.0898C69.5272 33.0569 68.0348 31.5626 65.1991 31.5626H60.0909ZM62.2523 22.703C64.2421 22.703 65.4642 23.6106 65.4642 25.2693C65.4642 26.9279 64.2447 27.7801 62.2523 27.7801C60.26 27.7801 59.0733 26.8723 59.0733 25.2693C59.0733 23.6663 60.2928 22.703 62.2523 22.703ZM62.0075 37.6791C59.5505 37.6791 57.851 37.004 57.851 35.4566C57.851 34.1342 59.0354 33.7119 60.3989 33.7119H64.6765C66.2243 33.7119 67.2244 34.1063 67.2244 35.2315C67.2244 37.004 65.0401 37.6791 62.0075 37.6791Z" fill="#D6E4E2"/>
<path id="Vector_11" d="M94.0159 31.5626C92.8821 31.5626 92.4351 31.2719 92.4351 30.5539C92.4351 29.6816 93.5713 29.2517 93.5713 29.2517C94.3239 29.5374 95.2101 29.6789 96.1672 29.6789C99.3918 29.6789 101.69 27.9748 101.69 25.2541C101.69 24.6676 101.495 23.6688 100.699 22.7003H103.144C103.218 22.7003 103.278 22.6398 103.278 22.5664V20.9356C103.278 20.8622 103.218 20.8015 103.144 20.8015H96.1672C92.9729 20.8015 90.7054 22.5057 90.7054 25.2541C90.7054 26.6878 91.3317 27.8533 92.4074 28.6321C91.2433 29.1404 90.4377 29.9471 90.4377 31.0822C90.4377 31.9773 90.8796 32.7738 91.8569 33.2062C91.4327 33.315 89.4832 33.9799 89.4832 36.0761C89.4832 38.4983 92.4074 39.6033 95.9298 39.6033C99.8109 39.6033 103.452 38.3466 103.452 35.0898C103.452 33.0569 101.96 31.5626 99.1241 31.5626H94.0159ZM96.1774 22.703C98.167 22.703 99.3893 23.6106 99.3893 25.2693C99.3893 26.9279 98.1697 27.7801 96.1774 27.7801C94.1849 27.7801 92.9981 26.8723 92.9981 25.2693C92.9981 23.6663 94.2177 22.703 96.1774 22.703ZM95.9323 37.6791C93.4754 37.6791 91.776 37.004 91.776 35.4566C91.776 34.1342 92.9604 33.7119 94.3239 33.7119H98.6015C100.149 33.7119 101.149 34.1063 101.149 35.2315C101.149 37.004 98.9651 37.6791 95.9323 37.6791Z" fill="#D6E4E2"/>
</g>
</g>
</g>
</g>
</g>
</g>
</g>
</svg>
