<svg width="289" height="159" viewBox="0 0 289 159" fill="none" xmlns="http://www.w3.org/2000/svg">
<g id="Group" filter="url(#filter0_d_3001_5454)">
<path id="Vector" d="M253.56 18.1409L30.1031 26.7859C23.0322 27.0595 17.5219 33.0133 17.7955 40.0842L22.3446 157.67C22.6182 164.741 28.572 170.251 35.6429 169.978L259.1 161.333C266.171 161.059 271.681 155.105 271.407 148.035L266.858 30.4485C266.585 23.3776 260.631 17.8673 253.56 18.1409Z" fill="white"/>
<path id="Vector_2" d="M51.9498 54.1988C51.9573 54.3912 51.757 54.5074 51.349 54.5473C49.1626 54.7041 47.6518 54.8831 46.8163 55.084C45.9799 55.2609 45.269 55.5655 44.6834 55.9977C44.5428 56.0995 44.4123 56.1528 44.292 56.1574C44.1958 56.1611 44.144 56.0668 44.1365 55.8743C44.1235 55.5375 44.1253 55.2725 44.1419 55.0791C44.1576 54.8616 44.1598 54.6086 44.1487 54.3199C44.1403 54.1034 44.1208 53.9114 44.0903 53.744C42.6361 55.3903 41.019 56.2479 39.2389 56.3168C37.6512 56.3782 36.3807 55.9214 35.4275 54.9464C34.8259 54.3433 34.4926 53.1998 34.4275 51.5158L34.3283 48.9539C34.3172 48.6652 34.3017 47.9551 34.2821 46.8235C34.2383 45.6929 34.1778 44.1292 34.1006 42.1326C34.0801 41.6033 33.9833 41.2818 33.8103 41.1681C33.6613 41.0534 33.2255 40.998 32.5029 41.0018C31.8765 41.002 31.56 40.9178 31.5535 40.7495C31.5461 40.557 31.7108 40.4543 32.0475 40.4412L32.4445 40.4259C32.8053 40.4119 33.3475 40.415 34.071 40.4352C34.8177 40.4304 35.3234 40.4229 35.588 40.4127C35.6361 40.4108 35.8762 40.3895 36.3083 40.3487C36.7644 40.3069 37.4255 40.2693 38.2915 40.2358L38.9771 40.2093L39.1279 44.1064C39.1995 45.9587 39.228 47.3188 39.2134 48.1867C39.2229 49.0536 39.2253 49.427 39.2206 49.3067C39.3184 51.8326 39.5357 53.4022 39.8726 54.0155C40.2336 54.628 40.7629 54.9207 41.4605 54.8937C42.2544 54.863 42.9829 54.3891 43.6461 53.472C43.8523 53.199 43.9624 52.9298 43.9762 52.6642C44.0132 52.3737 44.0107 51.6872 43.9688 50.6046L43.7287 44.3982C43.6607 42.6421 43.5957 41.5845 43.5337 41.2256C43.4679 40.7704 43.1583 40.5535 42.605 40.5749L41.5947 40.614C41.2579 40.627 41.0858 40.5373 41.0783 40.3448C41.0728 40.2005 41.7195 40.1032 43.0185 40.0529C44.1491 40.0092 45.9409 39.9278 48.3936 39.8088C48.405 40.7239 48.4497 42.1918 48.5279 44.2125L48.8113 51.5376C48.855 52.6682 48.9051 53.3409 48.9616 53.5555C49.0172 53.7461 49.2027 53.8714 49.5182 53.9315C49.7366 53.9712 50.387 53.9701 51.4696 53.9283C51.7823 53.9162 51.9424 54.0063 51.9498 54.1988Z" fill="black"/>
<path id="Vector_3" d="M65.428 39.403C65.4336 39.5473 65.1482 39.6427 64.5718 39.6891C63.9232 39.7383 63.4717 39.9003 63.2173 40.1751C62.987 40.4491 62.6888 41.1472 62.3226 42.2696C61.9593 43.4642 61.5104 44.9391 60.976 46.6944L58.3256 54.7835C58.1546 55.3442 57.9488 55.6293 57.7082 55.6386C57.4917 55.6469 57.1224 55.1312 56.6004 54.0913C56.1023 53.0506 54.3792 49.2986 51.4308 42.8356C50.8782 41.6282 50.5505 40.9423 50.4477 40.7776C50.2191 40.4732 49.6718 40.3378 48.8058 40.3713C48.4209 40.3862 48.2247 40.2974 48.2173 40.105C48.2098 39.9125 48.3384 39.8112 48.603 39.8009C48.8195 39.7926 49.0125 39.7972 49.1818 39.8147C49.5704 39.896 50.9064 39.8684 53.1899 39.7319L56.7955 39.5201C56.9389 39.4905 57.1309 39.471 57.3715 39.4617C57.6361 39.4515 57.7717 39.5306 57.7782 39.6989C57.7828 39.8192 57.2573 39.9359 56.2016 40.049C55.9139 40.0843 55.7751 40.2342 55.7854 40.4988C55.7966 40.7875 56.2414 42.011 57.1199 44.1694C57.9976 46.3037 58.7775 48.0925 59.4597 49.5357C61.2932 43.9959 62.1993 40.9493 62.1779 40.396C62.1611 39.963 61.6961 39.7762 60.7829 39.8357C60.1584 39.8839 59.8424 39.8118 59.835 39.6194C59.8294 39.475 59.9228 39.3991 60.1153 39.3917L61.7391 39.3289C62.0518 39.3168 62.3765 39.3042 62.7133 39.2912C63.0751 39.3013 63.28 39.3054 63.3281 39.3035C63.5206 39.2961 63.8088 39.2729 64.1928 39.2339C64.6008 39.1941 64.901 39.1704 65.0935 39.163C65.31 39.1546 65.4215 39.2346 65.428 39.403Z" fill="black"/>
<path id="Vector_4" d="M94.0094 38.3332L72.359 39.1708C71.243 39.214 70.3733 40.1537 70.4164 41.2697L70.8632 52.8167C70.9063 53.9327 71.846 54.8024 72.962 54.7592L94.6125 53.9216C95.7285 53.8784 96.5982 52.9387 96.555 51.8227L96.1083 40.2758C96.0651 39.1598 95.1254 38.2901 94.0094 38.3332Z" stroke="#232525" stroke-width="0.577778"/>
<path id="Vector_5" d="M77.5687 47.2915C79.3592 47.2223 80.3739 46.414 80.3157 44.9086C80.2574 43.4031 79.1829 42.6656 77.3817 42.7352L74.2377 42.8569L74.5168 50.0708L75.9023 50.0172L75.7995 47.36L77.5687 47.2915ZM75.7588 46.3092L75.6642 43.8642L77.3055 43.8007C78.35 43.7602 78.8875 44.1341 78.9195 44.9626C78.9512 45.781 78.4446 46.2053 77.4001 46.2457L75.7588 46.3092Z" fill="#232525"/>
<path id="Vector_6" d="M84.8869 49.6695L86.1978 49.6188C86.0966 49.2079 86.06 48.8146 86.0416 48.3398L85.965 46.3595C85.9134 45.0258 85.046 44.4017 83.5753 44.4586C82.2431 44.5101 81.3622 45.1918 81.2875 46.2976L82.5984 46.2469C82.6227 45.7704 82.9729 45.4431 83.5698 45.42C84.1879 45.3961 84.6046 45.6836 84.6289 46.31L84.6383 46.5525L83.0249 46.7869C81.9319 46.9506 81.0957 47.4079 81.1355 48.4385C81.1715 49.368 81.9604 49.894 83.0155 49.8532C83.8788 49.8198 84.5479 49.46 84.7811 48.8641C84.7908 49.1167 84.8227 49.3887 84.8869 49.6695ZM83.3537 48.9396C82.8102 48.9606 82.502 48.7196 82.4863 48.3154C82.4656 47.7799 82.8979 47.6418 83.4707 47.5488L84.6699 47.3709L84.682 47.6841C84.7133 48.4923 84.0571 48.9124 83.3537 48.9396Z" fill="#232525"/>
<path id="Vector_7" d="M89.1218 49.4957C88.8614 50.214 88.6339 50.405 88.0797 50.4264C87.9625 50.431 87.8772 50.4343 87.7162 50.4101L87.7541 51.3902C87.9471 51.4131 88.2037 51.4234 88.3849 51.4164C89.5249 51.3621 90.1345 50.8427 90.5964 49.5398L92.5043 44.2346L91.1511 44.287L89.8726 48.2119L89.8513 48.2127L88.1989 44.4012L86.8133 44.4548L89.1218 49.4957Z" fill="#232525"/>
<path id="Vector_8" d="M245.196 32.2841L196.317 34.1751C191.902 34.3459 188.462 38.0634 188.633 42.4784C188.803 46.8934 192.521 50.3339 196.936 50.1631L245.815 48.2721C250.23 48.1013 253.671 44.3838 253.5 39.9688C253.329 35.5539 249.611 32.1133 245.196 32.2841Z" fill="url(#paint0_linear_3001_5454)"/>
<path id="Vector_9" fill-rule="evenodd" clip-rule="evenodd" d="M201.274 37.7402C201.473 37.7948 201.615 37.9725 201.623 38.1794L201.714 40.549L203.61 40.4756C203.787 40.4688 203.952 40.5609 204.04 40.7144C204.128 40.868 204.123 41.0576 204.027 41.2063L200.893 46.0738C200.781 46.2479 200.569 46.3292 200.369 46.2746C200.169 46.22 200.028 46.0423 200.02 45.8354L199.929 43.4658L198.033 43.5392C197.856 43.546 197.69 43.454 197.603 43.3004C197.515 43.1468 197.52 42.9572 197.616 42.8085L200.75 37.941C200.862 37.7669 201.074 37.6857 201.274 37.7402Z" fill="black"/>
<path id="Vector_10" d="M208.949 42.7174L210.119 42.6721C210.235 43.5555 211.015 43.8274 211.828 43.796C212.605 43.7659 213.195 43.3953 213.169 42.7372C213.151 42.2619 212.857 42.0078 212.066 41.892L210.86 41.7189C209.894 41.5824 209.099 41.1555 209.055 40.013C209.01 38.8522 210.002 38.0083 211.428 37.9531C212.982 37.893 213.94 38.5333 214.116 39.7531L212.973 39.7973C212.866 39.1607 212.286 38.8262 211.472 38.8576C210.686 38.888 210.209 39.3184 210.231 39.8943C210.252 40.4335 210.597 40.5941 211.306 40.704L212.577 40.9019C213.654 41.0616 214.314 41.567 214.355 42.6181C214.401 43.8063 213.344 44.6344 211.899 44.6903C210.346 44.7504 209.123 44.1478 208.949 42.7174ZM218.402 44.3289C218.346 44.0747 218.318 43.8286 218.309 43.6002C218.111 44.1388 217.537 44.463 216.797 44.4916C215.892 44.5267 215.215 44.0494 215.182 43.2085C215.146 42.2763 215.862 41.8641 216.799 41.718L218.183 41.5089L218.174 41.2895C218.152 40.7228 217.794 40.4621 217.264 40.4826C216.752 40.5024 216.453 40.7978 216.433 41.2287L215.309 41.2722C215.371 40.2721 216.125 39.6571 217.267 39.6129C218.529 39.5641 219.274 40.1302 219.32 41.3367L219.39 43.1281C219.406 43.5577 219.438 43.9135 219.526 44.2854L218.402 44.3289ZM217.085 43.6658C217.689 43.6425 218.251 43.2637 218.222 42.5325L218.211 42.2492L217.183 42.408C216.692 42.4911 216.322 42.6152 216.34 43.0997C216.354 43.4653 216.619 43.6838 217.085 43.6658ZM221.998 44.1897L219.991 39.6174L221.17 39.5717L222.594 43.0225L222.612 43.0218L223.738 39.4724L224.881 39.4282L223.278 44.1402L221.998 44.1897ZM229.863 42.4392C229.701 43.4432 228.891 44.0329 227.83 44.0739C226.478 44.1263 225.447 43.26 225.388 41.7427C225.329 40.2255 226.308 39.2631 227.615 39.2126C229.068 39.1563 229.806 40.2354 229.853 41.4693L229.868 41.844L226.532 41.9731C226.637 42.7928 227.075 43.2427 227.797 43.2148C228.327 43.1943 228.647 42.9348 228.785 42.4809L229.863 42.4392ZM227.649 40.0808C227.036 40.1045 226.639 40.4952 226.539 41.2131L228.723 41.1285C228.701 40.5527 228.352 40.0536 227.649 40.0808ZM230.422 39.0948L230.391 38.2905C231.506 38.2473 231.933 37.9287 232.063 37.2464L232.894 37.2142L233.147 43.7584L231.941 43.8051L231.757 39.0432L230.422 39.0948ZM236.79 40.1299C236.214 40.1522 235.841 40.4504 235.653 40.7781L234.565 40.8202L234.799 37.1588L238.71 37.0075L238.748 37.9672L235.704 38.0849L235.596 39.7917C235.832 39.5079 236.334 39.2322 236.947 39.2085C238.299 39.1562 239.205 40.0914 239.255 41.371C239.303 42.6323 238.437 43.6636 236.929 43.7219C235.457 43.7789 234.484 42.9836 234.335 41.7261L235.541 41.6795C235.622 42.3628 236.126 42.8376 236.894 42.8079C237.735 42.7754 238.122 42.138 238.094 41.4251C238.066 40.703 237.64 40.0971 236.79 40.1299ZM239.948 38.3693C239.915 37.5284 240.575 36.8255 241.406 36.7933C242.238 36.7612 242.941 37.4114 242.973 38.2522C243.005 39.084 242.355 39.7865 241.523 39.8187C240.692 39.8508 239.98 39.201 239.948 38.3693ZM244.993 36.7644L245.807 36.7329L241.736 43.417L240.922 43.4484L244.993 36.7644ZM240.661 38.3417C240.679 38.8078 241.058 39.1501 241.497 39.1332C241.936 39.1162 242.287 38.7456 242.269 38.2795C242.251 37.8133 241.872 37.4619 241.433 37.4788C240.994 37.4958 240.643 37.8756 240.661 38.3417ZM243.748 41.9478C243.716 41.1161 244.365 40.4044 245.197 40.3722C246.029 40.34 246.732 40.9994 246.764 41.8311C246.796 42.672 246.146 43.3745 245.315 43.4067C244.483 43.4388 243.78 42.7887 243.748 41.9478ZM244.452 41.9206C244.47 42.3867 244.849 42.7381 245.288 42.7212C245.736 42.7038 246.078 42.3245 246.06 41.8583C246.042 41.3922 245.671 41.0404 245.224 41.0577C244.785 41.0747 244.433 41.4544 244.452 41.9206Z" fill="black"/>
<path id="Vector_11" fill-rule="evenodd" clip-rule="evenodd" d="M246.183 137.25L246.365 141.969L253.75 145.86L253.717 145.019L254.866 145.624L254.92 147.022C254.936 147.431 254.655 147.609 254.292 147.418L245.923 143.008C245.561 142.817 245.254 142.33 245.238 141.92L245.012 136.088C244.996 135.679 245.277 135.502 245.64 135.693L254.009 140.103C254.372 140.294 254.678 140.781 254.694 141.19L254.742 142.416L253.593 141.811L253.567 141.141L246.183 137.25Z" fill="#136D58"/>
<path id="Vector_12" fill-rule="evenodd" clip-rule="evenodd" d="M247.672 134.492C247.657 134.082 247.938 133.905 248.3 134.096L256.669 138.506C257.032 138.697 257.339 139.184 257.354 139.594L257.58 145.425C257.596 145.835 257.315 146.012 256.952 145.821L248.583 141.411C248.221 141.22 247.914 140.733 247.898 140.324L247.845 138.952L248.994 139.558L249.026 140.373L256.41 144.264L256.227 139.544L248.843 135.653L248.877 136.549L247.729 135.943L247.672 134.492Z" fill="#136D58"/>
</g>
<defs>
<filter id="filter0_d_3001_5454" x="0.452366" y="0.797764" width="288.298" height="186.523" filterUnits="userSpaceOnUse" color-interpolation-filters="sRGB">
<feFlood flood-opacity="0" result="BackgroundImageFix"/>
<feColorMatrix in="SourceAlpha" type="matrix" values="0 0 0 0 0 0 0 0 0 0 0 0 0 0 0 0 0 0 127 0" result="hardAlpha"/>
<feOffset/>
<feGaussianBlur stdDeviation="8.66667"/>
<feComposite in2="hardAlpha" operator="out"/>
<feColorMatrix type="matrix" values="0 0 0 0 0 0 0 0 0 0 0 0 0 0 0 0 0 0 0.12 0"/>
<feBlend mode="normal" in2="BackgroundImageFix" result="effect1_dropShadow_3001_5454"/>
<feBlend mode="normal" in="SourceGraphic" in2="effect1_dropShadow_3001_5454" result="shape"/>
</filter>
<linearGradient id="paint0_linear_3001_5454" x1="193.106" y1="35.5992" x2="233.846" y2="66.4132" gradientUnits="userSpaceOnUse">
<stop stop-color="#D6E4E2"/>
<stop offset="0.494792" stop-color="#FFD6B8"/>
<stop offset="1" stop-color="#FFC3A9"/>
</linearGradient>
</defs>
</svg>
