<svg width="577" height="417" viewBox="0 0 577 417" fill="none" xmlns="http://www.w3.org/2000/svg">
<g clip-path="url(#clip0_3001_5736)">
<g clip-path="url(#clip1_3001_5736)">
<g clip-path="url(#clip2_3001_5736)">
<g clip-path="url(#clip3_3001_5736)">
<g clip-path="url(#clip4_3001_5736)">
<path d="M69.3121 24.3252H12.4447C6.0568 24.3252 0.87841 29.5036 0.87841 35.8915V92.7589C0.87841 99.1468 6.0568 104.325 12.4447 104.325H69.3121C75.7 104.325 80.8784 99.1468 80.8784 92.7589V35.8915C80.8784 29.5036 75.7 24.3252 69.3121 24.3252Z" fill="white"/>
<path d="M60.6076 37.6338H21.1509C17.3053 37.6338 14.1879 40.7512 14.1879 44.5967V84.0535C14.1879 87.899 17.3053 91.0164 21.1509 91.0164H60.6076C64.4531 91.0164 67.5706 87.899 67.5706 84.0535V44.5967C67.5706 40.7512 64.4531 37.6338 60.6076 37.6338Z" fill="#226AFB"/>
<path d="M49.9928 63.0031C49.7109 62.7663 49.4145 62.5484 49.1055 62.3507C50.3035 60.806 50.9541 58.8853 50.9494 56.907C50.9541 55.6093 50.6762 54.3272 50.1361 53.1553C49.5961 51.9833 48.8078 50.9515 47.8293 50.1362C46.0796 48.7282 43.8919 48.0274 41.677 48.1656H30.8634V80.4815H43.0555C45.552 80.64 48.0187 79.8532 49.9928 78.2687C51.096 77.3493 51.9849 76.186 52.5938 74.8646C53.2027 73.5431 53.5159 72.0975 53.5105 70.6344C53.5155 69.1718 53.202 67.7267 52.5932 66.4059C51.9843 65.085 51.0957 63.9221 49.9928 63.0031ZM36.2738 53.4012H40.6874C43.178 53.4012 43.9933 53.9496 44.5061 54.5441C45.0941 55.1965 45.4203 56.0549 45.4186 56.9459C45.4171 57.8369 45.0879 58.6941 44.4974 59.3443C43.9904 59.9387 43.178 60.4781 40.6874 60.4781H36.2738V53.4012ZM46.7302 73.7835C45.9912 74.5459 44.9166 75.2518 42.076 75.2518H36.2738V65.7124H42.076C44.9151 65.7124 45.9883 66.4153 46.7215 67.1717C47.5539 68.0574 48.0202 69.2421 48.0217 70.4758C48.0234 71.7095 47.5602 72.8955 46.7302 73.7835Z" fill="white"/>
<path d="M168.589 24.3252H111.722C105.334 24.3252 100.156 29.5036 100.156 35.8915V92.7589C100.156 99.1468 105.334 104.325 111.722 104.325H168.589C174.977 104.325 180.156 99.1468 180.156 92.7589V35.8915C180.156 29.5036 174.977 24.3252 168.589 24.3252Z" fill="white"/>
<mask id="mask0_3001_5736" style="mask-type:luminance" maskUnits="userSpaceOnUse" x="120" y="42" width="40" height="45">
<path d="M159.661 42.3789H120.645V86.2715H159.661V42.3789Z" fill="white"/>
</mask>
<g mask="url(#mask0_3001_5736)">
<path fill-rule="evenodd" clip-rule="evenodd" d="M148.099 85.4962L148 47.8864C147.746 47.6331 147.25 47.7096 147.056 47.766L145.765 48.1649C145.605 47.6422 145.399 47.1352 145.147 46.6499C144.231 44.9068 142.892 43.985 141.271 43.9825H141.266C141.157 43.9825 141.05 43.9925 140.942 44.0013L140.929 44.0026C140.882 43.945 140.834 43.889 140.783 43.8346C140.078 43.0821 139.172 42.7147 138.088 42.746C135.996 42.8061 133.913 44.3136 132.223 46.991C131.034 48.8759 130.13 51.2424 129.873 53.0746L125.754 54.3474C124.542 54.7274 124.503 54.7651 124.344 55.905C124.225 56.7678 121.052 81.2461 121.052 81.2461L147.643 85.8335L148.099 85.4962ZM139.386 44.4653C139.033 44.2333 138.619 44.1255 138.128 44.1355C134.899 44.2283 132.081 49.2609 131.363 52.6143L134.456 51.6587L135.009 51.4882C135.414 49.3587 136.431 47.1491 137.761 45.7269C138.227 45.2173 138.777 44.7907 139.386 44.4653ZM136.538 51.0154L140.979 49.6434C140.992 48.4896 140.867 46.7841 140.288 45.5802C139.671 45.8335 139.152 46.2775 138.78 46.675C137.782 47.7447 136.967 49.3763 136.539 51.0154H136.538ZM142.369 49.2145L144.433 48.5762C144.103 47.5077 143.321 45.7169 141.733 45.4159C142.227 46.6863 142.354 48.1574 142.369 49.2145Z" fill="#95BF47"/>
<path d="M154.058 50.6842C153.899 50.6717 150.826 50.624 150.826 50.624C150.826 50.624 148.255 48.1334 148 47.8788C147.902 47.7883 147.778 47.7312 147.645 47.7158V85.8271L159.167 82.9691C159.167 82.9691 154.464 51.2523 154.434 51.0353C154.42 50.9432 154.374 50.8586 154.306 50.795C154.237 50.7312 154.151 50.6923 154.058 50.6842Z" fill="#5E8E3E"/>
<path d="M141.258 56.6032L139.919 61.5993C139.919 61.5993 138.426 60.921 136.656 61.0325C134.06 61.1956 134.032 62.8296 134.059 63.2397C134.2 65.472 140.091 65.9611 140.423 71.1943C140.683 75.3114 138.234 78.1294 134.705 78.3501C130.47 78.6172 128.137 76.1241 128.137 76.1241L129.035 72.3142C129.035 72.3142 131.383 74.0812 133.26 73.962C134.488 73.8856 134.927 72.8898 134.882 72.1851C134.697 69.2718 129.899 69.4423 129.596 64.6543C129.342 60.6225 131.994 56.5404 137.847 56.1718C140.103 56.0287 141.258 56.6044 141.258 56.6044" fill="white"/>
</g>
<path d="M267.866 24.3252H210.999C204.611 24.3252 199.433 29.5036 199.433 35.8915V92.7589C199.433 99.1468 204.611 104.325 210.999 104.325H267.866C274.254 104.325 279.433 99.1468 279.433 92.7589V35.8915C279.433 29.5036 274.254 24.3252 267.866 24.3252Z" fill="white"/>
<mask id="mask1_3001_5736" style="mask-type:luminance" maskUnits="userSpaceOnUse" x="217" y="49" width="45" height="31">
<path d="M261.688 49.4233H217.181V79.2268H261.688V49.4233Z" fill="white"/>
</mask>
<g mask="url(#mask1_3001_5736)">
<path d="M261.688 79.2268H217.181V49.4233H261.688L252.367 64.325L261.688 79.2268Z" fill="black"/>
</g>
<path d="M367.143 24.3252H310.276C303.888 24.3252 298.71 29.5036 298.71 35.8915V92.7589C298.71 99.1468 303.888 104.325 310.276 104.325H367.143C373.531 104.325 378.71 99.1468 378.71 92.7589V35.8915C378.71 29.5036 373.531 24.3252 367.143 24.3252Z" fill="white"/>
<mask id="mask2_3001_5736" style="mask-type:luminance" maskUnits="userSpaceOnUse" x="309" y="56" width="59" height="17">
<path d="M367.726 56.394H309.696V72.2557H367.726V56.394Z" fill="white"/>
</mask>
<g mask="url(#mask2_3001_5736)">
<path fill-rule="evenodd" clip-rule="evenodd" d="M312.969 58.6391L315.093 64.5201L317.341 58.6391H320.516L315.093 72.2556H311.943L313.555 68.034L309.696 58.6391H312.969ZM346.527 58.4194C349.384 58.4194 351.485 60.6401 351.485 63.6904C351.485 66.7407 349.384 68.9614 346.527 68.9614C345.477 68.9614 344.573 68.6929 343.889 68.1317L343.84 68.1072L343.791 68.0828V72.2556H340.739V58.6391H343.45V59.6639L343.474 59.6395C344.133 58.8831 345.159 58.4683 346.405 58.4439H346.478L346.527 58.4194ZM326.084 58.4194C329.235 58.4194 331.482 60.5912 331.482 63.6904C331.482 66.7651 329.235 68.9614 326.084 68.9614C322.909 68.9614 320.663 66.7651 320.663 63.6904C320.687 60.5912 322.909 58.4194 326.084 58.4194ZM336.586 56.394V58.6391H339.102V61.2745H336.586V64.9105C336.586 65.7158 336.978 66.1795 337.71 66.2039H337.734H337.758C338.247 66.2039 338.613 66.0819 338.956 65.7646L338.98 65.7402L339.053 65.667H339.078V68.5709L338.98 68.6197C338.467 68.8637 338.174 68.9614 337.295 68.9614C334.876 68.9614 333.534 67.6436 333.485 65.1789V65.1058V65.0325V61.2745H332.386V58.6391H333.582V56.394H336.586ZM358.153 58.4194C361.303 58.4194 363.55 60.5912 363.55 63.6904C363.55 66.7651 361.303 68.9614 358.153 68.9614C354.978 68.9614 352.731 66.7651 352.731 63.6904C352.755 60.5912 354.978 58.4194 358.153 58.4194ZM366.066 65.6181C366.994 65.6181 367.751 66.3747 367.751 67.302C367.751 68.2292 366.994 68.9858 366.066 68.9858C365.138 68.9858 364.38 68.2292 364.38 67.302C364.38 66.3747 365.138 65.6181 366.066 65.6181ZM346.063 61.1769C344.695 61.1769 343.743 62.2018 343.743 63.6904C343.743 65.2033 344.671 66.2039 346.063 66.2039C347.455 66.2039 348.407 65.1789 348.407 63.6904C348.383 62.1775 347.455 61.1769 346.063 61.1769ZM326.084 61.1769C324.692 61.1769 323.74 62.2018 323.74 63.6904C323.74 65.1789 324.692 66.2039 326.084 66.2039C327.452 66.2039 328.404 65.1789 328.404 63.6904C328.404 62.2018 327.452 61.1769 326.084 61.1769ZM358.153 61.1769C356.761 61.1769 355.808 62.2018 355.808 63.6904C355.808 65.1789 356.761 66.2039 358.153 66.2039C359.52 66.2039 360.473 65.1789 360.473 63.6904C360.473 62.2018 359.52 61.1769 358.153 61.1769Z" fill="#0042E4"/>
</g>
<path d="M466.421 24.3252H409.553C403.165 24.3252 397.987 29.5036 397.987 35.8915V92.7589C397.987 99.1468 403.165 104.325 409.553 104.325H466.421C472.808 104.325 477.987 99.1468 477.987 92.7589V35.8915C477.987 29.5036 472.808 24.3252 466.421 24.3252Z" fill="white"/>
<mask id="mask3_3001_5736" style="mask-type:luminance" maskUnits="userSpaceOnUse" x="415" y="41" width="46" height="46">
<path d="M460.637 41.6748H415.336V86.976H460.637V41.6748Z" fill="white"/>
</mask>
<g mask="url(#mask3_3001_5736)">
<path d="M415.336 48.6336C415.336 44.7907 418.454 41.6748 422.295 41.6748H453.678C457.521 41.6748 460.637 44.7927 460.637 48.6336V80.0173C460.637 83.8602 457.519 86.976 453.678 86.976H422.295C418.452 86.976 415.336 83.8581 415.336 80.0173V48.6336Z" fill="#FCC419"/>
<path fill-rule="evenodd" clip-rule="evenodd" d="M445.752 59.7949H444.391C444.12 59.7949 443.888 59.8919 443.692 60.0881C443.514 60.2664 443.403 60.4766 443.396 60.7166C443.392 60.8633 443.372 61.7221 443.323 62.2645C443.176 63.8376 442.654 65.1025 441.758 66.06C440.871 67.0114 439.614 67.4892 437.99 67.4973C436.363 67.4899 435.106 67.0121 434.216 66.06C433.321 65.1025 432.799 63.8375 432.652 62.2645C432.604 61.7221 432.583 60.8632 432.579 60.7165C432.573 60.4765 432.461 60.2664 432.284 60.0881C432.088 59.8919 431.855 59.7949 431.584 59.7949H430.223C429.952 59.7949 429.72 59.8919 429.523 60.0881C429.346 60.2664 429.229 60.4429 429.229 60.7521C429.229 60.7521 429.277 62.1654 429.302 62.4475C429.523 64.9548 430.388 66.951 431.898 68.4375C433.393 69.9106 435.413 70.6533 437.957 70.6666C437.997 70.6669 438.008 70.6672 438.018 70.6672C440.562 70.6533 442.583 69.9106 444.077 68.4375C445.587 66.951 446.451 64.9549 446.672 62.4475C446.698 62.1654 446.745 60.7522 446.745 60.7522C446.745 60.4429 446.629 60.2664 446.452 60.0881C446.256 59.8919 446.022 59.7949 445.752 59.7949Z" fill="white"/>
</g>
<path d="M565.698 24.3252H508.83C502.442 24.3252 497.264 29.5036 497.264 35.8915V92.7589C497.264 99.1468 502.442 104.325 508.83 104.325H565.698C572.086 104.325 577.264 99.1468 577.264 92.7589V35.8915C577.264 29.5036 572.086 24.3252 565.698 24.3252Z" fill="white"/>
<mask id="mask4_3001_5736" style="mask-type:luminance" maskUnits="userSpaceOnUse" x="511" y="45" width="52" height="39">
<path d="M562.806 45.6074H511.722V83.1978H562.806V45.6074Z" fill="white"/>
</mask>
<g mask="url(#mask4_3001_5736)">
<path d="M535.321 55.5322V83.1981H511.722L535.321 55.5322Z" fill="#03363D"/>
<path d="M535.321 45.6074C535.321 51.9296 530.046 57.0512 523.534 57.0512C517.022 57.0512 511.722 51.9296 511.722 45.6074H535.321Z" fill="#03363D"/>
<path d="M539.207 83.1977C539.207 76.8754 544.481 71.7539 550.993 71.7539C557.505 71.7539 562.78 76.8754 562.78 83.1977H539.207Z" fill="#03363D"/>
<path d="M539.207 73.2734V45.6074H562.805L539.207 73.2734Z" fill="#03363D"/>
</g>
</g>
</g>
</g>
</g>
<g clip-path="url(#clip5_3001_5736)">
<g clip-path="url(#clip6_3001_5736)">
<g clip-path="url(#clip7_3001_5736)">
<g clip-path="url(#clip8_3001_5736)">
<path d="M126.902 128.325H70.0347C63.6468 128.325 58.4684 133.504 58.4684 139.891V196.759C58.4684 203.147 63.6468 208.325 70.0347 208.325H126.902C133.29 208.325 138.468 203.147 138.468 196.759V139.891C138.468 133.504 133.29 128.325 126.902 128.325Z" fill="white"/>
<path d="M119.021 140.647H77.918C73.9822 140.647 70.7915 143.838 70.7915 147.774V188.877C70.7915 192.812 73.9822 196.003 77.918 196.003H119.021C122.956 196.003 126.147 192.812 126.147 188.877V147.774C126.147 143.838 122.956 140.647 119.021 140.647Z" fill="white"/>
<path d="M84.875 164.252H82.2448V161.882H84.875V161.133C84.875 154.235 89.763 153.356 92.0937 153.356C92.8868 153.356 93.3885 153.437 93.3885 153.437V155.976C93.3885 155.976 93.0163 155.895 92.385 155.895C90.7988 155.895 87.7074 156.475 87.7074 161.133V161.882H93.0486V164.252H87.7074V182.795H84.875V164.252Z" fill="black"/>
<path d="M97.4606 156.934C97.4606 156.354 97.1287 156.024 96.5461 156.024H94.79V153.566H97.7519C99.5485 153.566 100.301 154.315 100.301 156.104V163.671C100.301 164.63 100.22 165.372 100.22 165.372H100.301C100.301 165.372 102.057 161.383 107.439 161.383C113.072 161.383 116.584 165.871 116.584 172.358C116.584 178.967 112.618 183.294 107.107 183.294C102.098 183.294 100.22 179.265 100.22 179.265H100.139C100.139 179.265 100.22 179.974 100.22 180.965V182.794H97.4687V156.934H97.4606ZM106.897 180.796C110.611 180.796 113.662 177.677 113.662 172.358C113.662 167.249 110.911 163.961 107.026 163.961C103.522 163.961 100.22 166.46 100.22 172.399C100.212 176.597 102.381 180.796 106.897 180.796Z" fill="black"/>
<path d="M226.179 128.325H169.312C162.924 128.325 157.746 133.504 157.746 139.891V196.759C157.746 203.147 162.924 208.325 169.312 208.325H226.179C232.567 208.325 237.746 203.147 237.746 196.759V139.891C237.746 133.504 232.567 128.325 226.179 128.325Z" fill="white"/>
<mask id="mask5_3001_5736" style="mask-type:luminance" maskUnits="userSpaceOnUse" x="173" y="143" width="50" height="50">
<path d="M222.374 143.7H173.122V192.952H222.374V143.7Z" fill="white"/>
</mask>
<g mask="url(#mask5_3001_5736)">
<path d="M192.899 155.012C185.82 157.475 183.28 163.554 189.899 168.479C192.13 163.4 194.824 156.859 199.441 154.32C198.902 154.243 198.286 154.243 197.671 154.243C196.055 154.166 194.439 154.473 192.899 155.012ZM203.366 155.32C198.363 157.475 195.67 165.324 193.746 170.711C198.748 173.174 204.674 174.482 210.138 175.098C211.292 173.097 211.907 170.711 211.907 168.249C211.831 162.554 208.368 157.552 203.366 155.32ZM188.898 180.408C191.284 182.178 194.208 183.178 197.363 183.178C201.749 183.178 205.983 180.485 208.599 177.329C203.443 176.483 197.825 175.175 192.899 173.097C191.976 175.406 190.283 178.33 188.898 180.408ZM173.122 168.326C173.122 181.947 184.127 192.951 197.748 192.951C211.37 192.951 222.374 181.947 222.374 168.326C222.374 154.704 211.37 143.7 197.748 143.7C184.127 143.7 173.122 154.704 173.122 168.326ZM186.359 183.332C185.281 182.562 183.819 181.177 183.203 180.177C182.973 179.792 182.973 179.407 183.28 179.099C185.281 176.483 187.282 174.097 188.744 171.096C178.355 165.17 180.587 155.628 189.36 151.472C191.9 150.241 194.747 149.548 197.748 149.548C208.137 149.548 216.602 158.013 216.602 168.403C216.602 178.792 208.137 187.18 197.748 187.18C193.669 187.18 189.822 185.872 186.743 183.64L186.359 183.332Z" fill="black"/>
</g>
<path d="M325.456 128.325H268.589C262.201 128.325 257.023 133.504 257.023 139.891V196.759C257.023 203.147 262.201 208.325 268.589 208.325H325.456C331.844 208.325 337.023 203.147 337.023 196.759V139.891C337.023 133.504 331.844 128.325 325.456 128.325Z" fill="white"/>
<mask id="mask6_3001_5736" style="mask-type:luminance" maskUnits="userSpaceOnUse" x="273" y="144" width="48" height="48">
<path d="M320.588 144.762H273.461V191.889H320.588V144.762Z" fill="white"/>
</mask>
<g mask="url(#mask6_3001_5736)">
<path d="M320.588 144.762H273.461V191.889H320.588V144.762Z" fill="#00EAB6"/>
<path d="M297.024 149.958C293.819 149.958 290.807 150.783 288.184 152.228C288.184 152.228 297.004 152.228 297.024 152.228C305.902 152.228 313.123 159.45 313.123 168.328C313.123 177.206 305.902 184.428 297.024 184.428C288.146 184.428 280.923 177.203 280.923 168.325C280.923 166.737 281.159 165.203 281.591 163.752H279.232C278.857 165.215 278.656 166.747 278.656 168.325C278.656 178.47 286.879 186.692 297.024 186.692C307.168 186.692 315.391 178.47 315.391 168.325C315.391 158.181 307.168 149.958 297.024 149.958Z" fill="black"/>
<path d="M284.839 154.589C284.059 155.283 283.337 156.04 282.681 156.857H297.025C303.347 156.857 308.493 162.002 308.493 168.325C308.493 174.648 303.347 179.794 297.025 179.794C290.701 179.794 285.556 174.648 285.556 168.325C285.556 166.701 285.896 165.154 286.51 163.752H284.074C283.566 165.183 283.289 166.72 283.289 168.325C283.289 175.912 289.437 182.061 297.025 182.061C304.611 182.061 310.76 175.912 310.76 168.325C310.76 160.738 304.611 154.589 297.025 154.589H284.839Z" fill="black"/>
<path d="M297.025 161.44C300.822 161.44 303.911 164.528 303.911 168.326C303.911 172.123 300.822 175.212 297.025 175.212C293.228 175.212 290.139 172.123 290.139 168.326C290.139 166.568 290.806 164.971 291.891 163.753H289.102C288.321 165.099 287.869 166.658 287.869 168.326C287.869 173.382 291.968 177.481 297.025 177.481C302.081 177.481 306.18 173.382 306.18 168.326C306.18 163.269 302.081 159.17 297.025 159.17H281.106C280.688 159.897 280.316 160.654 279.997 161.437H297.025V161.44Z" fill="black"/>
</g>
<path d="M424.733 128.325H367.866C361.478 128.325 356.3 133.504 356.3 139.891V196.759C356.3 203.147 361.478 208.325 367.866 208.325H424.733C431.121 208.325 436.3 203.147 436.3 196.759V139.891C436.3 133.504 431.121 128.325 424.733 128.325Z" fill="white"/>
<mask id="mask7_3001_5736" style="mask-type:luminance" maskUnits="userSpaceOnUse" x="372" y="144" width="48" height="48">
<path d="M419.631 144.835H372.964V191.815H419.631V144.835Z" fill="white"/>
</mask>
<g mask="url(#mask7_3001_5736)">
<path fill-rule="evenodd" clip-rule="evenodd" d="M411.08 153.73L409.025 154.758C413.035 158.004 415.003 162.192 415.362 167.259C415.053 177.047 410.448 183.34 402.525 186.029C393.366 188.792 387.572 186.562 381.953 180.825L381.593 183.031L383.871 185.409C391.805 193.685 404.976 193.958 413.245 186.016C421.514 178.075 421.786 164.893 413.852 156.617L411.08 153.73Z" fill="#FEEF7C"/>
<path fill-rule="evenodd" clip-rule="evenodd" d="M380.466 181.817L381.84 180.615C376.109 172.475 375.874 160.581 383.709 154.027C389.527 149.171 401.064 146.656 410.285 154.783L410.979 153.569L408.726 151.227C400.791 142.951 387.62 142.679 379.351 150.62C371.083 158.562 370.811 171.744 378.745 180.02L380.466 181.817Z" fill="#5CD3CB"/>
<path d="M396.323 187.516C406.879 187.516 415.436 178.951 415.436 168.387C415.436 157.822 406.879 149.258 396.323 149.258C385.768 149.258 377.211 157.822 377.211 168.387C377.211 178.951 385.768 187.516 396.323 187.516Z" fill="white"/>
<path d="M375.502 168.387C375.502 179.896 384.822 189.225 396.322 189.225C407.822 189.225 417.143 179.896 417.143 168.387C417.143 156.877 407.822 147.548 396.322 147.548C384.822 147.548 375.502 156.877 375.502 168.387ZM389.985 172.153C390.207 171.459 389.96 170.703 389.378 170.27C387.843 169.118 384.798 166.85 382.756 165.326C382.458 165.103 382.334 164.719 382.458 164.372C382.57 164.026 382.904 163.79 383.263 163.79H391.173C391.903 163.79 392.559 163.319 392.794 162.613C393.413 160.73 394.652 156.976 395.48 154.498C395.592 154.151 395.926 153.916 396.285 153.916C396.656 153.916 396.978 154.151 397.102 154.498C397.932 156.988 399.182 160.73 399.813 162.626C400.048 163.319 400.692 163.79 401.434 163.79C403.304 163.79 406.906 163.79 409.37 163.79C409.741 163.79 410.063 164.026 410.174 164.372C410.285 164.719 410.173 165.103 409.877 165.326C407.847 166.863 404.802 169.155 403.266 170.307C402.684 170.741 402.449 171.496 402.673 172.19C403.267 174.073 404.455 177.84 405.26 180.379C405.371 180.739 405.235 181.123 404.938 181.333C404.628 181.544 404.22 181.544 403.923 181.309C401.88 179.735 398.897 177.443 397.325 176.241C396.706 175.771 395.852 175.771 395.245 176.241C393.698 177.443 390.752 179.723 388.722 181.284C388.425 181.507 388.016 181.519 387.707 181.309C387.398 181.098 387.273 180.702 387.385 180.355C388.201 177.815 389.39 174.036 389.985 172.153Z" fill="black"/>
</g>
<path d="M524.011 128.325H467.143C460.755 128.325 455.577 133.504 455.577 139.891V196.759C455.577 203.147 460.755 208.325 467.143 208.325H524.011C530.398 208.325 535.577 203.147 535.577 196.759V139.891C535.577 133.504 530.398 128.325 524.011 128.325Z" fill="white"/>
<path d="M519.312 144.59H471.842V192.061H519.312V144.59Z" fill="#14854D"/>
<path d="M490.779 181.152C495.531 181.152 498.307 178.257 498.307 173.266V153.875H493.744V173.038C493.744 175.667 492.793 176.924 490.816 176.924C488.84 176.924 487.774 175.705 487.774 173.152V166.371H483.213V173.381C483.213 178.448 485.836 181.152 490.779 181.152Z" fill="white"/>
<path d="M509.004 163.628L508.49 168.274L513.177 166.958L513.589 170.132L509.314 170.442L512.121 174.184L509.263 175.707L507.305 171.758L505.58 175.681L502.617 174.184L505.399 170.442L501.149 170.106L501.639 166.958L506.223 168.274L505.708 163.628H509.004Z" fill="white"/>
<path d="M623.288 128.325H566.42C560.032 128.325 554.854 133.504 554.854 139.891V196.759C554.854 203.147 560.032 208.325 566.42 208.325H623.288C629.676 208.325 634.854 203.147 634.854 196.759V139.891C634.854 133.504 629.676 128.325 623.288 128.325Z" fill="white"/>
<mask id="mask8_3001_5736" style="mask-type:luminance" maskUnits="userSpaceOnUse" x="569" y="145" width="51" height="47">
<path d="M619.779 145.528H569.93V191.122H619.779V145.528Z" fill="white"/>
</mask>
<g mask="url(#mask8_3001_5736)">
<path fill-rule="evenodd" clip-rule="evenodd" d="M613.153 151.281C611.307 151.498 609.46 152.258 607.94 153.344C604.031 148.567 598.275 145.528 591.867 145.528C579.92 145.528 570.363 155.732 570.363 168.325C570.363 169.085 570.363 169.845 570.471 170.605C569.711 172.776 569.82 174.947 570.689 175.49C570.906 175.598 571.123 175.598 571.449 175.598C574.273 184.608 582.309 191.122 591.867 191.122C603.704 191.122 613.371 180.918 613.371 168.325C613.371 167.782 613.371 167.239 613.262 166.697C615.868 165.285 618.257 162.788 619.235 159.64C620.972 154.538 617.932 150.847 613.153 151.281ZM591.649 148.133C597.405 148.133 602.51 150.847 605.986 155.081C604.79 156.384 603.813 157.903 603.27 159.423C602.836 160.617 602.727 161.811 602.836 162.897L591.867 171.582C591.541 171.147 591.106 170.822 590.672 170.605C590.781 169.519 590.89 168.325 590.998 167.131C591.107 163.223 590.129 159.64 587.414 158.229C588.066 155.624 587.305 153.887 585.676 153.995C584.156 154.104 582.418 155.949 581.332 158.229C578.4 159.532 576.336 162.246 575.033 164.417C574.599 165.177 574.164 165.828 573.838 166.588C573.512 166.588 573.295 166.697 572.97 166.914C573.404 156.384 581.658 148.133 591.649 148.133ZM589.694 177.769C589.043 179.506 587.631 180.592 586.545 180.049C585.567 179.615 585.241 177.878 585.785 176.249C586.328 174.621 587.631 173.536 588.717 173.861C589.911 174.295 590.346 176.032 589.694 177.769ZM585.241 159.097C584.699 160.509 583.721 161.594 582.852 161.486C582.092 161.377 581.875 160.292 582.309 159.097C582.744 157.795 583.83 156.709 584.59 156.709C585.459 156.709 585.676 157.795 585.241 159.097ZM571.558 173.101C571.123 172.884 571.015 171.799 571.449 170.713C571.883 169.627 572.535 168.868 573.078 168.976C573.621 169.085 573.621 170.279 573.186 171.364C572.861 172.559 572.1 173.318 571.558 173.101ZM591.649 188.191C582.961 188.191 575.685 182.003 573.512 173.644C573.838 173.101 574.164 172.45 574.382 171.799C575.033 169.953 575.141 168.325 574.815 167.348C575.033 166.914 575.359 166.371 575.685 165.828C577.097 163.548 578.726 162.028 580.464 161.269C580.246 162.897 580.789 164.2 581.875 164.308C583.07 164.525 584.59 163.331 585.785 161.594C587.197 162.68 588.066 164.851 587.957 168.325C587.957 169.085 587.849 169.953 587.74 170.713C586.111 171.473 584.59 173.21 583.83 175.49C582.635 178.855 583.178 182.437 585.241 183.631C587.523 184.934 590.781 182.763 592.193 178.746C592.626 177.552 592.844 176.358 592.844 175.273L604.465 166.588C605.225 167.239 606.202 167.782 607.505 167.891C608.483 167.999 609.46 167.999 610.546 167.673C610.546 167.782 610.546 167.891 610.546 168.108C610.546 179.289 602.075 188.191 591.649 188.191ZM614.239 159.64C613.479 161.92 611.09 163.657 609.026 163.44C607.071 163.331 606.202 161.486 606.854 159.532C607.506 157.469 609.678 155.841 611.633 155.732C613.804 155.624 614.999 157.361 614.239 159.64Z" fill="#1C8CD7"/>
</g>
</g>
</g>
</g>
</g>
<g clip-path="url(#clip9_3001_5736)">
<g clip-path="url(#clip10_3001_5736)">
<g clip-path="url(#clip11_3001_5736)">
<g clip-path="url(#clip12_3001_5736)">
<path d="M11.7221 232.325H-45.1453C-51.5332 232.325 -56.7116 237.504 -56.7116 243.891V300.759C-56.7116 307.147 -51.5332 312.325 -45.1453 312.325H11.7221C18.11 312.325 23.2884 307.147 23.2884 300.759V243.891C23.2884 237.504 18.11 232.325 11.7221 232.325Z" fill="white"/>
<mask id="mask9_3001_5736" style="mask-type:luminance" maskUnits="userSpaceOnUse" x="-39" y="247" width="44" height="50">
<path d="M4.90874 247.942H-38.3306V296.708H4.90874V247.942Z" fill="white"/>
</mask>
<g mask="url(#mask9_3001_5736)">
<path d="M2.55867 260.909V259.119C0.307587 259.119 -1.79005 258.452 -3.54899 257.309C-1.98273 259.101 0.14431 260.394 2.55867 260.909Z" fill="#25F4EE"/>
<path d="M2.55772 260.908V267.151C-1.62166 267.151 -5.4954 265.819 -8.65723 263.557V279.884C-8.65723 288.038 -15.3135 294.67 -23.4942 294.67C-26.6561 294.67 -29.5871 293.677 -31.9978 291.99C-29.2876 294.89 -25.4262 296.708 -21.1449 296.708C-12.963 296.708 -6.30793 290.074 -6.30793 281.921V265.596C-3.1461 267.858 0.727638 269.19 4.90691 269.19V261.156C4.10055 261.156 3.31502 261.069 2.55772 260.908Z" fill="#FE2C55"/>
<path d="M-8.65646 279.884V263.558C-5.49463 265.819 -1.6209 267.152 2.55838 267.152V260.908C0.144119 260.393 -1.98302 259.102 -3.54918 257.308C-6.07526 255.667 -7.89791 253.042 -8.4662 249.98H-14.3676L-14.3811 282.175C-14.5161 285.78 -17.4939 288.674 -21.1442 288.674C-23.4051 288.674 -25.4058 287.561 -26.6369 285.859C-28.7934 284.728 -30.2701 282.475 -30.2701 279.883C-30.2701 276.159 -27.2297 273.129 -23.4935 273.129C-22.7963 273.129 -22.1273 273.244 -21.494 273.441V267.143C-29.5139 267.33 -35.9812 273.884 -35.9812 281.921C-35.9812 285.808 -34.4666 289.347 -31.997 291.989C-29.5875 293.675 -26.6553 294.669 -23.4935 294.669C-15.3128 294.669 -8.65646 288.036 -8.65646 279.883V279.884Z" fill="black"/>
</g>
<path d="M110.999 232.325H54.1318C47.7439 232.325 42.5655 237.504 42.5655 243.891V300.759C42.5655 307.147 47.7439 312.325 54.1318 312.325H110.999C117.387 312.325 122.566 307.147 122.566 300.759V243.891C122.566 237.504 117.387 232.325 110.999 232.325Z" fill="white"/>
<path d="M82.5626 294.788C95.1207 294.788 105.301 284.731 105.301 272.325C105.301 259.92 95.1207 249.863 82.5626 249.863C70.0045 249.863 59.8243 259.92 59.8243 272.325C59.8243 284.731 70.0045 294.788 82.5626 294.788Z" fill="#2CA01C"/>
<path d="M66.1385 272.325C66.1385 277.149 70.0971 281.061 74.9819 281.061H76.2455V277.814H74.9819C71.9168 277.814 69.4234 275.352 69.4234 272.325C69.4234 269.296 71.9168 266.834 74.9819 266.834H78.0171V283.806C78.0171 285.597 79.487 287.049 81.3019 287.049V263.589H74.9819C70.0971 263.589 66.1385 267.5 66.1385 272.325ZM90.1453 263.589H88.8817V266.836H90.1453C93.2103 266.836 95.7038 269.298 95.7038 272.325C95.7038 275.354 93.2103 277.816 90.1453 277.816H87.1101V260.844C87.1101 259.053 85.6402 257.601 83.8233 257.601V281.061H90.1453C95.0282 281.061 98.9886 277.15 98.9886 272.325C98.9886 267.503 95.0282 263.589 90.1453 263.589Z" fill="white"/>
<path d="M210.276 232.325H153.409C147.021 232.325 141.843 237.504 141.843 243.891V300.759C141.843 307.147 147.021 312.325 153.409 312.325H210.276C216.664 312.325 221.843 307.147 221.843 300.759V243.891C221.843 237.504 216.664 232.325 210.276 232.325Z" fill="white"/>
<mask id="mask10_3001_5736" style="mask-type:luminance" maskUnits="userSpaceOnUse" x="152" y="243" width="60" height="59">
<path d="M211.031 243.138H152.656V301.512H211.031V243.138Z" fill="white"/>
</mask>
<g mask="url(#mask10_3001_5736)">
<path d="M210.152 264.458C210.198 264.458 210.269 264.458 210.292 264.388C210.316 264.365 210.316 264.341 210.316 264.318C210.316 264.272 210.292 264.225 210.246 264.201C210.198 264.178 210.152 264.178 210.082 264.178H210.035V264.435H210.152M210.082 264.061C210.198 264.061 210.269 264.061 210.316 264.085C210.479 264.132 210.479 264.295 210.479 264.341C210.479 264.365 210.479 264.388 210.479 264.411C210.479 264.458 210.456 264.528 210.362 264.575C210.362 264.575 210.339 264.598 210.316 264.598L210.525 264.971H210.316L210.152 264.621H210.035V264.971H209.849V264.061H210.082ZM210.152 265.344C210.595 265.344 210.968 264.994 210.968 264.528C210.968 264.061 210.619 263.712 210.152 263.712C209.709 263.712 209.336 264.085 209.336 264.528C209.336 264.971 209.709 265.344 210.152 265.344ZM209.523 264.528C209.523 264.178 209.802 263.898 210.175 263.898C210.525 263.898 210.805 264.178 210.805 264.528C210.805 264.878 210.525 265.158 210.175 265.158C209.802 265.181 209.523 264.878 209.523 264.528ZM203.854 269.729C202.781 269.729 201.872 269.006 201.592 268.027H207.54L208.356 266.744H201.592C201.872 265.764 202.781 265.041 203.854 265.041H207.936L208.753 263.758H203.761C201.755 263.758 200.145 265.391 200.145 267.374C200.145 269.38 201.778 270.989 203.761 270.989H208.053L208.869 269.706H203.854M186.827 270.989H191.142L191.958 269.706H186.943C185.637 269.706 184.588 268.657 184.588 267.374C184.588 266.068 185.637 265.041 186.943 265.041H191.025L191.842 263.758H186.851C184.844 263.758 183.211 265.391 183.211 267.374C183.211 269.38 184.844 270.989 186.827 270.989ZM160.4 269.729H156.364C155.082 269.729 154.032 268.68 154.032 267.397C154.032 266.091 155.082 265.065 156.364 265.065H160.377C161.683 265.065 162.732 266.114 162.732 267.397C162.732 268.68 161.683 269.729 160.4 269.729ZM156.271 270.989H160.47C162.476 270.989 164.085 269.38 164.085 267.374C164.085 265.368 162.476 263.758 160.47 263.758H156.271C154.289 263.758 152.656 265.391 152.656 267.374C152.656 269.38 154.289 270.989 156.271 270.989ZM170.942 268.657C172.296 268.657 173.392 267.56 173.392 266.207C173.392 264.854 172.296 263.758 170.942 263.758H164.855V270.989H166.254V265.041H170.85C171.502 265.041 172.015 265.554 172.015 266.207C172.015 266.861 171.502 267.374 170.85 267.374H166.931L171.083 270.989H173.112L170.313 268.633H170.942M193.964 269.729V263.758H192.565V270.313C192.565 270.499 192.635 270.662 192.775 270.803C192.914 270.943 193.101 271.012 193.288 271.012H199.633L200.449 269.729H193.964ZM176.938 268.447H180.646L178.687 265.275L175.071 270.989H173.415L177.8 264.132C177.987 263.852 178.313 263.688 178.664 263.688C179.013 263.688 179.316 263.852 179.503 264.132L183.911 271.012H182.279L181.509 269.729H177.754L176.938 268.447Z" fill="black"/>
<path d="M153.334 275.352H155.176L157.415 280.04V275.352H158.606V281.322H156.855L154.546 276.353V281.299H153.334V275.352Z" fill="black"/>
<path d="M159.956 275.352H163.946V276.331H161.238V277.754H163.782V278.734H161.238V280.343H164.039V281.322H159.956V275.352Z" fill="black"/>
<path d="M166.512 276.331H164.738V275.352H169.59V276.331H167.818V281.322H166.535V276.331H166.512Z" fill="black"/>
<path d="M171.131 279.573C171.155 279.993 171.202 280.763 172.578 280.763C173.814 280.763 173.978 279.993 173.978 279.69C173.978 279.013 173.441 278.897 172.601 278.687C171.691 278.454 171.295 278.36 170.992 278.15C170.502 277.824 170.362 277.381 170.362 276.984C170.362 275.771 171.505 275.235 172.624 275.235C173.021 275.235 173.814 275.305 174.304 275.818C174.63 276.191 174.654 276.588 174.677 276.844H173.814C173.767 276.098 173.138 275.934 172.555 275.934C171.739 275.934 171.225 276.308 171.225 276.891C171.225 277.427 171.575 277.59 172.298 277.777C173.721 278.15 173.884 278.174 174.234 278.407C174.794 278.78 174.817 279.34 174.817 279.596C174.817 280.646 174.001 281.462 172.461 281.462C172.018 281.462 171.085 281.393 170.619 280.786C170.269 280.343 170.269 279.876 170.269 279.573H171.131Z" fill="#1A1919"/>
<path d="M176.961 275.352V279.037C176.961 279.667 177.1 279.946 177.217 280.11C177.59 280.6 178.173 280.693 178.569 280.693C180.179 280.693 180.179 279.433 180.179 278.99V275.352H180.972V279.037C180.972 279.364 180.972 280.017 180.483 280.623C179.899 281.37 178.99 281.439 178.546 281.439C177.986 281.439 176.984 281.276 176.447 280.483C176.261 280.226 176.097 279.877 176.097 278.99V275.352H176.961Z" fill="black"/>
<path d="M182.701 281.322H183.517V275.352H182.701V281.322Z" fill="black"/>
<path d="M186.733 281.322V276.05H184.726V275.352H189.531V276.05H187.526V281.322H186.733Z" fill="black"/>
<path d="M190.537 275.352H194.269V276.05H191.353V277.916H194.128V278.617H191.353V280.6H194.338V281.322H190.537V275.352Z" fill="black"/>
</g>
<path d="M309.553 232.325H252.686C246.298 232.325 241.12 237.504 241.12 243.891V300.759C241.12 307.147 246.298 312.325 252.686 312.325H309.553C315.941 312.325 321.12 307.147 321.12 300.759V243.891C321.12 237.504 315.941 232.325 309.553 232.325Z" fill="white"/>
<mask id="mask11_3001_5736" style="mask-type:luminance" maskUnits="userSpaceOnUse" x="257" y="248" width="49" height="49">
<path d="M305.209 248.556H257.035V296.095H305.209V248.556Z" fill="white"/>
</mask>
<g mask="url(#mask11_3001_5736)">
<path d="M281.097 248.556C267.802 248.556 257.035 259.176 257.035 272.325C257.035 285.475 267.802 296.095 281.097 296.095C294.391 296.095 305.157 285.475 305.157 272.325C305.208 259.176 294.391 248.556 281.097 248.556Z" fill="#13B5EA"/>
<path d="M274.678 271.315C275.133 269.646 276.649 268.432 278.368 268.432C280.138 268.432 281.654 269.596 282.059 271.315H274.678ZM283.423 272.377C283.676 272.074 283.777 271.669 283.676 271.264C283.372 269.747 282.513 268.533 281.3 267.724C280.44 267.168 279.429 266.915 278.419 266.915C277.256 266.915 276.194 267.269 275.285 267.927C273.87 268.938 273.01 270.607 273.01 272.377C273.01 272.832 273.06 273.237 273.161 273.692C273.717 275.816 275.537 277.434 277.762 277.738C277.964 277.788 278.166 277.788 278.419 277.788C278.874 277.788 279.278 277.738 279.733 277.637C280.289 277.384 280.794 277.131 281.3 276.828C281.755 276.524 282.21 276.12 282.665 275.513L282.715 275.462C282.867 275.26 282.917 275.007 282.917 274.805C282.867 274.602 282.766 274.4 282.615 274.299C282.462 274.198 282.26 274.097 282.109 274.097C281.957 274.097 281.704 274.147 281.451 274.451C281.401 274.552 281.3 274.653 281.199 274.754C280.895 275.108 280.541 275.361 280.138 275.614C279.581 275.917 278.974 276.069 278.368 276.069C276.397 276.069 275.234 274.754 274.728 273.54C274.678 273.338 274.627 273.136 274.577 272.933V272.883H282.159C282.715 272.883 283.17 272.681 283.423 272.377Z" fill="white"/>
<path d="M294.495 270.809C293.737 270.809 293.13 271.416 293.13 272.175C293.13 272.933 293.737 273.54 294.495 273.54C295.254 273.54 295.86 272.933 295.86 272.175C295.86 271.467 295.254 270.809 294.495 270.809Z" fill="white"/>
<path d="M289.439 267.723C289.439 267.268 289.085 266.965 288.63 266.965H288.428C287.771 266.965 287.114 267.167 286.608 267.572C286.508 267.268 286.204 267.015 285.85 267.015C285.395 267.015 285.092 267.369 285.092 267.774V276.776C285.092 277.181 285.446 277.535 285.85 277.535C286.305 277.535 286.608 277.181 286.608 276.776V271.264C286.608 269.494 286.76 268.735 288.327 268.533C288.479 268.533 288.58 268.533 288.63 268.533C289.136 268.482 289.439 268.179 289.439 267.723Z" fill="white"/>
<path d="M268.915 272.276L272.96 268.23C273.111 268.078 273.212 267.876 273.212 267.674C273.212 267.218 272.859 266.915 272.404 266.915C272.201 266.915 271.999 267.016 271.847 267.168L267.803 271.214L263.76 267.168C263.607 267.016 263.405 266.966 263.204 266.966C262.749 266.966 262.445 267.32 262.445 267.724C262.445 267.927 262.546 268.129 262.698 268.281L266.742 272.327L262.698 276.372C262.546 276.524 262.445 276.726 262.445 276.929C262.445 277.333 262.799 277.687 263.204 277.687C263.405 277.687 263.607 277.586 263.76 277.485L267.803 273.439L271.847 277.434C271.999 277.586 272.201 277.687 272.404 277.687C272.859 277.687 273.212 277.333 273.212 276.929C273.212 276.726 273.111 276.524 272.96 276.372L268.915 272.276Z" fill="white"/>
<path d="M294.491 275.967C292.419 275.967 290.7 274.298 290.7 272.174C290.7 270.101 292.419 268.381 294.491 268.381C296.565 268.381 298.283 270.05 298.283 272.174C298.283 274.298 296.565 275.967 294.491 275.967ZM294.491 266.813C291.509 266.813 289.083 269.241 289.083 272.174C289.083 275.158 291.509 277.535 294.491 277.535C297.474 277.535 299.9 275.108 299.9 272.174C299.9 269.241 297.474 266.813 294.491 266.813Z" fill="white"/>
</g>
<path d="M408.831 232.325H351.963C345.575 232.325 340.397 237.504 340.397 243.891V300.759C340.397 307.147 345.575 312.325 351.963 312.325H408.831C415.218 312.325 420.397 307.147 420.397 300.759V243.891C420.397 237.504 415.218 232.325 408.831 232.325Z" fill="white"/>
<mask id="mask12_3001_5736" style="mask-type:luminance" maskUnits="userSpaceOnUse" x="357" y="249" width="46" height="46">
<path d="M402.939 249.785H357.859V294.865H402.939V249.785Z" fill="white"/>
</mask>
<g mask="url(#mask12_3001_5736)">
<path d="M379.283 271.205H357.859V249.785H379.283V271.205Z" fill="#F1511B"/>
<path d="M402.937 271.205H381.511V249.785H402.935V271.205H402.937Z" fill="#80CC28"/>
<path d="M379.283 294.865H357.859V273.444H379.283V294.865Z" fill="#00ADEF"/>
<path d="M402.937 294.865H381.511V273.444H402.935V294.865H402.937Z" fill="#FBBC09"/>
</g>
<path d="M508.108 232.325H451.24C444.852 232.325 439.674 237.504 439.674 243.891V300.759C439.674 307.147 444.852 312.325 451.24 312.325H508.108C514.496 312.325 519.674 307.147 519.674 300.759V243.891C519.674 237.504 514.496 232.325 508.108 232.325Z" fill="white"/>
<mask id="mask13_3001_5736" style="mask-type:luminance" maskUnits="userSpaceOnUse" x="454" y="258" width="56" height="28">
<path d="M509.038 258.901H454.614V285.75H509.038V258.901Z" fill="white"/>
</mask>
<g mask="url(#mask13_3001_5736)">
<path fill-rule="evenodd" clip-rule="evenodd" d="M454.614 285.75H482.125L509.039 258.901H454.614V285.75Z" fill="url(#paint0_linear_3001_5736)"/>
<path fill-rule="evenodd" clip-rule="evenodd" d="M486.908 264.271H481.525V276.86L476.86 264.271H472.194L468.188 274.832C467.769 272.147 464.958 271.252 462.805 270.536C461.369 270.059 459.815 269.402 459.874 268.627C459.874 268.03 460.712 267.433 462.326 267.493C463.403 267.553 464.36 267.612 466.273 268.567L468.128 265.345C466.393 264.45 464.001 263.913 462.087 263.913C459.815 263.913 457.9 264.629 456.704 265.882C455.868 266.717 455.448 267.791 455.448 268.985C455.448 270.596 456.047 271.789 457.303 272.744C458.379 273.519 459.755 274.056 460.951 274.414C462.446 274.891 463.642 275.249 463.642 276.145C463.642 276.443 463.523 276.741 463.284 276.98C462.925 277.338 462.326 277.517 461.549 277.517C459.934 277.457 458.798 277.218 457.004 276.204L455.329 279.486C457.124 280.5 459.037 281.037 461.19 281.037H461.669C463.523 280.977 465.077 280.56 466.273 279.605C466.333 279.545 466.393 279.486 466.454 279.426L466.333 280.381H470.879L471.716 278.292C472.554 278.591 473.57 278.77 474.587 278.77C475.604 278.77 476.561 278.591 477.398 278.352L477.936 280.381H486.07V275.667H487.804C491.991 275.667 494.443 273.519 494.443 269.999C494.443 266.001 491.991 264.271 486.908 264.271ZM474.527 275.07C473.929 275.07 473.331 274.951 472.793 274.772L474.467 269.402H474.527L476.202 274.772C475.723 274.951 475.125 275.07 474.527 275.07ZM487.206 271.968H486.01V267.672H487.206C488.761 267.672 490.017 268.209 490.017 269.82C490.017 271.431 488.761 271.968 487.206 271.968Z" fill="white"/>
</g>
<path d="M607.385 232.325H550.517C544.129 232.325 538.951 237.504 538.951 243.891V300.759C538.951 307.147 544.129 312.325 550.517 312.325H607.385C613.773 312.325 618.951 307.147 618.951 300.759V243.891C618.951 237.504 613.773 232.325 607.385 232.325Z" fill="white"/>
<mask id="mask14_3001_5736" style="mask-type:luminance" maskUnits="userSpaceOnUse" x="551" y="256" width="56" height="33">
<path d="M606.866 256.582H551.037V288.069H606.866V256.582Z" fill="white"/>
</mask>
<g mask="url(#mask14_3001_5736)">
<path d="M557.206 256.582C560.699 256.582 563.54 258.997 563.605 262.359C563.638 263.306 562.952 263.828 562.201 263.828C561.483 263.828 560.863 263.307 560.831 262.425C560.798 260.531 559.199 259.127 557.174 259.127C555.28 259.127 553.845 260.466 553.845 262.294C553.845 264.285 555.182 265.167 557.957 266.179C560.928 267.256 563.638 268.529 563.638 272.316C563.638 275.613 561.059 278.257 557.469 278.257C553.943 278.257 551.037 275.776 551.037 272.414C551.037 270.324 552.049 268.855 553.028 268.855C553.877 268.855 554.399 269.41 554.399 270.161C554.399 270.814 553.845 271.107 553.845 272.283C553.845 274.372 555.542 275.711 557.469 275.711C559.492 275.711 560.831 274.307 560.831 272.609C560.831 270.52 559.492 269.639 556.717 268.659C553.616 267.55 551.037 266.211 551.037 262.523C551.037 259.193 553.713 256.582 557.206 256.582Z" fill="#00D639"/>
<path d="M571.453 278.258C567.927 278.258 564.991 275.418 564.991 271.827C564.991 268.105 567.96 265.331 571.552 265.331C575.404 265.331 578.112 268.203 578.112 272.121V276.887C578.112 277.703 577.46 278.258 576.709 278.258C575.925 278.258 575.273 277.703 575.273 276.887V272.218C575.273 269.639 573.804 267.876 571.486 267.876C569.43 267.876 567.797 269.606 567.797 271.827C567.797 273.883 569.397 275.646 571.421 275.646C572.172 275.646 572.499 275.45 572.956 275.45C573.577 275.45 574.229 275.972 574.229 276.723C574.228 277.735 573.02 278.258 571.453 278.258Z" fill="#00D639"/>
</g>
</g>
</g>
</g>
</g>
<g clip-path="url(#clip13_3001_5736)">
<g clip-path="url(#clip14_3001_5736)">
<g clip-path="url(#clip15_3001_5736)">
<g clip-path="url(#clip16_3001_5736)">
<path d="M69.3121 336.325H12.4447C6.0568 336.325 0.87841 341.504 0.87841 347.891V404.759C0.87841 411.147 6.0568 416.325 12.4447 416.325H69.3121C75.7 416.325 80.8784 411.147 80.8784 404.759V347.891C80.8784 341.504 75.7 336.325 69.3121 336.325Z" fill="white"/>
<mask id="mask15_3001_5736" style="mask-type:luminance" maskUnits="userSpaceOnUse" x="12" y="356" width="58" height="40">
<path d="M69.2646 356.812H12.4974V395.839H69.2646V356.812Z" fill="white"/>
</mask>
<g mask="url(#mask15_3001_5736)">
<path d="M40.8814 379.113C47.0801 379.113 52.3001 374.175 52.3001 367.963C52.3001 361.909 47.2433 356.812 40.8814 356.812C34.5196 356.812 29.4627 361.75 29.4627 367.963C29.4627 374.175 34.6828 379.113 40.8814 379.113Z" fill="#FFCD00"/>
<path d="M40.881 384.689C32.888 384.689 26.1999 379.433 24.4054 372.105C23.7529 369.875 21.9586 367.963 19.6748 367.963H12.4974C12.4974 383.256 25.2211 395.681 40.881 395.681V384.689Z" fill="#00ECBB"/>
<path d="M40.8784 384.689C48.8715 384.689 55.5596 379.433 57.354 372.105C58.0064 369.875 59.8008 367.963 62.0846 367.963H69.262C69.262 383.256 56.5384 395.681 40.8784 395.681V384.689Z" fill="#AF64FF"/>
<path d="M60.9467 387.715C55.8899 392.653 48.7124 395.839 40.8825 395.839C33.0525 395.839 25.875 392.813 20.8182 387.715L28.8112 379.91C31.9106 382.936 36.1519 384.848 40.8825 384.848C45.6131 384.848 49.8543 382.936 52.9536 379.91L60.9467 387.715Z" fill="#7131FF"/>
</g>
<path d="M168.589 336.325H111.722C105.334 336.325 100.156 341.504 100.156 347.891V404.759C100.156 411.147 105.334 416.325 111.722 416.325H168.589C174.977 416.325 180.156 411.147 180.156 404.759V347.891C180.156 341.504 174.977 336.325 168.589 336.325Z" fill="white"/>
<mask id="mask16_3001_5736" style="mask-type:luminance" maskUnits="userSpaceOnUse" x="117" y="355" width="46" height="43">
<path d="M162.739 355.114H117.572V397.537H162.739V355.114Z" fill="white"/>
</mask>
<g mask="url(#mask16_3001_5736)">
<path d="M161.356 355.113H133.09V369.254H118.958V397.537H147.223V383.396H161.356V355.113Z" fill="white"/>
<path d="M147.223 397.537H133.091V383.396H118.958V369.254H133.091V383.396H147.223V397.537Z" fill="white"/>
<path d="M147.223 397.537H133.091V383.396H118.958V369.254H133.091V383.396H147.223V397.537Z" fill="#AEE5F5"/>
<path d="M118.958 397.537H133.09V383.396H118.958V397.537Z" fill="#457DC8"/>
<path d="M161.357 383.395H147.224V369.254H133.092V355.113H147.224V369.254H161.357V383.395Z" fill="white"/>
<path d="M161.357 383.395H147.224V369.254H133.092V355.113H147.224V369.254H161.357V383.395Z" fill="#34BDE9"/>
<path d="M133.092 383.395H147.224V369.254H133.092V383.395Z" fill="white"/>
<path d="M133.092 383.395H147.224V369.254H133.092V383.395Z" fill="#34BDE9"/>
<path d="M161.358 369.254H147.226V355.113H161.358V369.254Z" fill="#457DC8"/>
</g>
<path d="M267.866 336.325H210.999C204.611 336.325 199.433 341.504 199.433 347.891V404.759C199.433 411.147 204.611 416.325 210.999 416.325H267.866C274.254 416.325 279.433 411.147 279.433 404.759V347.891C279.433 341.504 274.254 336.325 267.866 336.325Z" fill="white"/>
<mask id="mask17_3001_5736" style="mask-type:luminance" maskUnits="userSpaceOnUse" x="215" y="351" width="49" height="50">
<path d="M263.842 351.915H215.02V400.736H263.842V351.915Z" fill="white"/>
</mask>
<g mask="url(#mask17_3001_5736)">
<path d="M255.365 351.915H223.477C218.814 351.915 215.028 355.701 215.028 360.364V392.252C215.028 396.916 218.814 400.702 223.477 400.702H227.039H238.001V393.715C238.001 386.986 237.175 381.807 232.168 380.327V374.82C240.308 375.543 244.351 381.6 244.351 391.564V400.736H250.977H255.382C260.047 400.736 263.832 396.95 263.832 392.287V360.364C263.815 355.701 260.029 351.915 255.365 351.915ZM239.671 369.537C237.089 369.537 234.99 367.437 234.99 364.856C234.99 362.274 237.089 360.175 239.671 360.175C242.252 360.175 244.335 362.274 244.335 364.873C244.335 367.454 242.252 369.537 239.671 369.537Z" fill="black"/>
</g>
<path d="M367.143 336.325H310.276C303.888 336.325 298.71 341.504 298.71 347.891V404.759C298.71 411.147 303.888 416.325 310.276 416.325H367.143C373.531 416.325 378.71 411.147 378.71 404.759V347.891C378.71 341.504 373.531 336.325 367.143 336.325Z" fill="white"/>
<mask id="mask18_3001_5736" style="mask-type:luminance" maskUnits="userSpaceOnUse" x="312" y="350" width="53" height="53">
<path d="M364.495 350.537H312.919V402.114H364.495V350.537Z" fill="white"/>
</mask>
<g mask="url(#mask18_3001_5736)">
<path d="M338.708 350.537C324.438 350.537 312.919 362.056 312.919 376.325C312.919 390.595 324.438 402.114 338.708 402.114C352.977 402.114 364.496 390.595 364.496 376.325C364.496 362.056 352.977 350.537 338.708 350.537ZM338.708 395.237C328.22 395.237 319.796 386.813 319.796 376.325C319.796 365.838 328.22 357.414 338.708 357.414C349.195 357.414 357.619 365.838 357.619 376.325C357.619 386.813 349.195 395.237 338.708 395.237ZM350.398 369.964C350.398 372.887 347.991 375.294 345.068 375.294C342.146 375.294 339.739 372.887 339.739 369.964C339.739 367.042 342.146 364.635 345.068 364.635C347.991 364.635 350.398 367.042 350.398 369.964ZM350.398 382.687C350.398 385.609 347.991 388.016 345.068 388.016C342.146 388.016 339.739 385.609 339.739 382.687C339.739 379.764 342.146 377.357 345.068 377.357C347.991 377.357 350.398 379.764 350.398 382.687ZM337.676 382.687C337.676 385.609 335.269 388.016 332.346 388.016C329.424 388.016 327.016 385.609 327.016 382.687C327.016 379.764 329.424 377.357 332.346 377.357C335.269 377.357 337.676 379.764 337.676 382.687ZM337.676 369.964C337.676 372.887 335.269 375.294 332.346 375.294C329.424 375.294 327.016 372.887 327.016 369.964C327.016 367.042 329.424 364.635 332.346 364.635C335.269 364.635 337.676 367.042 337.676 369.964Z" fill="#F22F46"/>
</g>
<path d="M466.421 336.325H409.553C403.165 336.325 397.987 341.504 397.987 347.891V404.759C397.987 411.147 403.165 416.325 409.553 416.325H466.421C472.808 416.325 477.987 411.147 477.987 404.759V347.891C477.987 341.504 472.808 336.325 466.421 336.325Z" fill="white"/>
<path d="M459.903 352.043H416.065C414.76 352.043 413.703 353.101 413.703 354.406V398.245C413.703 399.55 414.76 400.608 416.065 400.608H459.903C461.208 400.608 462.266 399.55 462.266 398.245V354.406C462.266 353.101 461.208 352.043 459.903 352.043Z" fill="#E7EDF7"/>
<path fill-rule="evenodd" clip-rule="evenodd" d="M441.934 366.143L431.63 380.462L425.545 376.953L424.666 378.472L432.916 385.256L443.457 367.021L441.934 366.143ZM449.777 366.614L439.471 380.931L437.95 380.054L436.634 382.333L440.757 385.725L451.298 367.49L449.777 366.614Z" fill="#0042E4"/>
<path d="M565.698 336.325H508.83C502.442 336.325 497.264 341.504 497.264 347.891V404.759C497.264 411.147 502.442 416.325 508.83 416.325H565.698C572.086 416.325 577.264 411.147 577.264 404.759V347.891C577.264 341.504 572.086 336.325 565.698 336.325Z" fill="white"/>
<path d="M561.387 352.204H513.145V400.446H561.387V352.204Z" fill="#F9436B"/>
<path d="M530.767 368.87C532.635 368.87 534.028 369.664 535.215 370.599C535.766 371.034 536.219 371.557 536.621 372.132C536.677 372.211 536.691 372.276 536.64 372.356C536.238 373.033 536.023 373.776 535.855 374.538C535.85 374.566 535.836 374.594 535.827 374.617C535.827 374.622 535.812 374.627 535.804 374.627C534.827 371.529 531.701 370.239 529.15 370.893C526.486 371.576 524.855 373.814 524.921 376.416C524.991 379.248 526.996 381.379 529.608 381.776C532.425 382.201 534.916 380.603 535.794 377.977C535.855 378.033 535.86 378.108 535.873 378.178C536.163 379.566 536.794 380.78 537.701 381.865C538.509 382.832 539.49 383.57 540.626 384.112C540.723 384.159 540.874 384.196 540.906 384.276C540.943 384.369 540.803 384.453 540.743 384.542C539.92 385.701 538.934 386.701 537.832 387.593C537.724 387.682 537.612 387.766 537.504 387.864C537.43 387.934 537.369 387.939 537.28 387.873C536.341 387.154 535.49 386.345 534.729 385.439C534.168 384.771 533.659 384.065 533.233 383.304C533.187 383.22 533.141 383.196 533.047 383.234C532.009 383.663 530.916 383.757 529.813 383.692C528.906 383.635 528.047 383.369 527.234 382.972C525.697 382.22 524.543 381.07 523.79 379.533C523.281 378.491 523.029 377.388 523.057 376.22C523.075 375.496 523.141 374.786 523.375 374.094C523.519 373.66 523.692 373.239 523.8 372.795C524.136 371.459 523.916 370.216 523.173 369.057C523.136 368.996 523.099 368.931 523.066 368.87C525.879 368.87 527.963 368.87 530.767 368.87Z" fill="#F5FFFE"/>
<path d="M551.743 368.87C551.533 369.244 551.295 369.594 551.145 370.001C550.767 371.066 550.748 372.127 551.108 373.202C551.285 373.73 551.505 374.244 551.603 374.8C551.762 375.701 551.823 376.603 551.659 377.51C551.375 379.094 550.673 380.463 549.519 381.584C548.323 382.748 546.889 383.458 545.225 383.663C543.632 383.86 542.113 383.579 540.712 382.776C538.754 381.654 537.52 380 537.053 377.785C536.904 377.075 536.838 376.351 536.908 375.627C536.987 374.818 537.179 374.038 537.516 373.3C538.216 371.767 539.319 370.604 540.782 369.777C541.684 369.267 542.97 368.87 544.16 368.87C547.122 368.87 551.743 368.87 551.743 368.87ZM538.782 376.304C538.782 379.444 541.314 381.977 544.599 381.841C547.487 381.72 549.987 379.388 549.898 376.089C549.823 373.262 547.524 370.692 544.23 370.739C541.337 370.781 538.782 373.061 538.782 376.304Z" fill="#F5FFFE"/>
<path d="M531.887 377.047C531.718 377.07 531.569 377.056 531.414 377.056C531.326 377.056 531.279 377.037 531.265 376.93C531.219 376.566 530.83 376.257 530.456 376.262C530.078 376.267 529.732 376.57 529.686 376.949C529.676 377.024 529.653 377.052 529.578 377.052C529.251 377.052 528.924 377.052 528.602 377.052C528.527 377.052 528.499 377.019 528.508 376.944C528.579 376.07 529.209 375.346 530.078 375.15C531.055 374.925 532.264 375.622 532.405 376.776C532.438 377.052 532.443 377.052 532.157 377.052C532.059 377.052 531.961 377.052 531.882 377.052L531.887 377.047Z" fill="#F5FFFE"/>
<path d="M545.71 377.047C545.551 377.047 545.387 377.047 545.228 377.047C545.159 377.047 545.131 377.028 545.121 376.949C545.084 376.585 544.738 376.276 544.355 376.262C543.958 376.248 543.602 376.524 543.546 376.916C543.528 377.033 543.49 377.056 543.383 377.056C543.093 377.052 542.799 377.052 542.509 377.056C542.401 377.056 542.37 377.019 542.378 376.912C542.449 376.136 542.864 375.589 543.556 375.281C544.252 374.968 544.929 375.071 545.542 375.543C546.004 375.898 546.229 376.384 546.303 376.949C546.313 377.028 546.289 377.052 546.214 377.052C546.051 377.052 545.883 377.052 545.719 377.052L545.71 377.047Z" fill="#F5FFFE"/>
</g>
</g>
</g>
</g>
<rect x="0.878288" y="0.325195" width="80" height="416" fill="url(#paint1_linear_3001_5736)"/>
<rect x="496.878" y="0.325195" width="80" height="416" fill="url(#paint2_linear_3001_5736)"/>
</g>
<defs>
<linearGradient id="paint0_linear_3001_5736" x1="481.816" y1="258.901" x2="481.816" y2="285.75" gradientUnits="userSpaceOnUse">
<stop stop-color="#00AEEF"/>
<stop offset="0.212" stop-color="#0097DC"/>
<stop offset="0.519" stop-color="#007CC5"/>
<stop offset="0.792" stop-color="#006CB8"/>
<stop offset="1" stop-color="#0066B3"/>
</linearGradient>
<linearGradient id="paint1_linear_3001_5736" x1="0.878288" y1="208.325" x2="80.8783" y2="208.325" gradientUnits="userSpaceOnUse">
<stop offset="0.12" stop-color="#FAF6F2"/>
<stop offset="1" stop-color="white" stop-opacity="0"/>
</linearGradient>
<linearGradient id="paint2_linear_3001_5736" x1="496.878" y1="208.325" x2="576.878" y2="208.325" gradientUnits="userSpaceOnUse">
<stop stop-color="white" stop-opacity="0"/>
<stop offset="0.88" stop-color="#FAF6F2"/>
</linearGradient>
<clipPath id="clip0_3001_5736">
<rect width="576" height="416" fill="white" transform="translate(0.878288 0.325195)"/>
</clipPath>
<clipPath id="clip1_3001_5736">
<rect width="576" height="80" fill="white" transform="translate(0.878288 24.3252)"/>
</clipPath>
<clipPath id="clip2_3001_5736">
<rect width="774.94" height="80" fill="white" transform="translate(0.878288 24.3252)"/>
</clipPath>
<clipPath id="clip3_3001_5736">
<rect width="774.94" height="80" fill="white" transform="translate(0.878288 24.3252)"/>
</clipPath>
<clipPath id="clip4_3001_5736">
<rect width="774.94" height="80" fill="white" transform="translate(0.87841 24.3252)"/>
</clipPath>
<clipPath id="clip5_3001_5736">
<rect width="576" height="80" fill="white" transform="translate(0.878288 128.325)"/>
</clipPath>
<clipPath id="clip6_3001_5736">
<rect width="774.94" height="80" fill="white" transform="translate(58.4683 128.325)"/>
</clipPath>
<clipPath id="clip7_3001_5736">
<rect width="774.94" height="80" fill="white" transform="translate(58.4683 128.325)"/>
</clipPath>
<clipPath id="clip8_3001_5736">
<rect width="774.94" height="80" fill="white" transform="translate(58.4684 128.325)"/>
</clipPath>
<clipPath id="clip9_3001_5736">
<rect width="633.59" height="80" fill="white" transform="translate(-56.7117 232.325)"/>
</clipPath>
<clipPath id="clip10_3001_5736">
<rect width="774.94" height="80" fill="white" transform="translate(-56.7117 232.325)"/>
</clipPath>
<clipPath id="clip11_3001_5736">
<rect width="774.94" height="80" fill="white" transform="translate(-56.7117 232.325)"/>
</clipPath>
<clipPath id="clip12_3001_5736">
<rect width="774.94" height="80" fill="white" transform="translate(-56.7116 232.325)"/>
</clipPath>
<clipPath id="clip13_3001_5736">
<rect width="576" height="80" fill="white" transform="translate(0.878288 336.325)"/>
</clipPath>
<clipPath id="clip14_3001_5736">
<rect width="774.94" height="80" fill="white" transform="translate(0.878288 336.325)"/>
</clipPath>
<clipPath id="clip15_3001_5736">
<rect width="774.94" height="80" fill="white" transform="translate(0.878288 336.325)"/>
</clipPath>
<clipPath id="clip16_3001_5736">
<rect width="774.94" height="80" fill="white" transform="translate(0.87841 336.325)"/>
</clipPath>
</defs>
</svg>
