<svg width="25" height="25" viewBox="0 0 25 25" fill="none" xmlns="http://www.w3.org/2000/svg">
<g id="624123d3c0387552ffed66f0_instagram%20(1)%201.svg" clip-path="url(#clip0_3001_6066)">
<path id="Vector" d="M12.8783 0.275391C9.6183 0.275391 9.2113 0.290391 7.9313 0.347391C6.6533 0.407391 5.7833 0.608391 5.0183 0.905391C4.2293 1.21139 3.5593 1.62239 2.8923 2.28939C2.2253 2.95639 1.8133 3.62539 1.5083 4.41539C1.2113 5.18039 1.0093 6.05039 0.950296 7.32839C0.890296 8.60839 0.878296 9.01539 0.878296 12.2754C0.878296 15.5354 0.893296 15.9424 0.950296 17.2224C1.0103 18.4994 1.2113 19.3704 1.5083 20.1354C1.8143 20.9234 2.2253 21.5944 2.8923 22.2614C3.5593 22.9274 4.2283 23.3404 5.0183 23.6454C5.7843 23.9414 6.6543 24.1444 7.9313 24.2034C9.2113 24.2634 9.6183 24.2754 12.8783 24.2754C16.1383 24.2754 16.5453 24.2604 17.8253 24.2034C19.1023 24.1434 19.9733 23.9414 20.7383 23.6454C21.5263 23.3394 22.1973 22.9274 22.8643 22.2614C23.5303 21.5944 23.9433 20.9264 24.2483 20.1354C24.5443 19.3704 24.7473 18.4994 24.8063 17.2224C24.8663 15.9424 24.8783 15.5354 24.8783 12.2754C24.8783 9.01539 24.8633 8.60839 24.8063 7.32839C24.7463 6.05139 24.5443 5.17939 24.2483 4.41539C23.9423 3.62639 23.5303 2.95639 22.8643 2.28939C22.1973 1.62239 21.5293 1.21039 20.7383 0.905391C19.9733 0.608391 19.1023 0.406391 17.8253 0.347391C16.5453 0.287391 16.1383 0.275391 12.8783 0.275391ZM12.8783 2.43539C16.0813 2.43539 16.4633 2.45139 17.7283 2.50639C18.8983 2.56139 19.5333 2.75539 19.9553 2.92139C20.5173 3.13839 20.9153 3.39839 21.3373 3.81739C21.7563 4.23739 22.0163 4.63639 22.2333 5.19839C22.3973 5.62039 22.5933 6.25539 22.6463 7.42539C22.7033 8.69139 22.7163 9.07139 22.7163 12.2754C22.7163 15.4794 22.7013 15.8604 22.6423 17.1254C22.5813 18.2954 22.3863 18.9304 22.2213 19.3524C21.9973 19.9144 21.7423 20.3124 21.3223 20.7344C20.9033 21.1534 20.4983 21.4134 19.9423 21.6304C19.5223 21.7944 18.8773 21.9904 17.7073 22.0434C16.4333 22.1004 16.0583 22.1134 12.8483 22.1134C9.6373 22.1134 9.2623 22.0984 7.9893 22.0394C6.8183 21.9784 6.1733 21.7834 5.7533 21.6184C5.1843 21.3944 4.7933 21.1394 4.3743 20.7194C3.9533 20.3004 3.6843 19.8954 3.4743 19.3394C3.3093 18.9194 3.1153 18.2744 3.0543 17.1044C3.0093 15.8444 2.9933 15.4554 2.9933 12.2604C2.9933 9.06439 3.0093 8.67439 3.0543 7.39939C3.1153 6.22939 3.3093 5.58539 3.4743 5.16539C3.6843 4.59539 3.9533 4.20539 4.3743 3.78439C4.7933 3.36539 5.1843 3.09539 5.7533 2.88639C6.1733 2.72039 6.8043 2.52539 7.9743 2.46539C9.2493 2.42039 9.6243 2.40539 12.8333 2.40539L12.8783 2.43539ZM12.8783 6.11339C9.4733 6.11339 6.7163 8.87339 6.7163 12.2754C6.7163 15.6804 9.4763 18.4374 12.8783 18.4374C16.2833 18.4374 19.0403 15.6774 19.0403 12.2754C19.0403 8.87039 16.2803 6.11339 12.8783 6.11339ZM12.8783 16.2754C10.6683 16.2754 8.8783 14.4854 8.8783 12.2754C8.8783 10.0654 10.6683 8.27539 12.8783 8.27539C15.0883 8.27539 16.8783 10.0654 16.8783 12.2754C16.8783 14.4854 15.0883 16.2754 12.8783 16.2754ZM20.7243 5.87039C20.7243 6.66539 20.0783 7.31039 19.2843 7.31039C18.4893 7.31039 17.8443 6.66439 17.8443 5.87039C17.8443 5.07639 18.4903 4.43139 19.2843 4.43139C20.0773 4.43039 20.7243 5.07639 20.7243 5.87039Z" fill="#FAF6F2"/>
</g>
<defs>
<clipPath id="clip0_3001_6066">
<rect width="24" height="24" fill="white" transform="translate(0.878296 0.275391)"/>
</clipPath>
</defs>
</svg>
