<svg width="150" height="56" viewBox="0 0 150 56" fill="none" xmlns="http://www.w3.org/2000/svg">
<g id="6556297b8364e8a5e4dc6dff_Inveterate.svg">
<g id="Clip path group">
<mask id="mask0_3001_5355" style="mask-type:luminance" maskUnits="userSpaceOnUse" x="24" y="21" width="103" height="14">
<g id="a">
<path id="Vector" d="M126.296 21.012H24.461V34.0296H126.296V21.012Z" fill="white"/>
</g>
</mask>
<g mask="url(#mask0_3001_5355)">
<g id="Group">
<path id="Vector_2" d="M27.0981 34.0087V21.012H24.4736V34.0087H27.0981Z" fill="#D6E4E2"/>
<path id="Vector_3" d="M37.0827 34.0087H39.7073V21.012H37.0827V29.5471L30.6867 21.012H28.0621V34.0087H30.6867V25.4735L37.0827 34.0087Z" fill="#D6E4E2"/>
<path id="Vector_4" d="M43.0199 21.012H40.201L45.5861 34.0087H48.2107L53.5957 21.012H50.7769L46.8887 30.4976L43.0199 21.012Z" fill="#D6E4E2"/>
<path id="Vector_5" d="M54.0902 21.012V34.0087H62.6053V31.5839H56.7147V28.519H62.6053V26.0943H56.7147V23.4367H62.6053V21.012H54.0902Z" fill="#D6E4E2"/>
<path id="Vector_6" d="M62.4983 23.4367H67.0086V34.0087H69.633V23.4367H74.1433V21.012H62.4983V23.4367Z" fill="#D6E4E2"/>
<path id="Vector_7" d="M75.127 21.012V34.0087H83.6421V31.5839H77.7516V28.519H83.6421V26.0943H77.7516V23.4367H83.6421V21.012H75.127Z" fill="#D6E4E2"/>
<path id="Vector_8" d="M84.6154 34.0087H87.2402V29.1009H88.4065L91.8475 34.0087H94.9582L91.3032 29.0039C93.364 28.6354 94.7636 27.103 94.7636 25.0662C94.7636 22.6607 92.8974 21.012 90.2923 21.012H84.6154V34.0087ZM90.2923 23.4367C91.4199 23.4367 92.1392 24.0769 92.1392 25.0662C92.1392 26.0361 91.4199 26.6762 90.2923 26.6762H87.2402V23.4367H90.2923Z" fill="#D6E4E2"/>
<path id="Vector_9" d="M105.53 34.0087H108.349L102.963 21.012H100.339L94.9538 34.0087H97.7729L98.7448 31.6227H104.558L105.53 34.0087ZM99.7364 29.198L101.661 24.523L103.566 29.198H99.7364Z" fill="#D6E4E2"/>
<path id="Vector_10" d="M105.141 23.4367H109.652V34.0087H112.277V23.4367H116.786V21.012H105.141V23.4367Z" fill="#D6E4E2"/>
<path id="Vector_11" d="M117.766 21.012V34.0087H126.282V31.5839H120.39V28.519H126.282V26.0943H120.39V23.4367H126.282V21.012H117.766Z" fill="#D6E4E2"/>
</g>
</g>
</g>
</g>
</svg>
