<svg width="201" height="97" viewBox="0 0 201 97" fill="none" xmlns="http://www.w3.org/2000/svg">
<g id="65561e2088ac20bd5a939a75_Jenson.svg">
<g id="Clip path group">
<mask id="mask0_3001_5560" style="mask-type:luminance" maskUnits="userSpaceOnUse" x="31" y="35" width="139" height="26">
<g id="a">
<path id="Vector" d="M169.06 35.5718H31.5601V60.663H169.06V35.5718Z" fill="white"/>
</g>
</mask>
<g mask="url(#mask0_3001_5560)">
<g id="Group">
<g id="Mask group">
<mask id="mask1_3001_5560" style="mask-type:luminance" maskUnits="userSpaceOnUse" x="31" y="35" width="139" height="26">
<g id="Group_2">
<path id="Vector_2" d="M169.056 35.5706H31.5557V60.6618H169.056V35.5706Z" fill="white"/>
</g>
</mask>
<g mask="url(#mask1_3001_5560)">
<g id="Group_3">
<path id="Vector_3" d="M156.545 37.3442C154.421 37.3442 152.344 37.9759 150.578 39.1595C148.812 40.3432 147.436 42.0255 146.623 43.9938C145.81 45.9623 145.598 48.1282 146.011 50.2177C146.426 52.3073 147.449 54.2266 148.951 55.7332C150.453 57.2396 152.367 58.2656 154.45 58.6812C156.533 59.0968 158.693 58.8835 160.656 58.0682C162.618 57.2529 164.295 55.8723 165.475 54.1008C166.656 52.3293 167.285 50.2467 167.285 48.1161C167.283 45.2601 166.15 42.5219 164.136 40.5024C162.123 38.4828 159.393 37.347 156.545 37.3442ZM156.545 60.6618C154.071 60.6625 151.652 59.9274 149.595 58.5492C147.537 57.1711 145.934 55.212 144.986 52.9196C144.04 50.6274 143.791 48.1048 144.274 45.6709C144.756 43.237 145.946 41.0012 147.695 39.2463C149.445 37.4915 151.674 36.2962 154.1 35.8119C156.526 35.3275 159.042 35.5758 161.327 36.5252C163.614 37.4746 165.567 39.0826 166.942 41.1458C168.316 43.209 169.05 45.6348 169.05 48.1161C169.046 51.4426 167.728 54.6319 165.383 56.9841C163.039 59.3362 159.858 60.659 156.542 60.6618" fill="#232525"/>
<path id="Vector_4" d="M151.698 52.9732C151.206 52.4761 150.917 51.8121 150.889 51.1122C150.86 50.4122 151.093 49.7268 151.543 49.1907C151.558 49.1763 151.568 49.1578 151.571 49.1376C151.575 49.1173 151.573 49.0964 151.565 49.0776C151.557 49.0587 151.543 49.0428 151.525 49.032C151.508 49.0211 151.487 49.0159 151.467 49.017L149.692 49.0495C149.636 49.0499 149.582 49.0667 149.536 49.0976C149.49 49.1284 149.453 49.1721 149.432 49.2232C149.067 50.1005 148.981 51.0693 149.184 51.9976C149.389 52.9259 149.873 53.7685 150.573 54.4102C151.474 55.2087 152.648 55.6292 153.85 55.5847C155.052 55.5403 156.191 55.0343 157.032 54.1713C158.782 52.4049 161.392 49.7662 162.164 48.9988C162.651 48.5138 162.164 48.5718 162.164 48.5718L160.439 48.5501C160.319 48.5494 160.201 48.5728 160.091 48.6188C159.981 48.6648 159.881 48.7324 159.797 48.8179L155.66 52.9769C155.401 53.2372 155.093 53.4437 154.754 53.5847C154.415 53.7256 154.052 53.7981 153.685 53.7981C153.318 53.7981 152.954 53.7256 152.616 53.5847C152.276 53.4437 151.968 53.2372 151.709 52.9769L151.698 52.9732Z" fill="#232525"/>
<path id="Vector_5" d="M161.401 43.2554C161.893 43.7533 162.182 44.418 162.21 45.119C162.239 45.8198 162.003 46.5057 161.552 47.0416C161.539 47.0563 161.529 47.0749 161.526 47.0948C161.524 47.1148 161.526 47.1351 161.535 47.1534C161.543 47.1717 161.557 47.187 161.575 47.1974C161.592 47.2077 161.611 47.2127 161.632 47.2117L163.407 47.1791C163.462 47.1794 163.516 47.1634 163.562 47.1332C163.609 47.1029 163.645 47.0598 163.667 47.009C164.033 46.1318 164.119 45.1628 163.916 44.2344C163.711 43.306 163.226 42.4635 162.527 41.822C161.625 41.0235 160.451 40.603 159.249 40.6475C158.047 40.692 156.908 41.1979 156.067 42.0609C154.317 43.8273 151.703 46.4624 150.935 47.2298C150.448 47.7184 150.935 47.6604 150.935 47.6604L152.66 47.6823C152.901 47.6818 153.132 47.5854 153.302 47.4143L157.442 43.2554C157.966 42.7304 158.677 42.4357 159.418 42.4357C160.159 42.4357 160.869 42.7304 161.393 43.2554H161.401Z" fill="#232525"/>
<path id="Vector_6" d="M154.548 50.1256C154.703 50.2816 154.809 50.4803 154.851 50.6965C154.894 50.9127 154.871 51.1367 154.787 51.3403C154.703 51.5439 154.561 51.7179 154.378 51.8403C154.195 51.9627 153.981 52.028 153.761 52.028C153.541 52.028 153.326 51.9627 153.144 51.8403C152.961 51.7179 152.818 51.5439 152.734 51.3403C152.65 51.1367 152.628 50.9127 152.67 50.6965C152.713 50.4803 152.819 50.2816 152.974 50.1256C153.077 50.0219 153.2 49.9396 153.335 49.8835C153.47 49.8272 153.615 49.7983 153.761 49.7983C153.907 49.7983 154.052 49.8272 154.186 49.8835C154.321 49.9396 154.444 50.0219 154.548 50.1256Z" fill="#232525"/>
<path id="Vector_7" d="M160.127 44.5289C160.283 44.6848 160.389 44.8836 160.431 45.0997C160.474 45.316 160.451 45.5399 160.367 45.7436C160.283 45.9471 160.141 46.1212 159.958 46.2436C159.775 46.366 159.56 46.4313 159.341 46.4313C159.121 46.4313 158.906 46.366 158.724 46.2436C158.541 46.1212 158.398 45.9471 158.314 45.7436C158.229 45.5399 158.208 45.316 158.25 45.0997C158.293 44.8836 158.399 44.6848 158.554 44.5289C158.762 44.3202 159.045 44.2031 159.341 44.2031C159.635 44.2031 159.918 44.3202 160.127 44.5289Z" fill="#232525"/>
<path id="Vector_8" d="M36.9218 54.5947C36.0426 54.5931 35.1959 54.2604 34.5497 53.6624C33.9033 53.0645 33.5044 52.2449 33.4322 51.3659C33.4308 51.3405 33.4222 51.3161 33.4071 51.2955C33.3921 51.275 33.3714 51.2594 33.3475 51.2505C33.3238 51.2416 33.2979 51.2399 33.2732 51.2457C33.2484 51.2514 33.2259 51.2642 33.2084 51.2827L31.6566 52.8971C31.6087 52.947 31.576 53.0097 31.5625 53.0778C31.5491 53.1457 31.5555 53.2162 31.5808 53.2807C32.0344 54.3857 32.8166 55.3237 33.8207 55.9667C34.8249 56.6099 36.0022 56.9271 37.1925 56.875C40.3177 56.7374 42.7429 54.03 42.7213 50.899C42.6996 47.768 42.696 41.3975 42.7032 40.0402C42.7032 39.175 42.3243 39.6529 42.3243 39.6529L40.7725 41.1731C40.6654 41.2796 40.5804 41.4065 40.5227 41.5463C40.4651 41.6862 40.4359 41.8362 40.4368 41.9875V51.0764C40.4379 51.5389 40.348 51.9971 40.1723 52.4247C39.9967 52.8523 39.7389 53.2412 39.4135 53.5689C39.0881 53.8965 38.7016 54.1567 38.2759 54.3347C37.8502 54.5125 37.3938 54.6046 36.9327 54.6055L36.9218 54.5947Z" fill="#232525"/>
<path id="Vector_9" d="M50.8134 46.8968H57.2264C57.3165 46.912 57.3998 46.9551 57.4645 47.02C57.5291 47.0847 57.5721 47.1683 57.5873 47.2587V48.5111C57.5715 48.6013 57.5284 48.6845 57.4639 48.7493C57.3992 48.8141 57.3164 48.8572 57.2264 48.873H50.8134V46.8968ZM48.4425 53.9948H58.3307C58.4208 54.0101 58.5041 54.0531 58.5688 54.118C58.6334 54.1829 58.6763 54.2663 58.6915 54.3568V55.6092C58.6763 55.6996 58.6334 55.783 58.5688 55.8479C58.5041 55.9128 58.4208 55.9559 58.3307 55.9711H46.4648C46.3838 55.9661 46.3074 55.9318 46.2497 55.8745C46.192 55.8173 46.1568 55.741 46.1508 55.6598V40.6384C46.1567 40.5568 46.1917 40.4801 46.2493 40.4222C46.307 40.3644 46.3835 40.3294 46.4648 40.3235H58.0708C58.1608 40.3393 58.2438 40.3825 58.3083 40.4472C58.3729 40.512 58.416 40.5952 58.4317 40.6854V41.9378C58.416 42.028 58.3729 42.1112 58.3083 42.1761C58.2438 42.2409 58.1608 42.2841 58.0708 42.2998H48.4425V53.9948Z" fill="#232525"/>
<path id="Vector_10" d="M65.3363 45.223C64.9689 44.8369 64.6379 44.4177 64.3474 43.9706H64.2681V55.6656C64.263 55.7465 64.2287 55.8227 64.1715 55.88C64.1144 55.9373 64.0383 55.9718 63.9578 55.9769H62.2904C62.2098 55.9718 62.1338 55.9373 62.0766 55.88C62.0195 55.8227 61.9852 55.7465 61.98 55.6656V40.6369C61.9852 40.556 62.0195 40.4798 62.0766 40.4225C62.1338 40.3652 62.2098 40.3308 62.2904 40.3257H63.5391L73.7809 50.8081C74.2156 51.2524 74.6072 51.7372 74.9502 52.2559H75.0548V40.6369C75.0599 40.556 75.0944 40.4798 75.1514 40.4225C75.2086 40.3652 75.2846 40.3308 75.3653 40.3257H77.0289C77.1096 40.3308 77.1855 40.3652 77.2427 40.4225C77.2998 40.4798 77.3341 40.556 77.3392 40.6369V55.6656C77.3341 55.7465 77.2998 55.8227 77.2427 55.88C77.1855 55.9373 77.1096 55.9718 77.0289 55.9769H75.8055L65.3363 45.223Z" fill="#232525"/>
<path id="Vector_11" d="M82.5767 50.7081C82.8619 50.7081 82.9376 50.8385 82.9376 51.0702C82.9376 53.003 84.2909 54.2554 87.8312 54.2554C91.0575 54.2554 92.2051 52.898 92.2051 51.2547C92.2051 50.3136 91.6565 49.3255 89.549 49.1662L85.2184 48.8549C82.0534 48.6015 80.6351 47.1827 80.6351 44.9819C80.6351 42.6074 82.6922 40.0483 87.2466 40.0483C92.0861 40.0483 93.8291 42.2672 93.8291 44.9565C93.8291 45.0869 93.7245 45.2172 93.4393 45.2172H91.902C91.6421 45.2172 91.5411 45.1412 91.5122 44.7756C91.3823 43.4182 90.2888 42.0319 87.2466 42.0319C84.5653 42.0319 82.9159 43.3132 82.9159 44.9819C82.9159 45.923 83.5439 46.7302 85.3916 46.8605L89.6573 47.1754C93.2228 47.4613 94.4714 49.2132 94.4714 51.2474C94.4714 53.3613 92.7031 56.2318 87.8096 56.2318C83.0495 56.2318 80.628 53.9875 80.628 51.2474V50.9869C80.628 50.8023 80.7074 50.701 80.9383 50.701L82.5767 50.7081Z" fill="#232525"/>
<path id="Vector_12" d="M120.228 45.223C119.864 44.8367 119.535 44.4174 119.248 43.9706H119.168V55.6656C119.162 55.7465 119.128 55.8227 119.071 55.88C119.014 55.9373 118.939 55.9718 118.858 55.9769H117.19C117.109 55.9718 117.033 55.9375 116.975 55.8803C116.917 55.8231 116.882 55.7468 116.876 55.6656V40.6369C116.882 40.5557 116.917 40.4794 116.975 40.4222C117.033 40.365 117.109 40.3307 117.19 40.3257H118.439L128.666 50.8225C129.102 51.2662 129.495 51.751 129.839 52.2703H129.94V40.6369C129.946 40.5557 129.982 40.4794 130.039 40.4222C130.096 40.365 130.173 40.3307 130.254 40.3257H131.918C132 40.329 132.078 40.3625 132.137 40.4199C132.196 40.4773 132.233 40.5545 132.239 40.6369V55.6656C132.233 55.7468 132.198 55.8231 132.14 55.8803C132.083 55.9375 132.006 55.9718 131.925 55.9769H130.706L120.228 45.223Z" fill="#232525"/>
<path id="Vector_13" d="M99.2026 48.1493C99.2026 52.0548 102.057 54.4112 105.496 54.4112C108.993 54.4112 111.794 52.0548 111.794 48.1493C111.794 44.1894 109.019 41.8873 105.496 41.8873C102.057 41.8873 99.2026 44.1894 99.2026 48.1493ZM114.143 48.1493C114.143 53.3398 110.271 56.4454 105.482 56.4454C100.693 56.4454 96.8389 53.3398 96.8389 48.1493C96.8389 42.9587 100.733 39.853 105.482 39.853C110.285 39.853 114.143 42.9587 114.143 48.1493Z" fill="#232525"/>
<path id="Vector_14" d="M135.774 52.2683C135.749 52.2666 135.726 52.2562 135.709 52.2389C135.692 52.2216 135.681 52.1987 135.679 52.1742V51.3019C135.681 51.2775 135.692 51.2546 135.709 51.2372C135.726 51.2199 135.749 51.2095 135.774 51.2078H138.111C139.62 51.2078 140.421 52.1598 140.421 53.5931C140.421 55.0265 139.62 55.9784 138.111 55.9784H135.774C135.749 55.9767 135.726 55.9663 135.709 55.949C135.692 55.9317 135.681 55.9088 135.679 55.8844V55.012C135.681 54.9877 135.692 54.9647 135.709 54.9473C135.726 54.93 135.749 54.9196 135.774 54.9179H138.104C139.068 54.9179 139.548 54.4438 139.548 53.5931C139.548 52.7425 139.083 52.2683 138.104 52.2683H135.774Z" fill="#232525"/>
<path id="Vector_15" d="M138.774 49.4924C138.772 49.4745 138.772 49.4562 138.776 49.4386C138.781 49.4208 138.787 49.4043 138.799 49.3897C138.809 49.3752 138.823 49.363 138.839 49.3539C138.854 49.3447 138.872 49.3389 138.89 49.3368C139.286 49.2607 139.535 48.9241 139.535 48.1857C139.535 47.4473 139.258 47.0998 138.923 47.0998C138.706 47.0998 138.511 47.2555 138.472 47.726L138.377 48.9386C138.301 49.8905 137.865 50.3864 137.165 50.3864C136.357 50.3864 135.612 49.6625 135.612 48.2979C135.612 46.9333 136.274 46.2493 137.017 46.2493C137.035 46.2491 137.054 46.253 137.072 46.2606C137.089 46.2682 137.104 46.2794 137.117 46.2933C137.129 46.3074 137.139 46.3239 137.144 46.3419C137.15 46.3598 137.152 46.3788 137.15 46.3977V47.1686C137.153 47.1856 137.152 47.203 137.148 47.2196C137.143 47.2362 137.135 47.2516 137.124 47.2649C137.112 47.2782 137.099 47.289 137.084 47.2968C137.069 47.3045 137.052 47.3089 137.035 47.3097C136.76 47.3568 136.497 47.6211 136.497 48.3052C136.497 48.9893 136.753 49.3258 137.097 49.3258C137.306 49.3258 137.457 49.1883 137.493 48.7575L137.594 47.5487C137.687 46.4628 138.229 46.032 138.875 46.032C139.597 46.032 140.424 46.6619 140.424 48.1748C140.424 49.5973 139.745 50.3864 138.979 50.3864H138.918C138.9 50.3864 138.881 50.3825 138.862 50.3751C138.845 50.3675 138.829 50.3564 138.817 50.3426C138.803 50.3287 138.793 50.3122 138.786 50.2943C138.779 50.2763 138.777 50.2572 138.778 50.238L138.774 49.4924Z" fill="#232525"/>
<path id="Vector_16" d="M138.715 43.7874V42.2454L137.852 42.6653C137.581 42.7888 137.304 42.8976 137.021 42.9911V43.0382C137.303 43.1336 137.581 43.2436 137.852 43.3675L138.715 43.7874ZM139.537 41.8871V44.1602L140.259 44.4968C140.352 44.5438 140.36 44.5657 140.36 44.6598V45.5863C140.361 45.5942 140.36 45.6023 140.358 45.6099C140.356 45.6175 140.352 45.6246 140.346 45.6308C140.342 45.6369 140.335 45.6419 140.328 45.6454C140.322 45.649 140.314 45.6511 140.306 45.6515C140.273 45.6461 140.241 45.6351 140.212 45.619L135.698 43.4218V42.611L140.183 40.414C140.212 40.3977 140.244 40.3867 140.277 40.3813C140.284 40.3818 140.292 40.3837 140.299 40.3871C140.306 40.3904 140.311 40.3951 140.317 40.4008C140.321 40.4066 140.326 40.4132 140.328 40.4204C140.331 40.4276 140.332 40.4352 140.331 40.4428V41.3623C140.331 41.4563 140.331 41.478 140.229 41.5251L139.537 41.8871Z" fill="#232525"/>
</g>
</g>
</g>
</g>
</g>
</g>
</g>
</svg>
