<svg width="150" height="56" viewBox="0 0 150 56" fill="none" xmlns="http://www.w3.org/2000/svg">
<g id="6556297c0e59cb674f892791_Klaviyo.svg">
<g id="Clip path group">
<mask id="mask0_3001_5372" style="mask-type:luminance" maskUnits="userSpaceOnUse" x="33" y="14" width="86" height="26">
<g id="a">
<path id="Vector" d="M118.791 14.5452H33.1622V39.9794H118.791V14.5452Z" fill="white"/>
</g>
</mask>
<g mask="url(#mask0_3001_5372)">
<g id="Group">
<path id="Vector_2" d="M81.7833 19.6321C82.2401 19.6321 82.6823 19.4547 83.0066 19.1441C83.3308 18.8336 83.5224 18.3899 83.5371 17.9463C83.5371 17.4879 83.3455 17.0443 83.0212 16.719C82.6971 16.3936 82.2549 16.2014 81.798 16.2014C81.3411 16.2162 80.9137 16.3936 80.5894 16.7338C80.2653 17.0591 80.0884 17.5027 80.1031 17.9463C80.1031 18.3899 80.28 18.8188 80.6042 19.1441C80.9137 19.4399 81.3411 19.6173 81.7833 19.6321ZM93.6622 21.2586H97.8773V21.5988C97.6415 21.6431 97.4204 21.7171 97.2141 21.8353C96.8309 22.0129 96.0645 22.8853 95.4603 24.3493C94.4581 26.8779 93.4117 29.8797 92.3063 33.3104L91.8936 34.6116C91.7167 35.2031 91.5547 35.5876 91.481 35.8094C91.4073 36.046 91.3041 36.4009 91.1273 36.8298C91.024 37.155 90.8914 37.4803 90.7294 37.7761C90.523 38.1606 90.1398 38.9443 89.8303 39.1809C89.3439 39.595 88.6217 40.0533 87.7228 39.9795C85.9689 39.9795 84.6572 38.6781 84.6425 37.1402C84.6425 36.0904 85.3057 35.3954 86.3079 35.3954C87.0301 35.3954 87.6638 35.7798 87.6638 36.5931C87.6638 37.1846 87.0743 37.7909 87.0743 38.1014C87.0743 38.8999 87.5311 39.2696 88.4302 39.2696C89.1523 39.2696 89.7419 38.8113 90.184 37.8944C90.7735 36.8445 90.8325 35.6911 90.3314 34.4046L86.6321 24.645C85.7773 22.3973 85.1436 21.6579 84.3477 21.5692V21.229H90.184V21.5692C89.4913 21.6431 89.1376 22.0572 89.1376 22.7966C89.1376 23.3289 89.3439 24.157 89.7271 25.2069L90.4198 27.0996C91.2157 29.1551 91.8641 30.9444 92.1884 32.0682C92.94 29.7318 93.6327 27.6911 94.2959 25.9019C94.7823 24.571 95.0181 23.6246 95.0181 23.0627C95.0181 22.0572 94.4728 21.5988 93.6622 21.5988V21.2586ZM53.0881 33.7244C52.3365 33.5913 51.7027 32.9259 51.7027 31.5211V14.5452L47.4582 15.462V15.8169C48.1803 15.743 48.9025 16.3788 48.9025 17.7392V31.5211C48.9025 32.8519 48.1803 33.6209 47.4582 33.7244C47.3845 33.7392 47.3256 33.7392 47.2518 33.7539C46.8834 33.7835 46.515 33.7096 46.1759 33.5617C45.6011 33.3104 45.1296 32.8667 44.7316 32.216L42.7714 29.0959C42.3588 28.4306 41.7398 27.9277 41.0176 27.6468C40.2954 27.3658 39.4996 27.3214 38.748 27.5285L40.9587 25.0886C42.624 23.2401 44.1716 22.0719 45.6306 21.584V21.2438H40.7671V21.584C42.0198 22.0719 41.9461 23.1515 40.5018 24.8372L37.4068 28.4453V14.5452L33.1622 15.462V15.8169C33.8844 15.8169 34.6065 16.5268 34.6065 17.7836V31.5063C34.6065 33.0294 33.8991 33.6209 33.1622 33.7244V34.0645H38.7922V33.7244C37.8636 33.5913 37.4068 32.8815 37.4068 31.5211V28.9925L38.6153 27.6616L41.5334 32.4527C42.2261 33.6061 42.8746 34.0645 43.8916 34.0645H53.6777V33.7983C53.6924 33.7983 53.4124 33.7835 53.0881 33.7244ZM64.7607 32.1126V26.3751C64.7017 22.6339 63.1248 20.9185 59.514 20.9185C58.3644 20.9038 57.2442 21.2882 56.3305 21.9981C55.3725 22.7226 54.9157 23.5359 54.9157 24.4823C54.9157 25.3991 55.4315 26.0942 56.2716 26.0942C57.1706 26.0942 57.8191 25.5765 57.8191 24.8668C57.8191 24.3345 57.4654 23.5802 57.4654 23.0775C57.4654 22.1607 58.1581 21.3622 59.3666 21.3622C60.914 21.3622 62.0194 22.5156 62.0194 25.0738V26.6117L60.7373 26.9222C60.074 27.0553 59.4992 27.1884 59.0718 27.3066C58.6296 27.4398 58.0696 27.6172 57.4064 27.8686C56.0652 28.3862 55.3578 28.8741 54.7388 29.791C54.4293 30.2345 54.2819 30.7669 54.2819 31.2993C54.2819 33.4286 55.7704 34.4046 57.8486 34.4046C59.4992 34.4046 61.2383 33.5322 62.0342 31.8908C62.0489 32.4083 62.1668 32.9111 62.4026 33.3842C63.2722 35.1439 66.1609 34.1089 66.1609 34.1089V33.7687C64.8639 33.9609 64.7607 32.4675 64.7607 32.1126ZM62.0194 30.3381C62.0194 31.181 61.71 31.876 61.0909 32.364C60.5014 32.8519 59.8824 33.1033 59.234 33.1033C57.9812 33.1033 57.1558 32.29 57.1558 30.7669C57.1558 30.0571 57.5538 29.3917 57.878 29.0073C58.1433 28.741 58.4381 28.5192 58.777 28.3714C59.2192 28.1348 59.4255 28.0165 59.735 27.8833L60.914 27.4546C61.5036 27.218 61.8573 27.0996 62.0194 27.0257V30.3381ZM118.791 21.2586H108.798V14.5452H118.791L116.697 17.902L118.791 21.2586ZM98.4669 32.4231C97.2289 31.1514 96.5362 29.4361 96.5657 27.6468C96.5509 26.7743 96.7129 25.9019 97.0372 25.0886C97.3615 24.2753 97.8478 23.5359 98.4669 22.9001C99.7343 21.5692 101.267 20.9038 103.08 20.9038C104.848 20.9038 106.396 21.5692 107.663 22.9001C108.283 23.5211 108.783 24.2605 109.108 25.0738C109.447 25.8871 109.609 26.7595 109.594 27.6468C109.609 28.534 109.447 29.4065 109.108 30.2198C108.769 31.0331 108.283 31.7873 107.663 32.4083C106.396 33.7096 104.863 34.3898 103.08 34.3898C101.282 34.4046 99.7343 33.7392 98.4669 32.4231ZM105.394 23.1219C104.893 22.1311 104.215 21.5544 103.434 21.3918C101.842 21.0664 100.442 22.7078 99.9112 25.2956C99.6901 26.4638 99.6311 27.6468 99.749 28.815C99.8669 29.998 100.191 31.1366 100.722 32.2013C101.238 33.192 101.901 33.7687 102.682 33.9315C104.274 34.2567 105.718 32.5562 106.249 29.9388C106.691 27.7503 106.47 25.0886 105.394 23.1219Z" fill="#D6E4E2"/>
<path id="Vector_3" d="M83.2717 31.521V21.2587H74.2226V21.5692C75.4311 21.7466 76.0059 22.6635 75.4606 24.1274C72.6309 31.7872 72.8078 31.4471 72.6309 32.0534C72.454 31.4619 72.0413 30.0127 71.3781 28.1939C70.7149 26.3751 70.2727 25.1773 70.0959 24.6302C69.4032 22.5007 69.639 21.7171 70.7592 21.584V21.2439H64.8934V21.584C65.7629 21.7614 66.544 22.7669 67.1777 24.5562L68.0767 26.8926C69.0642 29.4065 70.2286 32.8815 70.6118 34.0644H72.5572C73.1909 32.2457 75.6964 24.9703 76.0354 24.2309C76.4038 23.388 76.8165 22.7521 77.2734 22.3086C77.4944 22.072 77.7597 21.8797 78.0693 21.7614C78.364 21.6431 78.6882 21.5692 79.0125 21.584C79.0125 21.584 80.4273 21.584 80.4273 22.9444V31.5358C80.4273 32.9702 79.7347 33.6357 79.0125 33.7392V34.0792H84.613V33.7392C83.8908 33.6209 83.2717 32.9554 83.2717 31.521Z" fill="#D6E4E2"/>
</g>
</g>
</g>
</g>
</svg>
