<svg width="25" height="25" viewBox="0 0 25 25" fill="none" xmlns="http://www.w3.org/2000/svg">
<g id="624123ce9041503b41d2c931_linkedin%201.svg" clip-path="url(#clip0_3001_6074)">
<path id="Vector" d="M21.3253 20.7274H17.7713V15.1584C17.7713 13.8304 17.7443 12.1214 15.9193 12.1214C14.0663 12.1214 13.7833 13.5664 13.7833 15.0604V20.7274H10.2293V9.27539H13.6433V10.8364H13.6893C14.1663 9.93639 15.3263 8.98639 17.0593 8.98639C20.6603 8.98639 21.3263 11.3564 21.3263 14.4414L21.3253 20.7274ZM6.2153 7.70839C5.0713 7.70839 4.1523 6.78239 4.1523 5.64339C4.1523 4.50539 5.0723 3.58039 6.2153 3.58039C7.3553 3.58039 8.2793 4.50539 8.2793 5.64339C8.2793 6.78239 7.3543 7.70839 6.2153 7.70839ZM7.9973 20.7274H4.4333V9.27539H7.9973V20.7274ZM23.1033 0.275391H2.6493C1.6703 0.275391 0.878296 1.04939 0.878296 2.00439V22.5464C0.878296 23.5024 1.6703 24.2754 2.6493 24.2754H23.1003C24.0783 24.2754 24.8783 23.5024 24.8783 22.5464V2.00439C24.8783 1.04939 24.0783 0.275391 23.1003 0.275391H23.1033Z" fill="#FAF6F2"/>
</g>
<defs>
<clipPath id="clip0_3001_6074">
<rect width="24" height="24" fill="white" transform="translate(0.878296 0.275391)"/>
</clipPath>
</defs>
</svg>
