<svg width="201" height="97" viewBox="0 0 201 97" fill="none" xmlns="http://www.w3.org/2000/svg">
<g id="65561e20cee942b5231c99de_Long-Wknd.svg">
<g id="Clip path group">
<mask id="mask0_3001_5540" style="mask-type:luminance" maskUnits="userSpaceOnUse" x="16" y="41" width="67" height="15">
<g id="a">
<path id="Vector" d="M82.2631 41.8674H16.7874V55.0948H82.2631V41.8674Z" fill="white"/>
</g>
</mask>
<g mask="url(#mask0_3001_5540)">
<g id="Group">
<path id="Vector_2" d="M30.0148 52.1377V54.9118H16.7874V42.0518H20.0942V52.1377H30.0148Z" fill="#232525"/>
<path id="Vector_3" d="M38.5737 55.0948C35.7935 55.0948 33.7482 54.5375 32.4377 53.423C31.1394 52.3085 30.4903 50.655 30.4903 48.4628C30.4903 46.2827 31.1394 44.6415 32.4377 43.5392C33.7482 42.4247 35.7935 41.8674 38.5737 41.8674C41.3417 41.8674 43.381 42.4247 44.6915 43.5392C46.0019 44.6538 46.6571 46.2949 46.6571 48.4628C46.6571 50.6429 46.0019 52.2963 44.6915 53.423C43.381 54.5375 41.3417 55.0948 38.5737 55.0948ZM38.5737 52.3208C40.264 52.3208 41.4826 52.0146 42.2296 51.4022C42.9767 50.7775 43.3503 49.7978 43.3503 48.4628C43.3503 47.14 42.9767 46.1724 42.2296 45.56C41.4948 44.9477 40.2761 44.6415 38.5737 44.6415C36.8714 44.6415 35.6466 44.9477 34.8995 45.56C34.1646 46.1603 33.7971 47.1278 33.7971 48.4628C33.7971 49.7978 34.1646 50.7775 34.8995 51.4022C35.6466 52.0146 36.8714 52.3208 38.5737 52.3208Z" fill="#232525"/>
<path id="Vector_4" d="M64.4309 42.0518V54.9118H59.9299L51.1667 45.2668V54.9118H47.8599V42.0518H52.3425L61.124 51.7152V42.0518H64.4309Z" fill="#232525"/>
<path id="Vector_5" d="M73.4992 48.0219H81.6563V54.9111H79.2127L79.0658 52.8903C78.429 53.5883 77.6206 54.1335 76.6408 54.5254C75.6609 54.905 74.5097 55.0948 73.1869 55.0948C71.607 55.0948 70.2414 54.8377 69.0901 54.3232C67.9511 53.8089 67.0755 53.0618 66.463 52.0819C65.8507 51.0898 65.5444 49.8896 65.5444 48.4812C65.5444 46.35 66.2488 44.715 67.6572 43.576C69.0657 42.437 71.0926 41.8674 73.7381 41.8674C76.2489 41.8674 78.1717 42.3268 79.5067 43.2453C80.8417 44.1516 81.5582 45.4254 81.6563 47.0665H78.2942C78.1717 46.4174 77.7675 45.854 77.0817 45.3764C76.4081 44.8864 75.2935 44.6415 73.7381 44.6415C71.8398 44.6415 70.5476 45.0335 69.8617 45.8173C69.1881 46.5889 68.8513 47.5013 68.8513 48.5546C68.8513 49.6202 69.1881 50.551 69.8617 51.3471C70.5476 52.1431 71.8398 52.5412 73.7381 52.5412C74.7301 52.5412 75.563 52.4188 76.2366 52.1738C76.9225 51.9289 77.4308 51.6227 77.7615 51.2552C78.0922 50.8878 78.2698 50.5265 78.2942 50.1713H73.4992V48.0219Z" fill="#232525"/>
</g>
</g>
</g>
<path id="Vector_6" d="M84.2501 47.0964H102.714V49.866H84.2501V47.0964Z" fill="#232525"/>
<path id="Vector_7" d="M131.695 42.0193L126.6 54.9441H122.003L118.2 45.2136L114.379 54.9441H109.8L104.705 42.0193H108.286L112.108 52.1745L116.151 42.0193H120.231L124.292 52.1929L128.095 42.0193H131.695Z" fill="#232525"/>
<path id="Vector_8" d="M142.223 47.7616L150.05 54.9441H145.453L139.767 49.571L135.798 52.47V54.9441H132.475V42.0193H135.798V48.7218L145.01 42.0193H150.05L142.223 47.7616Z" fill="#232525"/>
<path id="Vector_9" d="M167.393 42.0193V54.9441H162.87L154.064 45.2504V54.9441H150.741V42.0193H155.245L164.07 51.7313V42.0193H167.393Z" fill="#232525"/>
<path id="Vector_10" d="M178.252 42.0193C179.409 42.0193 180.461 42.2593 181.409 42.7394C182.357 43.2194 183.114 43.9456 183.679 44.9181C184.247 45.8905 184.529 47.0784 184.529 48.4817C184.529 49.885 184.247 51.0728 183.679 52.0453C183.114 53.0177 182.357 53.7439 181.409 54.2239C180.461 54.7041 179.409 54.9441 178.252 54.9441H168.874V42.0193H178.252ZM176.997 52.156C177.932 52.156 178.695 52.0637 179.286 51.8791C179.889 51.6821 180.357 51.3191 180.689 50.7897C181.034 50.2604 181.207 49.4911 181.207 48.4817C181.207 47.4724 181.034 46.703 180.689 46.1737C180.357 45.6444 179.889 45.2874 179.286 45.1028C178.695 44.9058 177.932 44.8074 176.997 44.8074H172.197V52.156H176.997Z" fill="#232525"/>
</g>
</svg>
