<svg width="89" height="33" viewBox="0 0 89 33" fill="none" xmlns="http://www.w3.org/2000/svg">
<g id="Ramp_Verification_Full_Dark.svg" clip-path="url(#clip0_3001_6080)">
<path id="Vector" d="M84.8783 0.275391H4.8783C2.66916 0.275391 0.878296 2.06625 0.878296 4.27539V28.2754C0.878296 30.4845 2.66916 32.2754 4.8783 32.2754H84.8783C87.0874 32.2754 88.8783 30.4845 88.8783 28.2754V4.27539C88.8783 2.06625 87.0874 0.275391 84.8783 0.275391Z" fill="black"/>
<path id="Vector_2" d="M15.1112 7.80122C15.9697 6.57407 17.7869 6.57407 18.6454 7.80122C19.1655 8.54465 20.0953 8.88305 20.9716 8.64787C22.4181 8.25967 23.8102 9.42774 23.679 10.9196C23.5996 11.8234 24.0943 12.6803 24.9168 13.0634C26.2744 13.6957 26.5899 15.4854 25.5305 16.5439C24.8887 17.1852 24.7169 18.1596 25.1006 18.9817C25.7341 20.3388 24.8255 21.9125 23.3335 22.0425C22.4296 22.1212 21.6716 22.7572 21.4372 23.6336C21.0501 25.0804 19.3425 25.7019 18.116 24.8424C17.373 24.3217 16.3836 24.3217 15.6406 24.8424C14.4141 25.7019 12.7065 25.0804 12.3194 23.6336C12.085 22.7572 11.327 22.1212 10.4231 22.0425C8.93111 21.9125 8.02248 20.3388 8.65596 18.9817C9.03974 18.1596 8.86793 17.1852 8.22611 16.5439C7.16668 15.4854 7.48224 13.6957 8.83983 13.0634C9.66228 12.6803 10.157 11.8234 10.0776 10.9196C9.94642 9.42774 11.3385 8.25967 12.785 8.64787C13.6613 8.88305 14.5911 8.54465 15.1112 7.80122Z" fill="#E4F222"/>
<path id="Vector_3" d="M22.2211 20.2115V20.2521L16.4014 20.2542V20.2115C17.2405 19.73 17.8198 19.2397 18.341 18.7272H20.7308L22.2211 20.2115ZM20.7791 12.5127L19.304 11.043H19.2611C19.2611 11.043 19.286 13.7821 16.8092 16.2733C14.3856 18.7114 11.5355 18.7169 11.5355 18.7169V18.7596L13.0383 20.2549C13.0383 20.2549 15.847 20.2831 18.3279 17.8112C20.7999 15.3476 20.7791 12.5127 20.7791 12.5127Z" fill="black"/>
<path id="Vector_4" d="M37.0724 15.8147C35.282 15.8147 34.4032 17.4173 34.4032 19.5574V24.9204H31.8783V13.6032H34.3589V16.5393H34.402C34.9317 14.7341 35.9875 13.2754 37.616 13.2754C38.7615 13.2754 39.2445 13.6816 39.2445 13.6816L38.1049 16.0125C38.1049 16.0125 37.7417 15.8147 37.0724 15.8147ZM67.5955 17.3682V24.9192H65.1358V18.2872C65.1358 16.3836 64.5479 15.3756 63.0463 15.3756C61.4911 15.3756 60.7391 16.6505 60.7391 19.0961V24.918H58.3015V18.2872C58.3015 16.4574 57.7207 15.3756 56.2342 15.3756C54.5369 15.3756 53.8839 16.8858 53.8839 19.0961V24.918H51.4033V13.6032H53.8839V16.1659H53.906C54.2925 14.3923 55.3471 13.2976 57.127 13.2976C58.8917 13.2976 60.0418 14.2611 60.4784 15.9692C60.8939 14.3255 61.9998 13.2976 63.6993 13.2976C66.0705 13.2976 67.5955 14.8079 67.5955 17.3682ZM44.207 13.2754C41.9242 13.2754 40.4307 14.3642 39.7497 16.3298L41.8509 17.1059C42.2339 15.92 43.0324 15.2445 44.2512 15.2445C45.6225 15.2445 46.428 15.858 46.428 16.7992C46.428 17.7615 45.7866 17.9629 44.3385 18.2005C42.7274 18.464 38.8965 18.5506 38.8965 21.8332C38.8965 23.7567 40.4796 25.2037 42.8578 25.2037C44.6458 25.2037 45.8634 24.4615 46.4269 23.08H46.449V24.9192H48.9087V17.9594C48.9075 14.9144 47.3989 13.2754 44.207 13.2754ZM46.492 19.5925C46.492 21.9655 45.3361 23.4898 43.4887 23.4898C42.1827 23.4898 41.3992 22.7452 41.3992 21.6717C41.3992 20.6649 42.2048 19.966 43.7495 19.678C45.3303 19.383 46.1265 19.0189 46.492 18.1455V19.5925ZM76.3446 13.2976C74.4635 13.2976 73.2203 14.3478 72.6883 15.9259V13.6032H70.0761V29.2754H72.6662V22.5977H72.6883C73.2645 24.3069 74.4647 25.247 76.3446 25.247C79.3258 25.247 81.4596 22.7522 81.4596 19.2273C81.4584 15.7269 79.3258 13.2976 76.3446 13.2976ZM75.7021 23.1468C73.637 23.1468 72.4916 21.6249 72.4916 19.2612C72.4916 16.8976 73.7732 15.3756 75.7021 15.3756C77.6298 15.3756 78.9126 16.9713 78.9126 19.2612C78.9126 21.5523 77.6309 23.1468 75.7021 23.1468Z" fill="white"/>
<path id="Vector_5" d="M33.4004 7.90641C33.854 7.90641 34.1943 7.69152 34.1943 7.23788C34.1943 6.78424 33.86 6.60517 33.4064 6.60517H32.7557V7.90641H33.4004ZM31.8783 10.1388V5.87695H33.466C34.4688 5.87695 35.0657 6.45594 35.0657 7.21997C35.0657 8.01982 34.3614 8.62865 33.4601 8.62865H32.7557V10.1388H31.8783Z" fill="white"/>
<path id="Vector_6" d="M37.6669 5.77539C39.0935 5.77539 39.9053 6.81996 39.9053 8.00779C39.9053 9.19561 39.0935 10.2402 37.6669 10.2402C36.2404 10.2402 35.4226 9.19561 35.4226 8.00779C35.4226 6.81996 36.2404 5.77539 37.6669 5.77539ZM36.3 8.00779C36.3 8.82554 36.8074 9.49406 37.6669 9.49406C38.5145 9.49406 39.0279 8.82554 39.0279 8.00779C39.0279 7.19004 38.5145 6.52151 37.6669 6.52151C36.8074 6.52151 36.3 7.19004 36.3 8.00779Z" fill="white"/>
<path id="Vector_7" d="M41.0303 5.87695L41.5257 8.6764L41.6093 9.21361H41.6272L41.7346 8.6764L42.3375 5.87695H43.4597L44.0208 8.6764L44.1282 9.21958H44.1521L44.2476 8.6764L44.7669 5.87695H45.698L45.0534 8.6764L44.7251 10.1388H43.5492L43.2746 8.6764L42.8986 6.74842H42.8867L42.4808 8.6764L42.1883 10.1388H41.0124L40.708 8.6764L40.0991 5.87695H41.0303Z" fill="white"/>
<path id="Vector_8" d="M48.9874 6.62307H47.0594V7.62586H48.8621V8.35408H47.0594V9.39268H49.0053V10.1388H46.182V5.87695H48.9874V6.62307Z" fill="white"/>
<path id="Vector_9" d="M51.3856 5.87695C52.3645 5.87695 52.9493 6.36044 52.9493 7.08865C52.9493 7.72734 52.5674 8.09741 52.1198 8.22276C52.5077 8.34214 52.657 8.66447 52.7942 9.11214C52.9136 9.49415 53.0032 9.84035 53.1524 10.109V10.1388H52.263C52.1317 9.90004 52.0301 9.53594 51.8988 9.17183C51.7615 8.77788 51.5645 8.53315 51.0393 8.53315H50.5857V10.1328H49.7083V5.87695H51.3856ZM50.5857 7.82881H51.3377C51.8093 7.82881 52.0899 7.57811 52.0899 7.1961C52.0899 6.83199 51.8213 6.58129 51.3259 6.58129H50.5857V7.82881Z" fill="white"/>
<path id="Vector_10" d="M56.5588 6.62307H54.6308V7.62586H56.4334V8.35408H54.6308V9.39268H56.5767V10.1388H53.7534V5.87695H56.5588V6.62307Z" fill="white"/>
<path id="Vector_11" d="M58.6459 5.87695C60.1322 5.87695 60.9439 6.66486 60.9439 7.96013C60.9439 9.30315 60.1322 10.1388 58.6518 10.1388H57.3088V5.87695H58.6459ZM58.1863 9.39268H58.6459C59.5054 9.39268 60.0486 8.92113 60.0486 7.96013C60.0486 7.05881 59.5054 6.62307 58.6518 6.62307H58.1863V9.39268Z" fill="white"/>
<path id="Vector_12" d="M64.3907 5.87695C65.298 5.87695 65.9009 6.22315 65.9009 6.99912C65.9009 7.48858 65.6621 7.78703 65.1786 7.95416V7.96609C65.6263 8.0616 66.0441 8.31826 66.0441 8.92113C66.0441 9.83439 65.3756 10.1388 64.3609 10.1388H62.8925V5.87695H64.3907ZM63.77 9.42253H64.2654C64.8205 9.42253 65.1727 9.32105 65.1727 8.86144C65.1727 8.44361 64.8563 8.32423 64.3967 8.32423H63.77V9.42253ZM63.77 7.63183H64.2475C64.7668 7.63183 65.0354 7.50648 65.0354 7.08865C65.0354 6.67083 64.7608 6.58726 64.3072 6.58726H63.77V7.63183Z" fill="white"/>
<path id="Vector_13" d="M67.1565 5.87695C67.4549 6.48579 67.7653 7.09462 68.0399 7.67958C68.3323 7.09462 68.5353 6.65889 68.9113 5.87695H69.8783L68.4518 8.50927V10.1388H67.5743V8.50927L66.1656 5.87695H67.1565Z" fill="white"/>
</g>
<defs>
<clipPath id="clip0_3001_6080">
<rect width="88" height="32" fill="white" transform="translate(0.878296 0.275391)"/>
</clipPath>
</defs>
</svg>
