<svg width="417" height="161" viewBox="0 0 417 161" fill="none" xmlns="http://www.w3.org/2000/svg">
<g clip-path="url(#clip0_3001_5450)">
<g clip-path="url(#clip1_3001_5450)">
<g clip-path="url(#clip2_3001_5450)">
<mask id="mask0_3001_5450" style="mask-type:luminance" maskUnits="userSpaceOnUse" x="0" y="1" width="417" height="160">
<path d="M416.878 1.20215H0.878296V160.669H416.878V1.20215Z" fill="white"/>
</mask>
<g mask="url(#mask0_3001_5450)">
<g filter="url(#filter0_d_3001_5450)">
<path d="M262.56 20.1409L39.1031 28.7859C32.0322 29.0595 26.5219 35.0133 26.7955 42.0842L31.3446 159.67C31.6182 166.741 37.572 172.251 44.6429 171.978L268.1 163.333C275.171 163.059 280.681 157.105 280.407 150.035L275.858 32.4485C275.585 25.3776 269.631 19.8673 262.56 20.1409Z" fill="white"/>
<path d="M60.9498 56.1988C60.9573 56.3912 60.757 56.5074 60.349 56.5473C58.1626 56.7041 56.6518 56.8831 55.8163 57.084C54.9799 57.2609 54.269 57.5655 53.6834 57.9977C53.5428 58.0995 53.4123 58.1528 53.292 58.1574C53.1958 58.1611 53.144 58.0668 53.1365 57.8743C53.1235 57.5375 53.1253 57.2725 53.1419 57.0791C53.1576 56.8616 53.1598 56.6086 53.1487 56.3199C53.1403 56.1034 53.1208 55.9114 53.0903 55.744C51.6361 57.3903 50.019 58.2479 48.2389 58.3168C46.6512 58.3782 45.3807 57.9214 44.4275 56.9464C43.8259 56.3433 43.4926 55.1998 43.4275 53.5158L43.3283 50.9539C43.3172 50.6652 43.3017 49.9551 43.2821 48.8235C43.2383 47.6929 43.1778 46.1292 43.1006 44.1326C43.0801 43.6033 42.9833 43.2818 42.8103 43.1681C42.6613 43.0534 42.2255 42.998 41.5029 43.0018C40.8765 43.002 40.56 42.9178 40.5535 42.7495C40.5461 42.557 40.7108 42.4543 41.0475 42.4412L41.4445 42.4259C41.8053 42.4119 42.3475 42.415 43.071 42.4352C43.8177 42.4304 44.3234 42.4229 44.588 42.4127C44.6361 42.4108 44.8762 42.3895 45.3083 42.3487C45.7644 42.3069 46.4255 42.2693 47.2915 42.2358L47.9771 42.2093L48.1279 46.1064C48.1995 47.9587 48.228 49.3188 48.2134 50.1867C48.2229 51.0536 48.2253 51.427 48.2206 51.3067C48.3184 53.8326 48.5357 55.4022 48.8726 56.0155C49.2336 56.628 49.7629 56.9207 50.4605 56.8937C51.2544 56.863 51.9829 56.3891 52.6461 55.472C52.8523 55.199 52.9624 54.9298 52.9762 54.6642C53.0132 54.3737 53.0107 53.6872 52.9688 52.6046L52.7287 46.3982C52.6607 44.6421 52.5957 43.5845 52.5337 43.2256C52.4679 42.7704 52.1583 42.5535 51.605 42.5749L50.5947 42.614C50.2579 42.627 50.0858 42.5373 50.0783 42.3448C50.0728 42.2005 50.7195 42.1032 52.0185 42.0529C53.1491 42.0092 54.9409 41.9278 57.3936 41.8088C57.405 42.7239 57.4497 44.1918 57.5279 46.2125L57.8113 53.5376C57.855 54.6682 57.9051 55.3409 57.9616 55.5555C58.0172 55.7461 58.2027 55.8714 58.5182 55.9315C58.7366 55.9712 59.387 55.9701 60.4696 55.9283C60.7823 55.9162 60.9424 56.0063 60.9498 56.1988Z" fill="black"/>
<path d="M74.428 41.403C74.4336 41.5473 74.1482 41.6427 73.5718 41.6891C72.9232 41.7383 72.4717 41.9003 72.2173 42.1751C71.987 42.4491 71.6888 43.1472 71.3226 44.2696C70.9593 45.4642 70.5104 46.9391 69.976 48.6944L67.3256 56.7835C67.1546 57.3442 66.9488 57.6293 66.7082 57.6386C66.4917 57.6469 66.1224 57.1312 65.6004 56.0913C65.1023 55.0506 63.3792 51.2986 60.4308 44.8356C59.8782 43.6282 59.5505 42.9423 59.4477 42.7776C59.2191 42.4732 58.6718 42.3378 57.8058 42.3713C57.4209 42.3862 57.2247 42.2974 57.2173 42.105C57.2098 41.9125 57.3384 41.8112 57.603 41.8009C57.8195 41.7926 58.0125 41.7972 58.1818 41.8147C58.5704 41.896 59.9064 41.8684 62.1899 41.7319L65.7955 41.5201C65.9389 41.4905 66.1309 41.471 66.3715 41.4617C66.6361 41.4515 66.7717 41.5306 66.7782 41.6989C66.7828 41.8192 66.2573 41.9359 65.2016 42.049C64.9139 42.0843 64.7751 42.2342 64.7854 42.4988C64.7966 42.7875 65.2414 44.011 66.1199 46.1694C66.9976 48.3037 67.7775 50.0925 68.4597 51.5357C70.2932 45.9959 71.1993 42.9493 71.1779 42.396C71.1611 41.963 70.6961 41.7762 69.7829 41.8357C69.1584 41.8839 68.8424 41.8118 68.835 41.6194C68.8294 41.475 68.9228 41.3991 69.1153 41.3917L70.7391 41.3289C71.0518 41.3168 71.3765 41.3042 71.7133 41.2912C72.0751 41.3013 72.28 41.3054 72.3281 41.3035C72.5206 41.2961 72.8088 41.2729 73.1928 41.2339C73.6008 41.1941 73.901 41.1704 74.0935 41.163C74.31 41.1546 74.4215 41.2346 74.428 41.403Z" fill="black"/>
<path d="M103.009 40.3332L81.359 41.1708C80.243 41.214 79.3733 42.1537 79.4164 43.2697L79.8632 54.8167C79.9063 55.9327 80.846 56.8024 81.962 56.7592L103.613 55.9216C104.729 55.8784 105.598 54.9387 105.555 53.8227L105.108 42.2758C105.065 41.1598 104.125 40.2901 103.009 40.3332Z" stroke="#232525" stroke-width="0.577778"/>
<path d="M86.5687 49.2915C88.3592 49.2223 89.3739 48.414 89.3157 46.9086C89.2574 45.4031 88.1829 44.6656 86.3817 44.7352L83.2377 44.8569L83.5168 52.0708L84.9023 52.0172L84.7995 49.36L86.5687 49.2915ZM84.7588 48.3092L84.6642 45.8642L86.3055 45.8007C87.35 45.7602 87.8875 46.1341 87.9195 46.9626C87.9512 47.781 87.4446 48.2053 86.4001 48.2457L84.7588 48.3092Z" fill="#232525"/>
<path d="M93.8869 51.6695L95.1978 51.6188C95.0966 51.2079 95.06 50.8146 95.0416 50.3398L94.965 48.3595C94.9134 47.0258 94.046 46.4017 92.5753 46.4586C91.2431 46.5101 90.3622 47.1918 90.2875 48.2976L91.5984 48.2469C91.6227 47.7704 91.9729 47.4431 92.5698 47.42C93.1879 47.3961 93.6046 47.6836 93.6289 48.31L93.6383 48.5525L92.0249 48.7869C90.9319 48.9506 90.0957 49.4079 90.1355 50.4385C90.1715 51.368 90.9604 51.894 92.0155 51.8532C92.8788 51.8198 93.5479 51.46 93.7811 50.8641C93.7908 51.1167 93.8227 51.3887 93.8869 51.6695ZM92.3537 50.9396C91.8102 50.9606 91.502 50.7196 91.4863 50.3154C91.4656 49.7799 91.8979 49.6418 92.4707 49.5488L93.6699 49.3709L93.682 49.6841C93.7133 50.4923 93.0571 50.9124 92.3537 50.9396Z" fill="#232525"/>
<path d="M98.1218 51.4957C97.8614 52.214 97.6339 52.405 97.0797 52.4264C96.9625 52.431 96.8772 52.4343 96.7162 52.4101L96.7541 53.3902C96.9471 53.4131 97.2037 53.4234 97.3849 53.4164C98.5249 53.3621 99.1345 52.8427 99.5964 51.5398L101.504 46.2346L100.151 46.287L98.8726 50.2119L98.8513 50.2127L97.1989 46.4012L95.8133 46.4548L98.1218 51.4957Z" fill="#232525"/>
<path d="M254.196 34.2841L205.317 36.1751C200.902 36.3459 197.462 40.0634 197.633 44.4784C197.803 48.8934 201.521 52.3339 205.936 52.1631L254.815 50.2721C259.23 50.1013 262.671 46.3838 262.5 41.9688C262.329 37.5539 258.611 34.1133 254.196 34.2841Z" fill="url(#paint0_linear_3001_5450)"/>
<path fill-rule="evenodd" clip-rule="evenodd" d="M210.274 39.7402C210.473 39.7948 210.615 39.9725 210.623 40.1794L210.714 42.549L212.61 42.4756C212.787 42.4688 212.952 42.5609 213.04 42.7144C213.128 42.868 213.123 43.0576 213.027 43.2063L209.893 48.0738C209.781 48.2479 209.569 48.3292 209.369 48.2746C209.169 48.22 209.028 48.0423 209.02 47.8354L208.929 45.4658L207.033 45.5392C206.856 45.546 206.69 45.454 206.603 45.3004C206.515 45.1468 206.52 44.9572 206.616 44.8085L209.75 39.941C209.862 39.7669 210.074 39.6857 210.274 39.7402Z" fill="black"/>
<path d="M217.949 44.7174L219.119 44.6721C219.235 45.5555 220.015 45.8274 220.828 45.796C221.605 45.7659 222.195 45.3953 222.169 44.7372C222.151 44.2619 221.857 44.0078 221.066 43.892L219.86 43.7189C218.894 43.5824 218.099 43.1555 218.055 42.013C218.01 40.8522 219.002 40.0083 220.428 39.9531C221.982 39.893 222.94 40.5333 223.116 41.7531L221.973 41.7973C221.866 41.1607 221.286 40.8262 220.472 40.8576C219.686 40.888 219.209 41.3184 219.231 41.8943C219.252 42.4335 219.597 42.5941 220.306 42.704L221.577 42.9019C222.654 43.0616 223.314 43.567 223.355 44.6181C223.401 45.8063 222.344 46.6344 220.899 46.6903C219.346 46.7504 218.123 46.1478 217.949 44.7174ZM227.402 46.3289C227.346 46.0747 227.318 45.8286 227.309 45.6002C227.111 46.1388 226.537 46.463 225.797 46.4916C224.892 46.5267 224.215 46.0494 224.182 45.2085C224.146 44.2763 224.862 43.8641 225.799 43.718L227.183 43.5089L227.174 43.2895C227.152 42.7228 226.794 42.4621 226.264 42.4826C225.752 42.5024 225.453 42.7978 225.433 43.2287L224.309 43.2722C224.371 42.2721 225.125 41.6571 226.267 41.6129C227.529 41.5641 228.274 42.1302 228.32 43.3367L228.39 45.1281C228.406 45.5577 228.438 45.9135 228.526 46.2854L227.402 46.3289ZM226.085 45.6658C226.689 45.6425 227.251 45.2637 227.222 44.5325L227.211 44.2492L226.183 44.408C225.692 44.4911 225.322 44.6152 225.34 45.0997C225.354 45.4653 225.619 45.6838 226.085 45.6658ZM230.998 46.1897L228.991 41.6174L230.17 41.5717L231.594 45.0225L231.612 45.0218L232.738 41.4724L233.881 41.4282L232.278 46.1402L230.998 46.1897ZM238.863 44.4392C238.701 45.4432 237.891 46.0329 236.83 46.0739C235.478 46.1263 234.447 45.26 234.388 43.7427C234.329 42.2255 235.308 41.2631 236.615 41.2126C238.068 41.1563 238.806 42.2354 238.853 43.4693L238.868 43.844L235.532 43.9731C235.637 44.7928 236.075 45.2427 236.797 45.2148C237.327 45.1943 237.647 44.9348 237.785 44.4809L238.863 44.4392ZM236.649 42.0808C236.036 42.1045 235.639 42.4952 235.539 43.2131L237.723 43.1285C237.701 42.5527 237.352 42.0536 236.649 42.0808ZM239.422 41.0948L239.391 40.2905C240.506 40.2473 240.933 39.9287 241.063 39.2464L241.894 39.2142L242.147 45.7584L240.941 45.8051L240.757 41.0432L239.422 41.0948ZM245.79 42.1299C245.214 42.1522 244.841 42.4504 244.653 42.7781L243.565 42.8202L243.799 39.1588L247.71 39.0075L247.748 39.9672L244.704 40.0849L244.596 41.7917C244.832 41.5079 245.334 41.2322 245.947 41.2085C247.299 41.1562 248.205 42.0914 248.255 43.371C248.303 44.6323 247.437 45.6636 245.929 45.7219C244.457 45.7789 243.484 44.9836 243.335 43.7261L244.541 43.6795C244.622 44.3628 245.126 44.8376 245.894 44.8079C246.735 44.7754 247.122 44.138 247.094 43.4251C247.066 42.703 246.64 42.0971 245.79 42.1299ZM248.948 40.3693C248.915 39.5284 249.575 38.8255 250.406 38.7933C251.238 38.7612 251.941 39.4114 251.973 40.2522C252.005 41.084 251.355 41.7865 250.523 41.8187C249.692 41.8508 248.98 41.201 248.948 40.3693ZM253.993 38.7644L254.807 38.7329L250.736 45.417L249.922 45.4484L253.993 38.7644ZM249.661 40.3417C249.679 40.8078 250.058 41.1501 250.497 41.1332C250.936 41.1162 251.287 40.7456 251.269 40.2795C251.251 39.8133 250.872 39.4619 250.433 39.4788C249.994 39.4958 249.643 39.8756 249.661 40.3417ZM252.748 43.9478C252.716 43.1161 253.365 42.4044 254.197 42.3722C255.029 42.34 255.732 42.9994 255.764 43.8311C255.796 44.672 255.146 45.3745 254.315 45.4067C253.483 45.4388 252.78 44.7887 252.748 43.9478ZM253.452 43.9206C253.47 44.3867 253.849 44.7381 254.288 44.7212C254.736 44.7038 255.078 44.3245 255.06 43.8583C255.042 43.3922 254.671 43.0404 254.224 43.0577C253.785 43.0747 253.433 43.4544 253.452 43.9206Z" fill="black"/>
<path fill-rule="evenodd" clip-rule="evenodd" d="M255.183 139.25L255.365 143.969L262.75 147.86L262.717 147.019L263.866 147.624L263.92 149.022C263.936 149.431 263.655 149.609 263.292 149.418L254.923 145.008C254.561 144.817 254.254 144.33 254.238 143.92L254.012 138.088C253.996 137.679 254.277 137.502 254.64 137.693L263.009 142.103C263.372 142.294 263.678 142.781 263.694 143.19L263.742 144.416L262.593 143.811L262.567 143.141L255.183 139.25Z" fill="#136D58"/>
<path fill-rule="evenodd" clip-rule="evenodd" d="M256.672 136.492C256.657 136.082 256.938 135.905 257.3 136.096L265.669 140.506C266.032 140.697 266.339 141.184 266.354 141.594L266.58 147.425C266.596 147.835 266.315 148.012 265.952 147.821L257.583 143.411C257.221 143.22 256.914 142.733 256.898 142.324L256.845 140.952L257.994 141.558L258.026 142.373L265.41 146.264L265.227 141.544L257.843 137.653L257.877 138.549L256.729 137.943L256.672 136.492Z" fill="#136D58"/>
</g>
<g filter="url(#filter1_d_3001_5450)">
<path d="M379.1 77.7164L155.805 65.5949C148.739 65.2113 142.7 70.6283 142.317 77.6941L135.938 195.195C135.555 202.261 140.972 208.3 148.037 208.683L371.333 220.805C378.398 221.188 384.437 215.771 384.821 208.706L391.199 91.2045C391.583 84.1388 386.166 78.0999 379.1 77.7164Z" fill="white"/>
<path d="M175.013 94.9163C175.002 95.1086 174.792 95.2057 174.382 95.2075C172.191 95.1609 170.67 95.1989 169.819 95.3215C168.97 95.42 168.234 95.6573 167.611 96.0334C167.461 96.1217 167.327 96.1626 167.206 96.1561C167.11 96.1508 167.067 96.0521 167.078 95.8598C167.096 95.5232 167.122 95.2595 167.157 95.0685C167.193 94.8534 167.218 94.6017 167.234 94.3132C167.246 94.0968 167.244 93.9039 167.229 93.7343C165.629 95.2386 163.939 95.9425 162.16 95.846C160.574 95.7598 159.351 95.1872 158.492 94.128C157.949 93.4716 157.724 92.3021 157.815 90.6194L157.954 88.0593C157.97 87.7708 158.02 87.0623 158.105 85.9338C158.167 84.804 158.252 83.2415 158.36 81.2463C158.389 80.7174 158.322 80.3883 158.16 80.259C158.023 80.131 157.594 80.0354 156.874 79.9722C156.25 79.9142 155.943 79.8011 155.952 79.6328C155.963 79.4405 156.136 79.3535 156.473 79.3718L156.869 79.3933C157.23 79.4129 157.769 79.4663 158.488 79.5535C159.232 79.618 159.736 79.6574 160 79.6718C160.049 79.6744 160.29 79.6754 160.724 79.6749C161.182 79.6756 161.843 79.6995 162.709 79.7465L163.394 79.7837L163.182 83.6779C163.082 85.5289 162.984 86.8858 162.889 87.7486C162.818 88.6127 162.786 88.9846 162.792 88.8644C162.655 91.3885 162.726 92.9715 163.005 93.6135C163.307 94.2567 163.807 94.5973 164.504 94.6351C165.298 94.6782 166.067 94.2739 166.812 93.4224C167.043 93.1697 167.178 92.9118 167.216 92.6486C167.28 92.3628 167.341 91.679 167.4 90.5973L167.736 84.3953C167.832 82.6405 167.865 81.5814 167.836 81.2183C167.813 80.7589 167.525 80.5142 166.972 80.4842L165.963 80.4294C165.626 80.4111 165.463 80.3059 165.473 80.1135C165.481 79.9693 166.134 79.9324 167.432 80.0029C168.562 80.0642 170.354 80.1494 172.807 80.2585C172.733 81.1707 172.642 82.6364 172.532 84.6556L172.135 91.9754C172.073 93.1052 172.061 93.7796 172.097 93.9986C172.135 94.1935 172.308 94.3355 172.617 94.4246C172.83 94.4844 173.478 94.5436 174.56 94.6024C174.872 94.6193 175.023 94.724 175.013 94.9163Z" fill="black"/>
<path d="M189.806 81.4344C189.798 81.5786 189.505 81.6471 188.926 81.6398C188.276 81.6286 187.812 81.7481 187.533 81.9981C187.278 82.2495 186.916 82.917 186.448 84.0006C185.975 85.1563 185.391 86.5832 184.696 88.2814L181.307 96.0897C181.085 96.6322 180.853 96.8969 180.613 96.8838C180.397 96.8721 180.077 96.3243 179.653 95.2405C179.254 94.158 177.886 90.2624 175.55 83.5537C175.112 82.3003 174.849 81.5869 174.762 81.4134C174.563 81.0892 174.031 80.9035 173.165 80.8566C172.781 80.8357 172.593 80.7291 172.604 80.5368C172.614 80.3445 172.752 80.2555 173.016 80.2698C173.233 80.2816 173.424 80.304 173.591 80.3372C173.971 80.4543 175.303 80.5507 177.59 80.6266L181.199 80.7502C181.345 80.734 181.538 80.7324 181.778 80.7455C182.043 80.7598 182.17 80.8512 182.161 81.0194C182.155 81.1396 181.621 81.2071 180.559 81.2218C180.269 81.2301 180.117 81.3666 180.103 81.631C180.087 81.9194 180.417 83.179 181.091 85.4095C181.767 87.6161 182.378 89.4695 182.923 90.9698C185.262 85.6239 186.447 82.6746 186.477 82.1217C186.501 81.689 186.055 81.4598 185.14 81.4343C184.514 81.4244 184.206 81.3233 184.217 81.131C184.224 80.9868 184.324 80.9199 184.517 80.9303L186.139 81.0184C186.452 81.0354 186.776 81.053 187.113 81.0712C187.472 81.1149 187.676 81.138 187.724 81.1406C187.916 81.151 188.205 81.1547 188.591 81.1515C189.001 81.1496 189.302 81.1539 189.495 81.1644C189.711 81.1761 189.815 81.2661 189.806 81.4344Z" fill="black"/>
<path d="M218.363 83.0209L196.728 81.8464C195.613 81.7859 194.66 82.6409 194.6 83.7561L193.973 95.2946C193.913 96.4098 194.768 97.363 195.883 97.4235L217.518 98.5979C218.633 98.6585 219.586 97.8035 219.647 96.6883L220.273 85.1497C220.333 84.0345 219.478 83.0814 218.363 83.0209Z" stroke="#232525" stroke-width="0.577778"/>
<path d="M201.162 90.4149C202.951 90.512 204.037 89.8014 204.118 88.297C204.2 86.7927 203.199 85.9586 201.399 85.8609L198.257 85.6904L197.866 92.8991L199.25 92.9743L199.394 90.3189L201.162 90.4149ZM199.451 89.2689L199.584 86.8256L201.224 86.9147C202.268 86.9713 202.768 87.3934 202.723 88.2213C202.679 89.0391 202.135 89.4146 201.091 89.358L199.451 89.2689Z" fill="#232525"/>
<path d="M208.228 93.4617L209.538 93.5328C209.475 93.1143 209.476 92.7194 209.501 92.2448L209.609 90.266C209.681 88.9333 208.875 88.2313 207.406 88.1516C206.074 88.0793 205.134 88.6763 204.957 89.7704L206.267 89.8415C206.335 89.3693 206.715 89.076 207.311 89.1084C207.929 89.1419 208.317 89.4668 208.283 90.0927L208.27 90.3351L206.642 90.4188C205.538 90.4804 204.663 90.8582 204.607 91.888C204.557 92.8169 205.293 93.4138 206.348 93.471C207.21 93.5179 207.91 93.2217 208.198 92.65C208.184 92.9024 208.19 93.1761 208.228 93.4617ZM206.769 92.5927C206.226 92.5632 205.942 92.2946 205.964 91.8908C205.993 91.3557 206.436 91.2582 207.015 91.2188L208.225 91.1528L208.208 91.4658C208.165 92.2735 207.472 92.6309 206.769 92.5927Z" fill="#232525"/>
<path d="M212.461 93.6813C212.135 94.3724 211.891 94.5414 211.337 94.5114C211.22 94.505 211.135 94.5004 210.977 94.4614L210.923 95.4407C211.114 95.4814 211.368 95.5155 211.549 95.5253C212.689 95.5771 213.344 95.1165 213.925 93.862L216.317 88.7567L214.965 88.6833L213.328 92.4727L213.306 92.4715L212.015 88.5232L210.63 88.448L212.461 93.6813Z" fill="#232525"/>
<path d="M157.595 101.14L160.524 101.299C162.756 101.42 163.968 102.883 163.852 105.021C163.692 107.974 161.519 109.81 158.815 109.663L155.803 109.5L157.595 101.14ZM160.348 102.142L158.435 102.038L156.995 108.712L158.979 108.819C161.14 108.937 162.67 107.373 162.8 104.976C162.891 103.311 162.096 102.237 160.348 102.142ZM169.835 108.508C169.318 109.748 168.197 110.315 167.04 110.252C165.516 110.169 164.6 109.16 164.686 107.577C164.801 105.463 166.303 103.97 168.122 104.068C169.61 104.149 170.289 105.169 170.213 106.575C170.197 106.87 170.143 107.21 170.054 107.537L165.649 107.298C165.632 107.392 165.626 107.498 165.62 107.604C165.559 108.738 166.137 109.421 167.177 109.478C167.968 109.52 168.509 109.159 168.914 108.458L169.835 108.508ZM168.008 104.856C167.028 104.803 166.174 105.479 165.806 106.584L169.254 106.771C169.285 106.643 169.292 106.513 169.295 106.454C169.345 105.532 168.941 104.906 168.008 104.856ZM172.326 109.236L172.086 110.384L171.141 110.332L172.995 101.715L173.987 101.769L173.167 105.539C173.565 104.956 174.271 104.402 175.298 104.458C176.644 104.531 177.515 105.514 177.429 107.097C177.323 109.057 175.999 110.738 174.193 110.64C173.224 110.588 172.502 109.921 172.326 109.236ZM175.02 105.213C173.851 105.149 173.022 106.016 172.713 107.35C172.646 107.713 172.624 107.89 172.615 108.067C172.558 109.106 173.136 109.813 174.116 109.866C175.474 109.94 176.362 108.638 176.448 107.067C176.506 105.992 176.024 105.267 175.02 105.213ZM179.86 103.604L180.114 102.421L181.224 102.482L180.97 103.664L179.86 103.604ZM179.663 104.837L180.655 104.891L179.399 110.781L178.407 110.727L179.663 104.837ZM184.498 110.169L184.337 110.954C183.916 111.073 183.595 111.103 183.288 111.086C182.402 111.038 181.857 110.606 181.903 109.756C181.909 109.649 181.928 109.52 181.958 109.392L182.736 105.75L181.886 105.704L182.033 104.966L182.919 105.014L183.26 103.516L184.205 103.567L183.875 105.066L185.434 105.15L185.287 105.889L183.705 105.803L182.931 109.373C182.914 109.467 182.897 109.561 182.894 109.62C182.869 110.081 183.131 110.261 183.604 110.286C183.852 110.3 184.102 110.266 184.498 110.169Z" fill="#232525"/>
<path d="M369.462 90.9338L318.621 88.1739C314.209 87.9344 310.438 91.3167 310.199 95.7285C309.959 100.14 313.342 103.911 317.753 104.15L368.594 106.91C373.006 107.15 376.777 103.767 377.016 99.3556C377.256 94.9438 373.873 91.1732 369.462 90.9338Z" fill="url(#paint1_linear_3001_5450)"/>
<path fill-rule="evenodd" clip-rule="evenodd" d="M323.226 92.1827C323.42 92.2556 323.544 92.4457 323.532 92.6524L323.404 95.0203L325.298 95.1231C325.475 95.1327 325.631 95.2397 325.704 95.4008C325.777 95.5618 325.755 95.7502 325.646 95.8893L322.074 100.445C321.946 100.608 321.727 100.669 321.533 100.596C321.34 100.524 321.216 100.333 321.227 100.127L321.355 97.7589L319.461 97.6561C319.284 97.6465 319.128 97.5394 319.055 97.3784C318.982 97.2173 319.004 97.029 319.114 96.8898L322.686 92.334C322.813 92.1711 323.032 92.1099 323.226 92.1827Z" fill="black"/>
<path d="M330.443 97.8532L331.612 97.9167C331.646 98.807 332.397 99.1501 333.21 99.1942C333.986 99.2364 334.608 98.922 334.644 98.2644C334.67 97.7895 334.401 97.5093 333.623 97.3205L332.439 97.0363C331.489 96.8107 330.738 96.3119 330.8 95.1703C330.862 94.0103 331.929 93.2621 333.354 93.3395C334.907 93.4238 335.801 94.1502 335.863 95.381L334.721 95.319C334.674 94.6752 334.127 94.2883 333.314 94.2442C332.528 94.2015 332.013 94.5858 331.982 95.1612C331.952 95.7 332.281 95.8919 332.977 96.0671L334.224 96.3821C335.281 96.641 335.892 97.2055 335.835 98.2558C335.771 99.4431 334.641 100.17 333.198 100.091C331.645 100.007 330.484 99.2936 330.443 97.8532ZM339.706 100.335C339.674 100.076 339.669 99.8288 339.681 99.6005C339.434 100.118 338.833 100.388 338.093 100.348C337.189 100.299 336.558 99.7607 336.604 98.9204C336.654 97.9888 337.406 97.6449 338.353 97.5864L339.749 97.5065L339.761 97.2873C339.792 96.721 339.46 96.4282 338.93 96.3994C338.419 96.3716 338.093 96.6379 338.033 97.0652L336.909 97.0042C337.064 96.0141 337.872 95.4718 339.014 95.5337C340.274 95.6021 340.963 96.235 340.898 97.4406L340.801 99.2307C340.777 99.66 340.776 100.017 340.829 100.396L339.706 100.335ZM338.457 99.5523C339.059 99.585 339.654 99.2601 339.694 98.5294L339.709 98.2463L338.671 98.309C338.174 98.3461 337.794 98.4354 337.767 98.9195C337.747 99.2848 337.991 99.527 338.457 99.5523ZM343.3 100.53L341.725 95.7908L342.903 95.8548L344.001 99.4228L344.019 99.4238L345.47 95.9941L346.611 96.0561L344.579 100.599L343.3 100.53ZM351.293 99.5163C351.038 100.501 350.177 101.013 349.118 100.955C347.766 100.882 346.819 99.9238 346.902 98.4077C346.984 96.8916 348.048 96.0241 349.354 96.095C350.806 96.1739 351.44 97.3167 351.373 98.5497L351.353 98.9241L348.019 98.7432C348.048 99.5691 348.443 100.058 349.164 100.097C349.694 100.126 350.036 99.8969 350.216 99.4578L351.293 99.5163ZM349.307 96.9627C348.695 96.9295 348.264 97.2816 348.097 97.9871L350.28 98.1056C350.311 97.5302 350.01 97.0009 349.307 96.9627ZM354.078 96.3423L354.121 95.5386C355.236 95.5991 355.69 95.3215 355.882 94.654L356.713 94.6991L356.358 101.238L355.153 101.173L355.411 96.4147L354.078 96.3423ZM360.322 97.9637C359.747 97.9325 359.348 98.1948 359.129 98.5035L358.042 98.4445L358.615 94.8207L362.524 95.0329L362.472 95.9919L359.43 95.8268L359.165 97.5162C359.426 97.2555 359.951 97.0276 360.563 97.0608C361.915 97.1342 362.73 98.1494 362.661 99.4281C362.592 100.688 361.634 101.635 360.127 101.553C358.657 101.473 357.761 100.591 357.729 99.3252L358.935 99.3907C358.952 100.079 359.409 100.598 360.177 100.64C361.017 100.685 361.462 100.087 361.5 99.3742C361.54 98.6527 361.171 98.0098 360.322 97.9637ZM363.629 96.5036C363.675 95.6633 364.397 95.0246 365.228 95.0697C366.059 95.1149 366.698 95.8274 366.653 96.6677C366.607 97.4988 365.895 98.138 365.064 98.0929C364.233 98.0478 363.584 97.3347 363.629 96.5036ZM368.802 95.3737L369.615 95.4178L364.942 101.695L364.129 101.651L368.802 95.3737ZM364.342 96.5422C364.317 97.008 364.663 97.3841 365.101 97.4079C365.539 97.4317 365.924 97.0953 365.949 96.6295C365.975 96.1637 365.629 95.7785 365.191 95.7547C364.752 95.7309 364.367 96.0764 364.342 96.5422ZM367.081 100.419C367.126 99.588 367.839 98.9397 368.67 98.9848C369.501 99.0299 370.14 99.7516 370.095 100.583C370.049 101.423 369.337 102.062 368.506 102.017C367.675 101.972 367.035 101.259 367.081 100.419ZM367.784 100.457C367.759 100.923 368.105 101.308 368.543 101.332C368.99 101.356 369.366 101.01 369.392 100.545C369.417 100.079 369.081 99.6941 368.633 99.6698C368.195 99.646 367.81 99.9915 367.784 100.457Z" fill="black"/>
</g>
</g>
</g>
</g>
</g>
<defs>
<filter id="filter0_d_3001_5450" x="9.45237" y="2.79776" width="288.298" height="186.523" filterUnits="userSpaceOnUse" color-interpolation-filters="sRGB">
<feFlood flood-opacity="0" result="BackgroundImageFix"/>
<feColorMatrix in="SourceAlpha" type="matrix" values="0 0 0 0 0 0 0 0 0 0 0 0 0 0 0 0 0 0 127 0" result="hardAlpha"/>
<feOffset/>
<feGaussianBlur stdDeviation="8.66667"/>
<feComposite in2="hardAlpha" operator="out"/>
<feColorMatrix type="matrix" values="0 0 0 0 0 0 0 0 0 0 0 0 0 0 0 0 0 0 0.12 0"/>
<feBlend mode="normal" in2="BackgroundImageFix" result="effect1_dropShadow_3001_5450"/>
<feBlend mode="normal" in="SourceGraphic" in2="effect1_dropShadow_3001_5450" result="shape"/>
</filter>
<filter id="filter1_d_3001_5450" x="118.586" y="48.2423" width="289.966" height="189.915" filterUnits="userSpaceOnUse" color-interpolation-filters="sRGB">
<feFlood flood-opacity="0" result="BackgroundImageFix"/>
<feColorMatrix in="SourceAlpha" type="matrix" values="0 0 0 0 0 0 0 0 0 0 0 0 0 0 0 0 0 0 127 0" result="hardAlpha"/>
<feOffset/>
<feGaussianBlur stdDeviation="8.66667"/>
<feComposite in2="hardAlpha" operator="out"/>
<feColorMatrix type="matrix" values="0 0 0 0 0 0 0 0 0 0 0 0 0 0 0 0 0 0 0.12 0"/>
<feBlend mode="normal" in2="BackgroundImageFix" result="effect1_dropShadow_3001_5450"/>
<feBlend mode="normal" in="SourceGraphic" in2="effect1_dropShadow_3001_5450" result="shape"/>
</filter>
<linearGradient id="paint0_linear_3001_5450" x1="202.106" y1="37.5992" x2="242.846" y2="68.4132" gradientUnits="userSpaceOnUse">
<stop stop-color="#D6E4E2"/>
<stop offset="0.494792" stop-color="#FFD6B8"/>
<stop offset="1" stop-color="#FFC3A9"/>
</linearGradient>
<linearGradient id="paint1_linear_3001_5450" x1="315.436" y1="89.3018" x2="353.297" y2="124.955" gradientUnits="userSpaceOnUse">
<stop stop-color="#D6E4E2"/>
<stop offset="0.494792" stop-color="#FFD6B8"/>
<stop offset="1" stop-color="#FFC3A9"/>
</linearGradient>
<clipPath id="clip0_3001_5450">
<rect width="416" height="160" fill="white" transform="translate(0.878296 0.885254)"/>
</clipPath>
<clipPath id="clip1_3001_5450">
<rect width="416" height="160" fill="white" transform="translate(0.878296 0.885254)"/>
</clipPath>
<clipPath id="clip2_3001_5450">
<rect width="416" height="160" fill="white" transform="translate(0.878296 0.885254)"/>
</clipPath>
</defs>
</svg>
