<svg width="201" height="97" viewBox="0 0 201 97" fill="none" xmlns="http://www.w3.org/2000/svg">
<g id="65a925a9c0a4b86dd533a0a1_Rare%20Seeds.svg">
<path id="Vector" d="M81.7911 50.2243C81.7843 50.4869 81.7395 50.7397 81.7567 50.9881C81.7552 52.4113 81.7678 53.8585 81.7665 55.2817C81.7694 55.5061 81.7725 55.7306 81.7516 55.9693C81.7197 56.4084 81.5371 56.6458 81.0899 56.6518C80.4951 56.6806 79.872 56.6614 79.2491 56.6423C78.9256 56.6398 78.7369 56.4283 78.7156 56.1176C78.7027 55.9312 78.6899 55.7448 78.6911 55.5826C78.6907 50.7017 78.6902 45.8209 78.6517 40.9302C78.6376 40.9062 78.6475 40.868 78.6714 40.8539C78.6985 39.8035 78.78 39.7229 79.8121 39.7261C81.9006 39.7185 83.9889 39.7108 86.0674 39.7412C87.1235 39.7303 88.0632 40.0146 88.895 40.7184C89.6887 41.4122 90.0005 42.3268 90.0548 43.2967C90.1177 44.3909 90.0808 45.4794 90.058 46.592C90.0326 48.0293 88.9824 49.75 87.1109 50.0172C86.9871 50.0259 86.8677 50.0965 86.7341 50.1433C87.1144 50.791 87.4709 51.4528 87.861 52.0623C88.6272 53.2575 89.4314 54.4623 90.1975 55.6575C90.5594 56.219 90.3517 56.6329 89.7189 56.6519C89.0622 56.6851 88.3872 56.632 87.7304 56.6652C87.4069 56.6627 87.2128 56.5513 87.034 56.3015C86.841 56.0278 86.6242 55.7683 86.4552 55.4804C85.5059 53.9735 84.5425 52.4425 83.5932 50.9355C82.9961 50.0283 82.9961 50.0283 81.7911 50.2243ZM81.7432 47.1818C81.8993 47.2833 81.9515 47.3171 81.9894 47.3269C83.2452 47.3271 84.4912 47.3654 85.7329 47.3417C86.4895 47.3141 86.9264 46.7969 86.9987 46.0429C87.046 45.4654 87.0174 44.8683 87.0266 44.2809C86.9986 42.9721 86.5975 42.563 85.2657 42.5431C84.2953 42.5356 83.325 42.5281 82.3687 42.5445C82.207 42.5433 82.0116 42.5943 81.7782 42.6355C81.7473 44.173 81.7403 45.6964 81.7432 47.1818Z" fill="black"/>
<path id="Vector_2" d="M57.9965 50.0786C58.3118 50.5912 58.5997 51.03 58.8876 51.4687C59.7376 52.7481 60.5877 54.0274 61.4126 55.2951C61.4903 55.3921 61.5566 55.5144 61.6343 55.6115C61.8486 56.0777 61.6639 56.4827 61.1932 56.5112C60.4377 56.562 59.6551 56.5389 58.9092 56.502C58.4868 56.4916 58.325 56.1108 58.1538 55.8176C57.3289 54.5499 56.5292 53.2937 55.7159 52.0007C55.3092 51.3542 54.8658 50.7213 54.4067 49.9894C54.0348 50.0021 53.6008 50.0169 53.1302 50.0454C53.125 50.9926 53.1157 51.8153 53.1315 52.6496C53.1285 53.6591 53.1507 54.6801 53.1361 55.7148C53.1225 56.4131 53.0143 56.5165 52.3325 56.5396C51.8734 56.5429 51.4142 56.5461 50.9551 56.5493C50.2228 56.5494 50.081 56.3923 50.0673 55.6202C50.0535 54.8482 50.065 54.0876 50.0513 53.3156C50.0434 49.0543 50.0356 44.7931 50.0026 40.5202C50.0003 39.7228 50.1453 39.6058 50.9396 39.6035C52.9619 39.5843 54.9476 39.5788 56.97 39.5596C57.7642 39.5574 58.5353 39.6059 59.2666 39.9423C60.3005 40.4178 60.9225 41.1941 61.2315 42.2551C61.2746 42.4281 61.3428 42.6127 61.3356 42.7625C61.3451 44.1452 61.4167 45.5259 61.2888 46.876C61.1418 48.4012 60.1681 49.3316 58.7183 49.7674C58.4998 49.9119 58.2907 49.969 57.9965 50.0786ZM53.0606 47.2567C54.4999 47.2449 55.8289 47.2743 57.1536 47.1792C57.909 47.1285 58.3008 46.6042 58.3239 45.8184C58.3416 45.2446 58.3342 44.6592 58.3268 44.0738C58.2983 42.8661 57.8475 42.3832 56.6561 42.3865C55.6875 42.3696 54.7325 42.3898 53.7524 42.3984C53.5411 42.3931 53.3321 42.4501 53.0358 42.4976C53.0518 44.067 53.0541 45.5996 53.0606 47.2567Z" fill="black"/>
<path id="Vector_3" d="M149.29 56.5641C149.269 56.0879 149.218 55.665 149.219 55.2743C149.256 53.3221 149.29 51.3978 149.298 49.4436C149.317 46.5966 149.335 43.7774 149.354 40.9305C149.352 40.5952 149.406 40.264 149.436 39.8475C149.746 39.7873 150.029 39.725 150.309 39.7183C152.423 39.7114 154.535 39.7322 156.645 39.7808C157.257 39.7994 157.862 39.8733 158.46 40.0583C159.876 40.4731 160.777 41.4352 161.115 42.8571C161.262 43.4827 161.325 44.1297 161.307 44.7428C161.311 46.8935 161.316 49.0441 161.266 51.1905C161.26 52 161.252 52.8372 161.026 53.6298C160.489 55.5997 159.132 56.6137 157.041 56.6782C155.731 56.7183 154.396 56.7008 153.064 56.6832C152.118 56.6673 151.174 56.6514 150.229 56.6355C149.981 56.6166 149.704 56.5956 149.29 56.5641ZM152.464 53.9289C153.912 53.8994 155.357 53.9253 156.808 53.8679C157.115 53.8632 157.469 53.583 157.709 53.3499C158.129 52.935 158.201 52.3541 158.19 51.7667C158.203 50.1202 158.242 48.5033 158.254 46.8566C158.26 46.0472 158.294 45.2121 158.245 44.3985C158.143 43.162 157.519 42.584 156.243 42.5429C155.187 42.5186 154.158 42.5241 153.103 42.4998C152.909 42.4852 152.709 42.5537 152.542 42.5689C152.317 43.3338 152.22 53.1005 152.464 53.9289Z" fill="black"/>
<path id="Vector_4" d="M75.9169 56.3516C75.766 56.5265 75.5073 56.4968 75.2857 56.5086C74.8148 56.5335 74.3701 56.5293 73.8978 56.5265C73.1485 56.5383 72.9998 56.351 73.0172 55.625C73.03 54.2859 73.0166 52.976 73.0294 51.6368C73.0164 51.3865 73.0032 51.1362 72.9856 50.8026C72.261 50.7574 71.621 50.7356 70.9534 50.7151C70.0918 50.7051 69.2302 50.695 68.3425 50.7142C67.6209 50.7247 67.4883 50.8432 67.4986 51.5676C67.5134 52.9053 67.5268 54.2152 67.5417 55.5529C67.5593 56.4165 67.4544 56.5336 66.5914 56.4957C66.1744 56.4899 65.7867 56.5104 65.3698 56.5048C64.6758 56.5136 64.5315 56.4098 64.5241 55.7409C64.499 54.2085 64.5016 52.6748 64.4765 51.1424C64.4867 50.8072 64.5245 50.4706 64.5069 50.1369C64.4962 47.8229 64.4841 45.4812 64.4734 43.1673C64.4792 42.7487 64.5389 42.2994 64.6555 41.875C65.059 40.5708 65.9641 39.8257 67.3169 39.6702C68.0065 39.5779 68.7018 39.5968 69.3681 39.5893C70.2835 39.5686 71.2004 39.5758 72.1174 39.5829C72.5898 39.5858 73.0912 39.615 73.5694 39.729C75.0578 40.0404 75.9794 41.1907 76.0381 42.8327C76.101 44.0285 76.0531 45.2301 76.0607 46.4287C76.0753 47.2367 76.0639 48.0739 76.0786 48.8817C76.0616 51.1971 76.046 53.5403 76.029 55.8557C76.0364 55.9948 76.0059 56.2485 75.9169 56.3516ZM67.6378 47.8794C67.9162 47.8925 68.1408 47.9364 68.3624 47.9247C69.6962 47.9375 71.0024 47.9519 72.3362 47.9648C72.864 47.9646 72.9981 47.874 73.0272 47.3704C73.0692 46.0576 73.082 44.7184 73.0672 43.3808C73.0598 42.7119 72.6239 42.3447 71.9008 42.3272C70.8439 42.2997 69.7607 42.3012 68.7067 42.3293C67.902 42.3441 67.5901 42.751 67.5772 43.5604C67.5612 44.3142 67.5468 45.0957 67.5586 45.8479C67.5384 46.5183 67.5998 47.1564 67.6378 47.8794Z" fill="black"/>
<path id="Vector_5" d="M120.743 44.8526C120.468 44.8931 120.226 44.9571 119.975 44.9661C119.473 44.9839 118.943 45.0059 118.437 44.9962C117.986 44.9784 117.789 44.7823 117.779 44.3335C117.759 44.1956 117.798 44.0773 117.777 43.9396C117.743 43.1285 117.152 42.5403 116.336 42.5201C115.465 42.508 114.594 42.496 113.728 42.5114C112.888 42.5229 112.396 42.9896 112.317 43.7894C112.252 44.3056 112.243 44.8137 112.26 45.3177C112.284 46.243 112.749 46.7372 113.683 46.7963C114.699 46.8433 115.703 46.8075 116.742 46.8228C117.417 46.8356 118.073 46.9077 118.674 47.1848C119.727 47.6765 120.409 48.5046 120.634 49.6536C120.866 50.8577 120.879 52.0942 120.724 53.3275C120.485 55.333 119.121 56.5478 117.141 56.6152C115.744 56.6526 114.348 56.69 112.935 56.6172C110.507 56.4976 109.277 54.9905 109.22 52.6909C109.175 51.4309 109.23 51.4227 110.466 51.4372C110.858 51.4355 111.223 51.4379 111.615 51.4363C112.066 51.454 112.232 51.6267 112.273 52.099C112.281 52.1542 112.262 52.2133 112.266 52.2409C112.251 53.2845 112.838 53.8452 113.85 53.8645C114.579 53.8694 115.336 53.8701 116.066 53.8748C117.239 53.8423 117.774 53.2848 117.769 52.1034C117.756 51.8238 117.77 51.5402 117.758 51.2606C117.76 50.1344 117.198 49.5421 116.075 49.5389C115.259 49.5188 114.455 49.5812 113.639 49.5611C113.078 49.5595 112.514 49.5304 111.987 49.3829C110.503 49.0112 109.632 48.0421 109.355 46.535C109.15 45.3269 109.164 44.0863 109.293 42.857C109.459 41.3126 110.599 40.1027 112.132 39.8481C112.763 39.755 113.402 39.7168 114.045 39.7062C115.108 39.6898 116.199 39.6695 117.242 39.7123C118.8 39.82 119.941 40.524 120.5 42.0458C120.833 42.9815 120.871 43.8202 120.743 44.8526Z" fill="black"/>
<path id="Vector_6" d="M175.107 44.8526C174.832 44.8931 174.59 44.9571 174.339 44.9661C173.836 44.9839 173.307 45.0059 172.801 44.9962C172.35 44.9784 172.152 44.7823 172.143 44.3335C172.123 44.1956 172.161 44.0773 172.141 43.9396C172.107 43.1285 171.516 42.5403 170.7 42.5201C169.828 42.508 168.958 42.496 168.091 42.5114C167.251 42.5229 166.759 42.9896 166.681 43.7894C166.616 44.3056 166.606 44.8137 166.624 45.3177C166.648 46.243 167.112 46.7372 168.046 46.7963C169.062 46.8433 170.066 46.8075 171.106 46.8228C171.781 46.8356 172.436 46.9077 173.037 47.1848C174.091 47.6765 174.773 48.5046 174.998 49.6536C175.229 50.8577 175.243 52.0942 175.087 53.3275C174.849 55.333 173.484 56.5478 171.504 56.6152C170.108 56.6526 168.711 56.69 167.299 56.6172C164.87 56.4976 163.64 54.9905 163.584 52.6909C163.539 51.4309 163.594 51.4227 164.829 51.4372C165.221 51.4355 165.586 51.4379 165.978 51.4363C166.429 51.454 166.595 51.6267 166.636 52.099C166.644 52.1542 166.625 52.2133 166.629 52.2409C166.615 53.2845 167.201 53.8452 168.214 53.8645C168.943 53.8694 169.7 53.8701 170.429 53.8748C171.602 53.8423 172.137 53.2848 172.132 52.1034C172.119 51.8238 172.134 51.5402 172.12 51.2606C172.124 50.1344 171.56 49.5421 170.439 49.5389C169.623 49.5188 168.819 49.5812 168.003 49.5611C167.442 49.5595 166.877 49.5304 166.351 49.3829C164.867 49.0112 163.995 48.0421 163.718 46.535C163.514 45.3269 163.528 44.0863 163.656 42.857C163.823 41.3126 164.962 40.1027 166.495 39.8481C167.126 39.755 167.766 39.7168 168.409 39.7062C169.471 39.6898 170.562 39.6695 171.606 39.7123C173.164 39.82 174.303 40.524 174.864 42.0458C175.196 42.9815 175.235 43.8202 175.107 44.8526Z" fill="black"/>
<path id="Vector_7" d="M102.965 39.7213C103.242 39.7372 103.162 41.3201 103.114 42.2549C102.949 42.4067 102.377 42.368 102.054 42.3547C100.292 42.3585 98.5302 42.3625 96.7917 42.3817C96.4917 42.3837 96.1997 42.4242 95.7844 42.4501C95.7936 43.8557 95.7869 45.1842 95.7809 46.6131C96.0504 46.6576 96.2816 46.7101 96.4816 46.7088C97.8048 46.7155 99.1433 46.699 100.466 46.7057C100.643 46.6891 100.828 46.711 100.99 46.7176C101.521 46.7682 101.629 46.9065 101.664 47.4624C101.69 47.8792 101.692 48.2808 101.656 48.6905C101.637 49.2775 101.523 49.4018 100.931 49.4445C100.054 49.4657 99.1537 49.4716 98.2537 49.4775C97.6537 49.4815 97.0921 49.4775 96.492 49.4815C96.2536 49.4907 96.0616 49.5306 95.7464 49.5559C95.7403 50.9848 95.78 52.3438 95.7892 53.7495C96.074 53.7707 96.2819 53.808 96.4819 53.8066C98.282 53.7947 100.105 53.7981 101.905 53.7863C102.144 53.777 102.367 53.7909 102.59 53.8049C102.952 53.8103 103.176 54.025 103.171 54.3881C103.183 55.029 103.172 55.5788 103.146 56.3282C103.127 56.66 102.124 56.5962 101.662 56.5915C99.0004 56.6013 96.3156 56.5958 93.654 56.6057C92.854 56.611 92.7069 56.4807 92.7016 55.6775C92.684 50.6342 92.6511 45.6142 92.6334 40.5709C92.6282 39.7678 92.7507 39.682 93.5123 39.6847C96.4124 39.6656 99.3125 39.6464 102.22 39.6658C102.55 39.685 102.719 39.692 102.965 39.7213Z" fill="black"/>
<path id="Vector_8" d="M133.753 39.7213C134.031 39.7372 133.951 41.3201 133.903 42.2549C133.737 42.4067 133.165 42.368 132.842 42.3547C131.081 42.3585 129.318 42.3625 127.581 42.3817C127.281 42.3837 126.989 42.4242 126.573 42.4501C126.582 43.8557 126.575 45.1842 126.569 46.6131C126.839 46.6576 127.07 46.7101 127.27 46.7088C128.593 46.7155 129.932 46.699 131.254 46.7057C131.432 46.6891 131.617 46.711 131.778 46.7176C132.309 46.7682 132.418 46.9065 132.452 47.4624C132.478 47.8792 132.481 48.2808 132.445 48.6905C132.426 49.2775 132.311 49.4018 131.719 49.4445C130.842 49.4657 129.942 49.4716 129.042 49.4775C128.442 49.4815 127.881 49.4775 127.281 49.4815C127.042 49.4907 126.85 49.5306 126.535 49.5559C126.528 50.9848 126.568 52.3438 126.577 53.7495C126.862 53.7707 127.07 53.808 127.27 53.8066C129.07 53.7947 130.893 53.7981 132.694 53.7863C132.932 53.777 133.156 53.7909 133.378 53.8049C133.74 53.8103 133.965 54.025 133.959 54.3881C133.971 55.029 133.96 55.5788 133.935 56.3282C133.916 56.66 132.912 56.5962 132.451 56.5915C129.789 56.6013 127.104 56.5958 124.442 56.6057C123.642 56.611 123.495 56.4807 123.49 55.6775C123.473 50.6342 123.44 45.6142 123.421 40.5709C123.417 39.7678 123.539 39.682 124.301 39.6847C127.201 39.6656 130.101 39.6464 133.009 39.6658C133.339 39.685 133.507 39.692 133.753 39.7213Z" fill="black"/>
<path id="Vector_9" d="M146.516 39.7213C146.792 39.7372 146.712 41.3201 146.665 42.2549C146.5 42.4067 145.927 42.368 145.603 42.3547C143.842 42.3585 142.081 42.3625 140.342 42.3817C140.042 42.3837 139.75 42.4242 139.335 42.4501C139.344 43.8557 139.337 45.1842 139.332 46.6131C139.601 46.6576 139.832 46.7101 140.032 46.7088C141.356 46.7155 142.693 46.699 144.017 46.7057C144.193 46.6891 144.378 46.711 144.54 46.7176C145.071 46.7682 145.179 46.9065 145.215 47.4624C145.24 47.8792 145.243 48.2808 145.207 48.6905C145.187 49.2775 145.073 49.4018 144.481 49.4445C143.604 49.4657 142.704 49.4716 141.804 49.4775C141.204 49.4815 140.642 49.4775 140.042 49.4815C139.804 49.4907 139.612 49.5306 139.296 49.5559C139.291 50.9848 139.331 52.3438 139.34 53.7495C139.624 53.7707 139.832 53.808 140.032 53.8066C141.832 53.7947 143.656 53.7981 145.456 53.7863C145.694 53.777 145.917 53.7909 146.141 53.8049C146.502 53.8103 146.726 54.025 146.721 54.3881C146.733 55.029 146.723 55.5788 146.696 56.3282C146.677 56.66 145.674 56.5962 145.212 56.5915C142.551 56.6013 139.866 56.5958 137.204 56.6057C136.404 56.611 136.257 56.4807 136.252 55.6775C136.234 50.6342 136.201 45.6142 136.184 40.5709C136.178 39.7678 136.301 39.682 137.062 39.6847C139.962 39.6656 142.862 39.6464 145.77 39.6658C146.101 39.685 146.269 39.692 146.516 39.7213Z" fill="black"/>
<path id="Vector_10" d="M35.2202 58.8622C29.5265 58.9058 24.7203 54.2435 24.742 48.3099C24.7636 42.5718 29.3641 37.8335 35.2094 37.8335C41.0547 37.8335 45.785 42.6044 45.6876 48.538C45.5902 54.287 40.9032 58.8949 35.2202 58.8622ZM40.5784 43.9302C40.3727 43.9519 40.1238 43.9628 39.8965 44.0062C38.998 44.1367 38.2727 44.5605 37.7424 45.3104C37.6125 45.4843 37.4826 45.6582 37.3418 45.832C37.1038 46.1363 36.8548 46.4407 36.6166 46.7449C36.3784 47.0601 36.3784 47.1578 36.6058 47.4621C36.7573 47.6686 36.8872 47.886 36.9089 48.136C36.9305 48.4511 37.082 48.6467 37.3851 48.7554C37.8615 48.9293 38.3269 49.1141 38.8032 49.2879C39.2578 49.4509 39.7233 49.5596 40.2103 49.5161C40.7408 49.4727 41.2388 49.3313 41.7258 49.1032C42.5809 48.7011 43.2413 48.1034 43.6418 47.2557C43.9016 46.7015 44.1181 46.1146 44.3453 45.5495C44.4211 45.3538 44.3994 45.2886 44.2263 45.1691C44.0964 45.0713 43.9557 44.9952 43.8258 44.9083C42.8408 44.2345 41.7475 44.0171 40.5784 43.9302ZM37.829 42.8543C37.8615 41.8653 37.5259 40.9416 36.8006 40.17C36.4001 39.7462 35.9455 39.3658 35.5125 38.9637C35.296 38.7682 35.1985 38.7572 34.9605 38.9202C34.495 39.2462 34.0403 39.5941 33.694 40.0396C32.8713 41.1046 32.2326 42.2349 32.4058 43.6476C32.4816 44.2453 32.644 44.7996 33.0336 45.2669C33.2826 45.5712 33.5641 45.832 33.8131 46.1363C34.246 46.6688 34.7981 46.8753 35.48 46.8101C35.7073 46.7884 35.913 46.7341 36.0753 46.571C36.5841 46.0602 37.0388 45.506 37.3851 44.8757C37.7315 44.2888 37.829 43.6151 37.829 42.8543ZM29.797 44.1476C29.5806 44.1693 29.3641 44.191 29.1476 44.2236C28.0868 44.3322 27.1234 44.6909 26.2683 45.343C26.0301 45.5277 25.9976 45.582 26.1059 45.8646C26.2358 46.2124 26.3657 46.5602 26.5173 46.8862C26.6905 47.2557 26.8528 47.636 27.0693 47.9729C27.5456 48.7011 28.2383 49.1575 29.0393 49.4618C29.6131 49.6792 30.2084 49.7987 30.8147 49.6357C31.6265 49.4184 32.4275 49.1575 33.2393 48.9184C33.4991 48.8424 33.5641 48.625 33.6182 48.3968C33.694 48.0925 33.7698 47.7774 33.8888 47.484C33.997 47.223 33.9753 47.0058 33.7806 46.7993C33.4883 46.4841 33.196 46.169 32.9038 45.8537C32.6765 45.6038 32.46 45.343 32.2001 45.1257C31.5182 44.5388 30.7389 44.1584 29.797 44.1476ZM41.2711 54.0587C41.2603 53.9067 41.2388 53.7653 41.2278 53.6132C41.1955 52.8199 41.0114 52.0592 40.6433 51.3419C40.3402 50.7333 39.8748 50.2551 39.2686 49.9834C38.63 49.7009 37.9589 49.4727 37.2985 49.2336C37.082 49.1575 36.8439 49.1684 36.7032 49.3749C36.4867 49.6792 36.2161 49.8965 35.9239 50.1029C35.6207 50.3203 35.4908 50.6355 35.48 51.005C35.48 51.5593 35.4692 52.1244 35.4908 52.6786C35.5017 52.9394 35.5341 53.222 35.6316 53.4719C36.2161 54.8738 37.2336 55.7759 38.7491 56.0367C39.3552 56.1453 39.9723 56.1453 40.5892 56.1888C40.7841 56.1997 40.8599 56.1345 40.9356 55.8954C41.1413 55.3086 41.2603 54.7 41.2711 54.0587ZM35.0038 51.7766C35.0145 51.5267 35.0038 51.2767 35.0145 51.0267C35.047 50.5594 34.863 50.2443 34.43 50.0486C34.2785 49.9834 34.1269 49.8965 33.997 49.7878C33.5965 49.4401 33.1527 49.4075 32.6873 49.5596C32.2001 49.7226 31.7023 49.8747 31.2259 50.0595C30.5981 50.2986 30.0677 50.6572 29.743 51.2876C29.4182 51.9178 29.2775 52.6025 29.2126 53.298C29.1368 54.1132 29.2017 54.9065 29.494 55.6889C29.6131 56.0258 29.6456 56.0693 30.0027 56.0476C30.4791 56.015 30.9553 55.9932 31.4316 55.928C31.778 55.8845 32.1135 55.8085 32.4491 55.6997C33.2934 55.4172 33.9105 54.8304 34.4192 54.124C34.7115 53.711 34.9713 53.2654 35.0145 52.7329C35.0253 52.4178 35.0038 52.1026 35.0038 51.7766ZM36.4001 48.538C36.4217 47.7774 36.1836 47.4187 35.5991 47.31C34.8847 47.1796 34.2893 47.4513 34.1161 48.2772C34.0944 48.3968 34.0836 48.5163 34.0836 48.6359C34.0728 49.0815 34.3218 49.4727 34.7331 49.6574C35.2202 49.8747 35.7073 49.8095 36.032 49.4944C36.3135 49.2118 36.4109 48.8641 36.4001 48.538Z" fill="black"/>
<path id="Vector_11" d="M38.2172 47.9288C38.0115 47.8962 37.8275 47.8745 37.6651 47.8202C37.4594 47.755 37.3836 47.6137 37.5027 47.4289C37.6542 47.1898 37.8275 46.9508 38.044 46.7551C38.4119 46.4073 38.8774 46.2009 39.3753 46.1465C39.7867 46.103 40.2089 46.103 40.6202 46.103C40.7501 46.103 40.88 46.1466 40.9882 46.19C41.2156 46.2878 41.2589 46.4726 41.1073 46.6791C41.064 46.7443 40.9991 46.7986 40.9449 46.8529C40.3713 47.3528 39.7326 47.7114 38.9749 47.8528C38.7259 47.9071 38.4661 47.9071 38.2172 47.9288ZM38.2713 47.3528C38.7692 47.5702 40.079 47.1137 40.3605 46.5921C39.8841 46.5269 39.4511 46.5595 39.0182 46.7226C38.5418 46.9181 38.3363 47.092 38.2713 47.3528Z" fill="black"/>
<path id="Vector_12" d="M35.9107 44.4187C35.8998 44.9295 35.7916 45.4077 35.5967 45.8749C35.5209 46.0488 35.4343 46.2445 35.2286 46.2554C35.0122 46.2662 34.9148 46.0814 34.8282 45.9185C34.5359 45.3641 34.341 44.7882 34.3627 44.147C34.3843 43.5711 34.6225 43.0603 34.9148 42.593C35.0664 42.343 35.3261 42.3539 35.456 42.6256C35.6184 42.9624 35.7374 43.3211 35.8457 43.6906C35.889 43.9188 35.8782 44.1688 35.9107 44.4187ZM35.1638 45.3968C35.5318 44.9512 35.4993 43.6797 35.1205 43.3103C34.8607 43.5493 34.8498 43.8754 34.8282 44.1796C34.7957 44.6144 34.839 45.0273 35.1638 45.3968Z" fill="black"/>
<path id="Vector_13" d="M32.1343 48.2117C31.0085 48.1792 30.2616 47.7336 29.7095 46.9185C29.5472 46.6794 29.623 46.4838 29.8936 46.4186C30.9977 46.1686 32.0044 46.3643 32.827 47.201C32.9136 47.288 32.9894 47.3858 33.0435 47.4836C33.2059 47.7553 33.141 47.9727 32.8378 48.0704C32.5781 48.1466 32.2858 48.1792 32.1343 48.2117ZM32.459 47.6031C32.4266 47.527 32.4157 47.4836 32.3941 47.4619C32.3616 47.4184 32.3183 47.375 32.275 47.3314C31.8203 46.9511 31.3008 46.7663 30.7162 46.8099C30.6297 46.8206 30.4998 46.875 30.489 46.9402C30.4673 47.0054 30.5323 47.125 30.5972 47.1902C31.0518 47.5814 31.5714 47.7879 32.1776 47.7227C32.2642 47.7118 32.3508 47.6466 32.459 47.6031Z" fill="black"/>
<path id="Vector_14" d="M38.9988 53.1349C38.9988 53.1567 38.9988 53.1784 38.9988 53.2001C38.988 53.6892 38.7823 53.8088 38.3709 53.5588C37.8839 53.2654 37.5375 52.8307 37.2019 52.3742C36.8989 51.9613 36.6607 51.5157 36.5416 51.0158C36.5091 50.8744 36.4983 50.7224 36.5091 50.5702C36.5308 50.2876 36.7581 50.1355 37.0396 50.2224C37.4725 50.3529 37.8189 50.6246 38.1221 50.9397C38.6524 51.5048 38.988 52.3416 38.9988 53.1349ZM37.2127 50.8637C37.1911 50.8854 37.1694 50.8963 37.1369 50.918C37.1477 51.0266 37.1369 51.1354 37.1694 51.2331C37.3426 51.8417 37.6999 52.3307 38.1653 52.7655C38.2194 52.8089 38.3385 52.8524 38.3601 52.8307C38.4142 52.7763 38.4359 52.6893 38.4576 52.6024C38.4684 52.5807 38.4576 52.5481 38.4467 52.5155C38.2735 51.9069 37.9597 51.3852 37.4617 50.994C37.3859 50.9289 37.2993 50.9071 37.2127 50.8637Z" fill="black"/>
<path id="Vector_15" d="M31.4758 52.7769C31.6057 51.7444 32.2335 50.6034 33.4567 50.3534C33.8247 50.2774 33.9655 50.4186 33.9005 50.7882C33.684 51.9184 33.0128 52.6574 31.9846 53.1029C31.9738 53.1029 31.9628 53.1137 31.952 53.1137C31.6057 53.2442 31.4758 53.1463 31.4758 52.7769ZM32.1036 52.3857C32.3742 52.3965 32.7531 52.103 33.0561 51.6575C33.1969 51.451 33.3376 51.2445 33.2835 50.962C32.7531 51.0597 32.0927 51.8532 32.1036 52.3857Z" fill="black"/>
</g>
</svg>
