<svg width="150" height="56" viewBox="0 0 150 56" fill="none" xmlns="http://www.w3.org/2000/svg">
<g id="6556297cfadaec9c4d369842_Shopify.svg">
<path id="Vector" d="M62.4333 28.9974C61.6721 28.5752 61.2716 28.2336 61.2716 27.7511C61.2716 27.1281 61.8124 26.7462 62.6737 26.7462C63.6752 26.7462 64.5565 27.1683 64.5565 27.1683L65.2576 25.0177C65.2576 25.0177 64.6167 24.5151 62.7138 24.5151C60.0698 24.5151 58.2269 26.0428 58.2269 28.1732C58.2269 29.3792 59.0882 30.3037 60.23 30.9671C61.1514 31.4896 61.4719 31.8716 61.4719 32.4142C61.4719 32.9971 61.0112 33.4594 60.1499 33.4594C58.8679 33.4594 57.6661 32.7961 57.6661 32.7961L56.925 34.9467C56.925 34.9467 58.0467 35.6905 59.9096 35.6905C62.6337 35.6905 64.5766 34.3438 64.5766 31.9318C64.6167 30.6053 63.6152 29.6807 62.4333 28.9974Z" fill="#D6E4E2"/>
<path id="Vector_2" d="M73.288 24.4749C71.946 24.4749 70.9045 25.1181 70.0831 26.083L70.0431 26.0628L71.2049 19.9526H68.1603L65.2158 35.4894H68.2404L69.2419 30.1831C69.6425 28.1733 70.664 26.9472 71.6255 26.9472C72.3066 26.9472 72.5669 27.4095 72.5669 28.0727C72.5669 28.4948 72.5268 28.9974 72.4267 29.4194L71.285 35.5095H74.3096L75.4914 29.2386C75.6316 28.5752 75.7117 27.7913 75.7117 27.2487C75.7518 25.5 74.8704 24.4749 73.288 24.4749Z" fill="#D6E4E2"/>
<path id="Vector_3" d="M82.6032 24.4753C78.9576 24.4753 76.5339 27.7717 76.5339 31.4498C76.5339 33.8015 77.9761 35.7109 80.7002 35.7109C84.2857 35.7109 86.6893 32.495 86.6893 28.7364C86.7093 26.5456 85.4475 24.4753 82.6032 24.4753ZM81.1209 33.3593C80.0794 33.3593 79.6586 32.4749 79.6586 31.3694C79.6586 29.6208 80.56 26.7868 82.2026 26.7868C83.2842 26.7868 83.6247 27.7113 83.6247 28.6158C83.6247 30.5051 82.7233 33.3593 81.1209 33.3593Z" fill="#D6E4E2"/>
<path id="Vector_4" d="M94.4658 24.4753C92.4228 24.4753 91.261 26.2844 91.261 26.2844H91.221L91.4013 24.6563H88.7171C88.5769 25.7617 88.3366 27.4299 88.0962 28.6962L85.993 39.791H89.0176L89.8588 35.2888H89.919C89.919 35.2888 90.5399 35.6908 91.7017 35.6908C95.2671 35.6908 97.5907 32.0328 97.5907 28.3344C97.5907 26.3044 96.6893 24.4753 94.4658 24.4753ZM91.5814 33.4195C90.8003 33.4195 90.3396 32.9773 90.3396 32.9773L90.8404 30.1433C91.2009 28.254 92.1824 26.9878 93.224 26.9878C94.1454 26.9878 94.4259 27.8521 94.4259 28.656C94.4259 30.6057 93.2641 33.4195 91.5814 33.4195Z" fill="#D6E4E2"/>
<path id="Vector_5" d="M101.91 20.1138C100.948 20.1138 100.167 20.8775 100.167 21.8825C100.167 22.787 100.728 23.41 101.589 23.41H101.629C102.571 23.41 103.392 22.7668 103.412 21.6413C103.432 20.7368 102.831 20.1138 101.91 20.1138Z" fill="#D6E4E2"/>
<path id="Vector_6" d="M97.663 35.4893H100.708L102.771 24.7161H99.706L97.663 35.4893Z" fill="#D6E4E2"/>
<path id="Vector_7" d="M110.463 24.6962H108.36L108.461 24.1936C108.641 23.1485 109.242 22.2239 110.263 22.2239C110.804 22.2239 111.224 22.3847 111.224 22.3847L111.825 20.0129C111.825 20.0129 111.304 19.7517 110.183 19.7517C109.102 19.7517 108.04 20.0531 107.218 20.7567C106.177 21.641 105.696 22.9073 105.456 24.1936L105.376 24.6962H103.974L103.533 26.9874H104.935L103.333 35.4894H106.357L107.96 26.9874H110.043L110.463 24.6962Z" fill="#D6E4E2"/>
<path id="Vector_8" d="M117.751 24.7161C117.751 24.7161 115.848 29.4997 115.007 32.1127H114.967C114.907 31.2685 114.225 24.7161 114.225 24.7161H111.041L112.864 34.6049C112.904 34.8261 112.883 34.9667 112.804 35.1075C112.443 35.7908 111.862 36.4542 111.161 36.9365C110.6 37.3586 109.959 37.6199 109.459 37.8007L110.3 40.3735C110.921 40.2328 112.182 39.7303 113.264 38.7254C114.647 37.4189 115.929 35.4291 117.23 32.6955L120.936 24.7161H117.751Z" fill="#D6E4E2"/>
<path id="Vector_9" d="M46.4811 17.7217C46.4811 17.7217 46.2007 17.8021 45.7399 17.9427C45.6599 17.6815 45.5396 17.3799 45.3795 17.0584C44.8586 16.0534 44.0775 15.5107 43.156 15.5107C43.0959 15.5107 43.0359 15.5107 42.9557 15.5308C42.9357 15.4906 42.8957 15.4705 42.8756 15.4303C42.475 14.9881 41.9542 14.7871 41.3333 14.8073C40.1314 14.8475 38.9297 15.7118 37.9682 17.2594C37.2871 18.3448 36.7664 19.7115 36.6262 20.7768C35.244 21.1988 34.2826 21.5004 34.2626 21.5204C33.5615 21.7416 33.5415 21.7616 33.4614 22.4249C33.4012 22.9275 31.5585 37.0773 31.5585 37.0773L46.7014 39.7103V17.7015C46.5812 17.7015 46.5212 17.7217 46.4811 17.7217ZM42.9757 18.807C42.1746 19.0482 41.2932 19.3296 40.4319 19.5909C40.6722 18.6462 41.153 17.7015 41.7138 17.0785C41.9342 16.8574 42.2346 16.5961 42.5751 16.4353C42.9157 17.1589 42.9958 18.1438 42.9757 18.807ZM41.3333 15.6314C41.6137 15.6314 41.8541 15.6916 42.0544 15.8122C41.7339 15.973 41.4134 16.2344 41.1129 16.5358C40.3518 17.3599 39.7709 18.6462 39.5305 19.8723C38.8094 20.0934 38.0883 20.3145 37.4274 20.5155C37.868 18.586 39.4905 15.6716 41.3333 15.6314ZM39.0098 26.686C39.0898 27.9723 42.475 28.2537 42.6753 31.2887C42.8155 33.6805 41.4134 35.3086 39.3903 35.4292C36.9466 35.59 35.6046 34.1429 35.6046 34.1429L36.1254 31.9319C36.1254 31.9319 37.4674 32.957 38.549 32.8766C39.2501 32.8364 39.5105 32.2535 39.4905 31.8515C39.3903 30.1632 36.6262 30.2637 36.4459 27.49C36.2856 25.1584 37.8079 22.8068 41.173 22.5857C42.475 22.5053 43.136 22.8269 43.136 22.8269L42.3748 25.7213C42.3748 25.7213 41.5135 25.3193 40.492 25.3997C39.0098 25.5001 38.9897 26.4448 39.0098 26.686ZM43.777 18.5658C43.777 17.9629 43.6968 17.0986 43.4164 16.375C44.3378 16.5559 44.7785 17.5809 44.9788 18.2041C44.6183 18.3046 44.2177 18.4252 43.777 18.5658Z" fill="#D6E4E2"/>
<path id="Vector_10" d="M47.1603 39.6703L53.4498 38.1025C53.4498 38.1025 50.7457 19.7518 50.7257 19.6312C50.7056 19.5106 50.6055 19.4302 50.5053 19.4302C50.4052 19.4302 48.6425 19.39 48.6425 19.39C48.6425 19.39 47.5609 18.3448 47.1603 17.9429V39.6703Z" fill="#D6E4E2"/>
</g>
</svg>
