<svg width="201" height="97" viewBox="0 0 201 97" fill="none" xmlns="http://www.w3.org/2000/svg">
<g id="65561e20a2d06751ed291953_simpletire.svg">
<path id="Vector" fill-rule="evenodd" clip-rule="evenodd" d="M41.9745 48.1814V60.5626C47.8065 59.7626 52.1831 54.6791 52.1831 48.6659C52.1831 48.5045 52.1802 48.343 52.1736 48.1814H41.9745ZM54.6948 44.9607L54.7229 45.0734C55.0084 46.2378 55.152 47.4462 55.152 48.6659C55.1474 56.9476 48.5239 63.6857 40.3895 63.6857C33.2017 63.6857 27.1754 58.5355 25.8891 51.3928H28.9237C30.0308 56.2529 33.9351 59.8979 38.8083 60.5626V48.1814H25.6431V48.0349C25.9839 39.9486 32.4609 33.6387 40.3895 33.6387C45.9473 33.6387 50.922 36.74 53.4732 41.7504H50.0215C47.8093 38.5532 44.2525 36.6574 40.3895 36.6574C35.2336 36.6574 30.7501 39.9842 29.1689 44.9561L54.6948 44.9607ZM67.124 43.4208C65.4685 43.4208 64.6423 43.9786 64.6423 45.0922C64.6423 45.5899 64.8469 45.9655 65.2553 46.2265C65.6639 46.4875 66.6272 46.8697 68.1342 47.3607C69.6478 47.8584 70.707 48.4142 71.3117 49.0415C71.9202 49.6669 72.2225 50.6312 72.2225 51.9316C72.2225 53.5853 71.7295 54.8388 70.7408 55.6875C69.7522 56.5401 68.4639 56.9627 66.8714 56.9627C65.6873 56.9627 64.2357 56.7749 62.5201 56.4049L61.6985 56.2434L62.0187 53.7608C64.0553 54.0388 65.6103 54.1787 66.6901 54.1787C68.2985 54.1787 69.1042 53.4979 69.1042 52.1326C69.1042 51.6397 68.9165 51.25 68.5445 50.9701C68.1737 50.6922 67.4357 50.3908 66.3258 50.0659C64.5661 49.5589 63.3192 48.9486 62.6018 48.2453C61.8798 47.5429 61.5174 46.5655 61.5174 45.3129C61.5174 43.7345 61.9887 42.5617 62.9315 41.7833C63.8742 41.0077 65.1624 40.6228 66.8056 40.6228C67.9324 40.6228 69.3577 40.7777 71.0892 41.0884L71.9108 41.2499L71.6601 43.7814C69.5174 43.5448 68.0028 43.4208 67.124 43.4208ZM140.96 43.7486V56.697H137.819V43.7486H133.673V40.9175H145.062V43.7486H140.96ZM74.0207 40.9175H77.169V56.697H74.0216L74.0207 40.9175ZM92.2629 56.697V44.4866H91.9165L88.8893 56.0012H85.7418L82.7165 44.4866H82.3756V56.697H79.2301V40.9175H84.585L87.3174 52.4247L90.0526 40.9175H95.4039V56.697H92.2629ZM100.609 49.3636H103.139C104.699 49.3636 105.484 48.3739 105.486 46.3851C105.486 45.4124 105.291 44.7138 104.915 44.2875C104.536 43.865 103.945 43.6509 103.139 43.6509H100.609V49.3636ZM97.4629 40.9175H103.16C106.835 40.9175 108.673 42.742 108.662 46.3992C108.662 48.2406 108.197 49.6528 107.264 50.634C106.331 51.6106 104.959 52.1045 103.153 52.1045H100.604V56.6961H97.4629V40.9175ZM110.721 56.697V40.9175H113.862V53.8659H119.534V56.697H110.721ZM131.615 56.697V53.9129H124.734V50.1298H130.248V47.3889H124.734V43.7007H131.615V40.9175H121.593V56.697H131.615ZM150.261 40.9175H147.12V56.697H150.261V40.9175ZM158.384 48.6613C159.127 48.6613 159.682 48.4312 160.049 47.9664C160.416 47.5007 160.594 46.8904 160.594 46.1336C160.594 45.3786 160.401 44.7739 160.015 44.325C159.627 43.8763 159.067 43.6509 158.337 43.6509H155.468V48.6622L158.384 48.6613ZM158.331 40.9175C161.976 40.9175 163.799 42.6519 163.799 46.1148C163.806 48.1701 163.045 49.6913 161.525 50.6659L163.735 56.6988H160.295L158.493 51.4087H155.461V56.697H152.32V40.9175H158.331ZM175.878 53.9129V56.697H165.857V40.9175H175.878V43.7007H168.998V47.3889H174.514V50.1307H168.998V53.9129H175.878Z" fill="#232525"/>
</g>
</svg>
