<svg width="150" height="56" viewBox="0 0 150 56" fill="none" xmlns="http://www.w3.org/2000/svg">
<g id="6556297c972f146948f7aaa8_smile.svg">
<g id="Clip path group">
<mask id="mask0_3001_5422" style="mask-type:luminance" maskUnits="userSpaceOnUse" x="25" y="18" width="102" height="19">
<g id="a">
<path id="Vector" d="M126.614 18.5938H25.533V36.0836H126.614V18.5938Z" fill="white"/>
</g>
</mask>
<g mask="url(#mask0_3001_5422)">
<g id="Group">
<path id="Vector_2" d="M99.1488 24.7686C100.133 25.8514 100.625 27.3234 100.625 29.1859V29.8307C100.625 30.0062 100.561 30.1572 100.434 30.2844C100.307 30.4121 100.156 30.4754 99.9826 30.4754H91.7931V30.6192C91.8247 31.6693 92.1466 32.4931 92.7572 33.0901C93.3678 33.6869 94.1576 33.9854 95.1258 33.9854C95.9191 33.9854 96.5344 33.8821 96.9707 33.6757C97.4069 33.4685 97.8003 33.1736 98.149 32.7915C98.2758 32.6644 98.3912 32.5766 98.4948 32.5289C98.5971 32.4817 98.7364 32.4578 98.9108 32.4578H99.6249C99.8154 32.4578 99.9743 32.5211 100.101 32.6483C100.228 32.776 100.283 32.927 100.268 33.1025C100.205 33.5318 99.9701 33.9741 99.5654 34.4272C99.1613 34.8808 98.5811 35.2629 97.8277 35.5733C97.0736 35.8838 96.1733 36.0395 95.1258 36.0395C94.1099 36.0395 93.2054 35.8038 92.412 35.3345C91.6188 34.8653 90.9873 34.2165 90.5195 33.3885C90.0512 32.5612 89.7697 31.6299 89.6745 30.5953C89.6423 30.1178 89.6269 29.7513 89.6269 29.497C89.6269 29.2421 89.6423 28.8761 89.6745 28.398C89.7697 27.4119 90.0512 26.52 90.5195 25.7237C90.9873 24.928 91.6146 24.2994 92.4001 23.8373C93.1863 23.3758 94.0939 23.1448 95.1258 23.1448C96.8237 23.1448 98.165 23.6862 99.1488 24.7686ZM98.4823 28.4697V28.398C98.4823 27.4273 98.1764 26.6513 97.5658 26.0699C96.9552 25.489 96.1411 25.199 95.1258 25.199C94.2052 25.199 93.4237 25.4932 92.781 26.0818C92.1383 26.6711 91.8086 27.4428 91.7931 28.398V28.4697H98.4823ZM106.114 32.8268C106.247 32.9604 106.314 33.1195 106.314 33.3033V34.9827C106.314 35.1669 106.247 35.3255 106.114 35.459C105.979 35.5933 105.821 35.6603 105.637 35.6603H103.958C103.774 35.6603 103.615 35.5933 103.481 35.459C103.347 35.3255 103.28 35.1669 103.28 34.9827V33.3033C103.28 33.1195 103.347 32.9604 103.481 32.8268C103.615 32.6927 103.774 32.6262 103.958 32.6262H105.637C105.821 32.6262 105.979 32.6927 106.114 32.8268ZM126.415 29.6158C126.415 29.9978 126.398 30.3643 126.367 30.7147C126.224 32.3379 125.663 33.6315 124.686 34.595C123.708 35.5578 122.384 36.0395 120.713 36.0395C119.044 36.0395 117.72 35.5578 116.742 34.595C115.765 33.6315 115.204 32.3379 115.061 30.7147C115.044 30.5393 115.037 30.1733 115.037 29.6158C115.037 29.0272 115.044 28.6451 115.061 28.4697C115.188 26.8459 115.744 25.5529 116.731 24.5894C117.716 23.6265 119.044 23.1448 120.713 23.1448C122.384 23.1448 123.711 23.6265 124.697 24.5894C125.684 25.5529 126.24 26.8459 126.367 28.4697C126.398 28.82 126.415 29.2021 126.415 29.6158ZM123.183 26.1296C122.602 25.5087 121.779 25.1983 120.713 25.1983C119.648 25.1983 118.825 25.5087 118.245 26.1296C117.664 26.7504 117.327 27.5706 117.231 28.589C117.215 28.78 117.207 29.1227 117.207 29.6158C117.207 30.0939 117.215 30.4198 117.231 30.5948C117.327 31.6143 117.664 32.4339 118.245 33.0548C118.825 33.6757 119.648 33.9854 120.713 33.9854C121.779 33.9854 122.602 33.6757 123.183 33.0548C123.763 32.4339 124.101 31.6143 124.197 30.5948C124.228 30.2449 124.244 29.9184 124.244 29.6158C124.244 29.3137 124.228 28.971 124.197 28.589C124.101 27.5706 123.763 26.7504 123.183 26.1296ZM111.572 35.4679C111.445 35.5966 111.294 35.6603 111.118 35.6603H110.234C110.058 35.6603 109.907 35.5966 109.779 35.4679C109.652 35.34 109.588 35.188 109.588 35.0113V23.8105C109.588 23.6343 109.652 23.4817 109.779 23.3532C109.907 23.2252 110.058 23.1614 110.234 23.1614H111.118C111.294 23.1614 111.445 23.2252 111.572 23.3532C111.7 23.4817 111.763 23.6343 111.763 23.8105V35.0113C111.763 35.188 111.7 35.34 111.572 35.4679ZM111.357 21.2619H109.993C109.819 21.2619 109.667 21.1982 109.54 21.0696C109.413 20.9416 109.348 20.7895 109.348 20.6129V19.2428C109.348 19.0667 109.413 18.9147 109.54 18.7861C109.667 18.6581 109.819 18.5938 109.993 18.5938H111.357C111.533 18.5938 111.684 18.6581 111.812 18.7861C111.939 18.9147 112.003 19.0667 112.003 19.2428V20.6129C112.003 20.7895 111.939 20.9416 111.812 21.0696C111.684 21.1982 111.533 21.2619 111.357 21.2619ZM86.3934 35.4679C86.2595 35.5966 86.1013 35.6603 85.9175 35.6603H84.9927C84.8087 35.6603 84.6506 35.5966 84.5174 35.4679C84.3836 35.34 84.3172 35.188 84.3172 35.0113V19.2428C84.3172 19.0667 84.3836 18.9147 84.5174 18.7861C84.6506 18.6581 84.8087 18.5938 84.9927 18.5938H85.9175C86.1013 18.5938 86.2595 18.6581 86.3934 18.7861C86.5265 18.9147 86.5929 19.0667 86.5929 19.2428V35.0113C86.5929 35.188 86.5265 35.34 86.3934 35.4679ZM44.3611 26.7265C44.3611 26.0741 44.5406 25.4771 44.9 24.9357C45.2589 24.3949 45.7942 23.9609 46.5046 23.6343C47.2151 23.3084 48.0847 23.1448 49.1136 23.1448C50.1259 23.1448 50.9999 23.2881 51.7348 23.5746C52.4697 23.8612 53.0289 24.2193 53.4129 24.6497C53.7963 25.0789 53.9886 25.4932 53.9886 25.8914C53.9886 26.0502 53.9231 26.1899 53.792 26.3086C53.6622 26.428 53.5066 26.4884 53.3272 26.4884H52.5187C52.2083 26.4884 51.9632 26.3767 51.7838 26.1534C51.2773 25.5171 50.3875 25.1983 49.1136 25.1983C48.3622 25.1983 47.754 25.3338 47.2885 25.6043C46.8231 25.8752 46.5903 26.2489 46.5903 26.7265C46.5903 27.1247 46.7043 27.4273 46.9334 27.6345C47.1618 27.8411 47.5047 28.0082 47.9622 28.1353C48.4191 28.2631 49.2275 28.4541 50.3875 28.7084C51.8249 29.0111 52.8451 29.4731 53.4496 30.0939C54.0535 30.7147 54.356 31.4705 54.356 32.3618C54.356 33.0148 54.1472 33.6195 53.7314 34.1765C53.3149 34.734 52.7184 35.1836 51.9431 35.5255C51.1671 35.8676 50.265 36.0395 49.2361 36.0395C48.2231 36.0395 47.3289 35.8838 46.5536 35.5733C45.7777 35.2629 45.1775 34.885 44.753 34.4391C44.328 33.9938 44.1161 33.5718 44.1161 33.1736C44.1161 33.0148 44.181 32.8751 44.3121 32.7564C44.4426 32.6363 44.5975 32.5766 44.7776 32.5766H45.6595C45.8058 32.5766 45.9369 32.5928 46.0514 32.6244C46.1653 32.6567 46.2719 32.7438 46.3698 32.887C46.9088 33.6195 47.8642 33.9854 49.2361 33.9854C50.0035 33.9854 50.6771 33.8302 51.2572 33.5198C51.8365 33.2094 52.1268 32.8238 52.1268 32.3618C52.1268 31.9796 51.9835 31.6735 51.6975 31.4424C51.4121 31.212 50.9999 31.021 50.4609 30.8693C49.9221 30.7183 49.0806 30.5231 47.9378 30.2844C45.5529 29.7913 44.3611 28.6052 44.3611 26.7265ZM60.8594 23.2156C61.3379 22.9158 61.9755 22.7655 62.7735 22.7655C64.6397 22.7655 65.9479 23.4711 66.6974 24.8823C67.1597 24.201 67.6862 23.678 68.2765 23.313C68.8669 22.9481 69.641 22.7655 70.5974 22.7655C72.161 22.7655 73.3207 23.2443 74.0792 24.201C74.8359 25.1578 75.2152 26.5123 75.2152 28.2641V35.0034C75.2152 35.1822 75.1517 35.3361 75.0244 35.4657C74.8963 35.5958 74.7444 35.6603 74.5691 35.6603H73.6839C73.508 35.6603 73.3573 35.5958 73.2298 35.4657C73.1018 35.3361 73.0378 35.1822 73.0378 35.0034V28.5074C73.0378 26.0744 72.0964 24.858 70.2152 24.858C69.3533 24.858 68.6678 25.1499 68.1569 25.7337C67.6467 26.3177 67.3913 27.185 67.3913 28.3371V35.0034C67.3913 35.1822 67.3273 35.3361 67.2005 35.4657C67.0725 35.5958 66.9211 35.6603 66.7452 35.6603H65.86C65.6841 35.6603 65.5327 35.5958 65.4059 35.4657C65.2779 35.3361 65.214 35.1822 65.214 35.0034V28.5074C65.214 26.0744 64.2725 24.858 62.3913 24.858C61.5294 24.858 60.8439 25.1499 60.333 25.7337C59.8228 26.3177 59.5674 27.185 59.5674 28.3371V35.0034C59.5674 35.1822 59.5034 35.3361 59.3766 35.4657C59.2486 35.5958 59.0972 35.6603 58.9213 35.6603H58.0361C57.8602 35.6603 57.709 35.5958 57.5822 35.4657C57.4541 35.3361 57.3901 35.1822 57.3901 35.0034V23.6658C57.3901 23.4876 57.4541 23.333 57.5822 23.2029C57.709 23.0739 57.8602 23.0089 58.0361 23.0089H58.9213C59.0972 23.0089 59.2486 23.0739 59.3766 23.2029C59.5034 23.333 59.5674 23.4876 59.5674 23.6658V24.4193C59.9502 23.917 60.3809 23.5161 60.8594 23.2156ZM80.4736 35.4679C80.3456 35.5966 80.1945 35.6603 80.0187 35.6603H79.1345C78.9587 35.6603 78.8076 35.5966 78.6802 35.4679C78.5522 35.34 78.4889 35.188 78.4889 35.0113V23.8105C78.4889 23.6343 78.5522 23.4817 78.6802 23.3532C78.8076 23.2252 78.9587 23.1614 79.1345 23.1614H80.0187C80.1945 23.1614 80.3456 23.2252 80.4736 23.3532C80.6009 23.4817 80.6643 23.6343 80.6643 23.8105V35.0113C80.6643 35.188 80.6009 35.34 80.4736 35.4679ZM80.7121 21.0696C80.5848 21.1982 80.4335 21.2619 80.2583 21.2619H78.8948C78.7197 21.2619 78.5678 21.1982 78.4411 21.0696C78.3132 20.9416 78.2492 20.7895 78.2492 20.6129V19.2428C78.2492 19.0667 78.3132 18.9147 78.4411 18.7861C78.5678 18.6581 78.7197 18.5938 78.8948 18.5938H80.2583C80.4335 18.5938 80.5848 18.6581 80.7121 18.7861C80.84 18.9147 80.904 19.0667 80.904 19.2428V20.6129C80.904 20.7895 80.84 20.9416 80.7121 21.0696Z" fill="#D6E4E2"/>
<path id="Vector_3" d="M36.9107 26.4345C36.9107 26.426 36.91 26.4192 36.91 26.4106H36.9011C36.8904 26.2532 36.8349 26.1133 36.7204 25.9948C36.5928 25.8647 36.4419 25.8 36.2666 25.8H35.3841C35.2087 25.8 35.0585 25.8647 34.9314 25.9948C34.8158 26.1133 34.7609 26.2532 34.7496 26.4106H34.7394C34.7394 26.418 34.7401 26.4271 34.7401 26.4345C34.7401 26.7441 34.724 27.0781 34.6924 27.4366C34.597 28.479 34.2588 29.3174 33.6787 29.9525C33.0978 30.5877 32.2755 30.9045 31.2093 30.9045C30.1442 30.9045 29.3213 30.5877 28.7412 29.9525C28.1603 29.3174 27.8228 28.479 27.7274 27.4366C27.7113 27.2577 27.7035 26.9237 27.7035 26.4345V26.4106H27.694C27.6826 26.2532 27.6279 26.1133 27.5127 25.9948C27.3851 25.8647 27.2342 25.8 27.059 25.8H26.177C26.0016 25.8 25.8508 25.8647 25.7238 25.9948C25.6086 26.1133 25.5532 26.2532 25.5425 26.4106H25.533V26.4345V26.4589V26.8503C25.533 26.854 25.5348 26.8564 25.5348 26.8601C25.5383 27.1936 25.5449 27.4287 25.5569 27.5587C25.7 29.2198 26.2605 30.5431 27.2384 31.5281C28.2164 32.5131 29.5402 33.0059 31.2093 33.0059C32.8795 33.0059 34.2034 32.5131 35.1813 31.5281C36.1593 30.5431 36.7199 29.2198 36.863 27.5587C36.879 27.3707 36.8797 27.166 36.8879 26.9701C36.8951 26.9303 36.9107 26.8931 36.9107 26.8503V26.4595C36.9107 26.4577 36.9095 26.4565 36.9095 26.4547C36.9095 26.4473 36.9107 26.4418 36.9107 26.4345Z" fill="#D6E4E2"/>
</g>
</g>
</g>
</g>
</svg>
