<svg width="52" height="59" viewBox="0 0 52 59" fill="none" xmlns="http://www.w3.org/2000/svg">
<g id="624121a1d3f4b80ffa879688_tandym-mark.svg" clip-path="url(#clip0_3001_6029)">
<path id="Vector" fill-rule="evenodd" clip-rule="evenodd" d="M5.58138 14.8942L5.58201 34.0707L35.8093 51.0162L35.8092 47.5969L40.5121 50.2333L40.5124 55.9123C40.5125 57.5763 39.3093 58.2508 37.8251 57.4187L3.56665 38.2134C2.08246 37.3813 0.879219 35.3579 0.879164 33.6939L0.878387 9.99805C0.878333 8.33404 2.08147 7.65962 3.56567 8.49166L37.8241 27.697C39.3083 28.529 40.5115 30.5524 40.5116 32.2164L40.5119 37.1981L35.809 34.5618L35.8088 31.8398L5.58138 14.8942Z" fill="#EEF5F4"/>
<path id="Vector_2" fill-rule="evenodd" clip-rule="evenodd" d="M12.2438 3.93854C12.2437 2.2745 13.4468 1.60003 14.931 2.43209L49.1895 21.6375C50.6737 22.4695 51.8769 24.493 51.877 26.157L51.8777 49.8529C51.8778 51.5169 50.6746 52.1913 49.1904 51.3593L14.932 32.1539C13.4478 31.3219 12.2446 29.2985 12.2445 27.6345L12.2442 22.0628L16.9471 24.6992L16.9473 28.0111L47.1747 44.9567L47.1741 25.7802L16.9468 8.83467L16.947 12.4735L12.2441 9.83706L12.2438 3.93854Z" fill="#EEF5F4"/>
</g>
<defs>
<clipPath id="clip0_3001_6029">
<rect width="51" height="58" fill="white" transform="translate(0.878288 0.925293)"/>
</clipPath>
</defs>
</svg>
