<svg width="116" height="31" viewBox="0 0 116 31" fill="none" xmlns="http://www.w3.org/2000/svg">
<g id="64f099a414828ebfdad821b3_tandym-logo-white.svg">
<g id="Clip path group">
<mask id="mask0_3001_6097" style="mask-type:luminance" maskUnits="userSpaceOnUse" x="1" y="1" width="114" height="29">
<g id="a">
<path id="Vector" d="M114.305 1.10254H1.38122V29.8185H114.305V1.10254Z" fill="white"/>
</g>
</mask>
<g mask="url(#mask0_3001_6097)">
<g id="Group">
<path id="Vector_2" d="M38.8881 8.53882H38.3294C37.4446 10.029 36.2339 11.3095 34.7903 12.0313V12.4504H36.3037V20.4366C36.3037 22.9744 37.6542 23.929 39.4237 23.929C40.9603 23.929 42.0547 23.0909 42.7299 22.0897L42.4738 21.7404C41.8685 22.1828 41.3795 22.3923 40.681 22.3923C39.4702 22.3923 38.8881 21.7404 38.8881 20.1572V12.4504H42.078V11.4957H38.8881V8.53882Z" fill="white"/>
<path id="Vector_3" d="M47.8236 22.3458C46.5198 22.3458 45.8911 21.4843 45.8911 20.227C45.8911 18.9697 46.5198 18.3644 47.6141 17.9453L50.0589 16.944V21.3213C49.2439 21.9733 48.6385 22.3458 47.8236 22.3458ZM52.6666 14.9417C52.6666 12.3806 51.1997 11.2629 48.4057 11.2629C45.961 11.2629 44.0518 12.2641 44.0518 14.1035C44.0518 14.802 44.4243 15.2677 45.0296 15.4539L46.5663 15.2444C46.45 14.7555 46.3801 14.3596 46.3801 13.9406C46.3801 12.7764 46.8924 11.9149 48.1263 11.9149C49.5233 11.9149 50.0589 12.986 50.0589 14.4528V16.2223L46.6362 17.4796C44.8202 18.1548 43.3766 18.9697 43.3766 20.9488C43.3766 22.7416 44.564 23.9058 46.4266 23.9058C48.0565 23.9058 49.3137 22.8115 50.1054 21.8568C50.2917 23.1374 51.0135 23.929 52.2242 23.929C53.2021 23.929 54.0403 23.5099 54.6457 22.695L54.506 22.276C54.2033 22.4157 53.8773 22.532 53.5047 22.532C52.8528 22.532 52.6666 22.0432 52.6666 21.1118V14.9417Z" fill="white"/>
<path id="Vector_4" d="M64.0488 21.9267C64.0488 22.7882 63.6762 22.9512 62.5121 23.021V23.6962H68.1933V23.021C67.0291 22.9512 66.6566 22.7882 66.6566 21.9267V15.0115C66.6566 12.497 65.5855 11.2629 63.4202 11.2629C61.5575 11.2629 60.207 12.3108 59.1593 13.4982L59.2524 11.2629H58.8566L55.0848 12.4737V12.7996L56.5516 13.6145V21.9267C56.5516 22.7882 56.1791 22.9512 55.0149 23.021V23.6962H60.6728V23.021C59.5318 22.9512 59.1593 22.7882 59.1593 21.9267V14.0803C59.9742 13.4283 60.9987 12.8695 62.093 12.8695C63.4202 12.8695 64.0488 13.568 64.0488 15.128V21.9267Z" fill="white"/>
<path id="Vector_5" d="M74.6108 12.0777C76.101 12.0777 77.0789 13.2652 77.0789 15.2676V21.228C76.4735 21.8567 75.6819 22.1827 74.704 22.1827C72.3989 22.1827 71.165 19.9941 71.165 17.1535C71.165 14.1034 72.4921 12.0777 74.6108 12.0777ZM77.0789 7.74709V12.1476C76.4968 11.6121 75.5888 11.2862 74.4478 11.2862C71.165 11.2862 68.6504 13.8706 68.6504 18.178C68.6504 21.5773 70.4898 23.9289 73.3303 23.9289C74.9834 23.9289 76.1475 23.0442 77.0789 21.7636L76.9858 23.9289H77.4514L81.3164 23.0908V22.4854L80.711 22.4388C79.7332 22.3457 79.6866 22.1362 79.6866 21.3445V5.46533H79.314L75.612 6.60621V6.95546L77.0789 7.74709Z" fill="white"/>
<path id="Vector_6" d="M88.5605 21.0417L85.5569 13.5911C85.4638 13.3118 85.4172 13.1255 85.4172 12.9392C85.4172 12.4037 85.8363 12.3106 87.0237 12.1708V11.4956H81.3426V12.1708C82.1808 12.3804 82.3205 12.5434 82.5301 13.0324L87.3497 24.0686L86.9306 25.1862C86.395 26.6297 85.6035 26.979 84.3462 26.979C83.6943 26.979 83.345 26.8859 82.9026 26.7694V27.6775C83.1122 28.376 83.8805 28.7951 84.6255 28.7951C86.0924 28.7951 86.8142 27.7939 87.5126 26.0244L92.5419 13.0324C92.7281 12.5667 92.8911 12.3804 93.7293 12.1708V11.4956H89.8642V12.1708C91.0517 12.3106 91.4708 12.4037 91.4708 12.9392C91.4708 13.1255 91.4243 13.3118 91.3311 13.5911L88.5605 21.0417Z" fill="white"/>
<path id="Vector_7" d="M110.121 21.9267C110.121 22.7882 109.795 22.9512 108.63 23.021V23.6962H114.265V23.021C113.101 22.9512 112.728 22.7882 112.728 21.9267V15.0349C112.728 12.5436 111.773 11.2629 109.655 11.2629C107.792 11.2629 106.466 12.3573 105.417 13.568C105.091 11.9847 104.16 11.2629 102.484 11.2629C100.597 11.2629 99.4104 12.2874 98.363 13.4982L98.4559 11.2629H98.0599L94.2879 12.4737V12.7996L95.7547 13.6145V21.9267C95.7547 22.7882 95.3822 22.9512 94.218 23.021V23.6962H99.876V23.021C98.7114 22.9512 98.363 22.7882 98.363 21.9267V14.0803C99.1771 13.4283 100.039 12.8695 101.11 12.8695C102.414 12.8695 102.95 13.5913 102.95 15.128V21.9267C102.95 22.7882 102.6 22.9512 101.436 23.021V23.6962H107.047V23.021C105.883 22.9512 105.557 22.7882 105.557 21.9267V14.0803C106.372 13.4283 107.233 12.8695 108.305 12.8695C109.608 12.8695 110.121 13.5913 110.121 15.128V21.9267Z" fill="white"/>
<path id="Vector_8" fill-rule="evenodd" clip-rule="evenodd" d="M3.73372 7.70647L3.73403 17.5859L18.8538 26.3159L18.8537 24.5544L21.2061 25.9126L21.2063 28.8384C21.2063 29.6956 20.6046 30.0431 19.8621 29.6145L2.72594 19.7201C1.98355 19.2915 1.38169 18.2491 1.38166 17.3918L1.38127 5.18404C1.38124 4.32678 1.98306 3.97932 2.72546 4.40798L19.8617 14.3022C20.604 14.7309 21.2059 15.7734 21.2059 16.6306L21.206 19.1971L18.8536 17.8389L18.8535 16.4366L3.73372 7.70647Z" fill="white"/>
<path id="Vector_9" fill-rule="evenodd" clip-rule="evenodd" d="M7.06486 2.06225C7.06481 1.20496 7.66663 0.85749 8.40903 1.28615L25.5452 11.1804C26.2876 11.6091 26.8894 12.6516 26.8895 13.5088L26.8899 25.7166C26.8899 26.5738 26.2881 26.9212 25.5457 26.4926L8.40952 16.5983C7.66713 16.1697 7.06528 15.1273 7.06524 14.27L7.06508 11.3996L9.41749 12.7578L9.41758 14.4641L24.5374 23.1941L24.5371 13.3147L9.41733 4.58466L9.41742 6.45928L7.06501 5.10108L7.06486 2.06225Z" fill="white"/>
</g>
</g>
</g>
</g>
</svg>
