<svg width="201" height="97" viewBox="0 0 201 97" fill="none" xmlns="http://www.w3.org/2000/svg">
<g id="65561e2089c1753d3ccba86c_UniqueVintage.svg">
<path id="Vector" fill-rule="evenodd" clip-rule="evenodd" d="M58.4267 37.7505C58.4219 38.2102 58.2382 38.6503 57.9137 38.9785C57.5894 39.3067 57.1498 39.4975 56.6868 39.511C56.2245 39.5097 55.7815 39.3269 55.4545 39.0024C55.1276 38.6778 54.9434 38.238 54.9421 37.7792C54.9418 37.5518 54.9882 37.3268 55.0783 37.1178C55.1685 36.9088 55.3006 36.7202 55.4665 36.5636C55.6324 36.4069 55.8287 36.2854 56.0435 36.2064C56.2583 36.1276 56.4869 36.0928 56.7157 36.1045C56.9389 36.0934 57.1619 36.1279 57.3711 36.206C57.5803 36.2841 57.771 36.4039 57.9316 36.5584C58.092 36.7128 58.2189 36.8983 58.304 37.1034C58.3892 37.3084 58.4309 37.5287 58.4267 37.7505ZM118.285 36.5604C118.084 36.4833 117.869 36.447 117.653 36.4539C117.425 36.4309 117.193 36.4555 116.975 36.5262C116.757 36.5968 116.556 36.712 116.385 36.8643C116.214 37.0167 116.077 37.2027 115.983 37.4106C115.889 37.6186 115.839 37.8438 115.837 38.0718C115.834 38.2996 115.876 38.5259 115.962 38.7371C116.048 38.9484 116.176 39.1402 116.339 39.3013C116.5 39.4625 116.694 39.5894 116.907 39.6749C117.119 39.7603 117.348 39.8024 117.577 39.7985C118.039 39.7911 118.479 39.6042 118.806 39.2779C119.131 38.9516 119.314 38.5119 119.316 38.0529C119.316 37.8385 119.273 37.6262 119.189 37.4287C119.104 37.2313 118.981 37.0527 118.826 36.9035C118.67 36.7543 118.487 36.6377 118.285 36.5604ZM155.339 52.7364C155.258 54.08 156.001 54.7612 157.025 55.3146C156.873 55.3586 156.729 55.3964 156.595 55.4324C156.352 55.497 156.132 55.5556 155.915 55.6316C154.915 55.9817 154.161 56.5777 154.081 57.713C154.04 58.2201 154.158 58.7272 154.419 59.165C154.681 59.6027 155.071 59.9497 155.539 60.1587C155.936 60.3796 156.365 60.5392 156.811 60.6318C158.678 61.0586 160.627 60.9719 162.449 60.381C164.941 59.5721 166.318 57.6798 166.261 55.3146C166.298 54.6034 166.073 53.9033 165.627 53.3451C165.182 52.7869 164.545 52.4092 163.84 52.2824C163.014 52.1287 162.165 52.1287 161.339 52.2824C160.311 52.4533 159.271 52.5372 158.231 52.533C157.302 52.5094 156.868 52.131 156.968 51.4971C157.068 50.8633 157.731 50.5273 158.536 50.6977C158.643 50.7208 158.75 50.7506 158.858 50.7806C158.97 50.8121 159.084 50.8437 159.199 50.8679C160.568 51.2079 162.015 51.0397 163.268 50.3949C165.393 49.3116 166.07 47.3247 165.117 45.1913C165.024 45.0124 164.957 44.8213 164.917 44.6236C164.903 44.4597 164.942 44.2958 165.028 44.1549C165.114 44.0139 165.241 43.9033 165.393 43.8384C165.476 43.777 165.576 43.7437 165.679 43.7437C165.783 43.7437 165.883 43.777 165.966 43.8384C166.214 44.0139 166.148 44.2191 166.079 44.4258C166.062 44.4806 166.044 44.536 166.032 44.5905C165.86 45.4184 166.194 45.9293 166.952 46.0097C167.781 46.1043 168.319 45.7779 168.467 45.092C168.673 44.1364 168.295 43.3747 167.471 43.1619C167.003 43.0268 166.507 43.0252 166.039 43.1574C165.569 43.2896 165.148 43.5502 164.821 43.9093C164.517 44.2026 164.389 44.231 164.04 43.9709C161.971 42.4334 158.584 42.6179 156.677 44.3256C156.258 44.6687 155.925 45.1045 155.706 45.598C155.486 46.0914 155.386 46.6292 155.414 47.1679C155.441 47.7067 155.595 48.2316 155.864 48.7008C156.132 49.1699 156.507 49.5702 156.959 49.8698C157.027 49.9209 157.102 49.9624 157.179 50.0043C157.344 50.0946 157.512 50.1869 157.616 50.3806C156.764 50.6609 156.037 51.2283 155.562 51.9844C155.191 52.5334 154.703 52.9952 154.133 53.3372C153.527 53.7062 153.156 53.5549 152.936 52.8642C152.853 52.4694 152.825 52.0652 152.851 51.6627C152.828 50.9122 152.84 50.1606 152.851 49.4088C152.87 48.118 152.89 46.8269 152.736 45.5413C152.699 45.0064 152.487 44.498 152.134 44.0921C151.782 43.6863 151.306 43.4047 150.778 43.2896C149.601 42.9513 148.364 42.8802 147.156 43.0814C146.651 43.1529 146.167 43.3277 145.734 43.5949C145.301 43.8619 144.928 44.2155 144.64 44.6331C144.446 44.886 144.318 45.1818 144.266 45.4951C144.214 45.8083 144.239 46.1294 144.34 46.4308C144.489 46.7627 144.744 47.0362 145.067 47.2083C145.39 47.3804 145.761 47.4413 146.121 47.3816C146.431 47.3629 146.72 47.2311 146.936 47.0116C147.152 46.7921 147.278 46.5006 147.29 46.1942C147.357 45.3853 146.956 44.9879 146.156 44.9122C145.698 44.8696 145.736 44.5621 145.884 44.2452C146.074 43.9204 146.356 43.6579 146.694 43.4899C147.033 43.3218 147.414 43.2554 147.79 43.2991C148.164 43.2861 148.528 43.405 148.821 43.6345C149.115 43.8641 149.317 44.1894 149.391 44.5527C149.565 45.597 149.646 46.6543 149.634 47.7127C149.658 48.1716 149.506 48.3277 149.062 48.3797C147.944 48.486 146.859 48.8074 145.865 49.3258C145.409 49.5279 145.011 49.8404 144.709 50.2347C144.407 50.6291 144.209 51.0924 144.135 51.5822C144.107 51.7918 144.037 51.9937 143.929 52.1758C143.821 52.3578 143.677 52.5163 143.506 52.6419C143.423 52.712 143.34 52.7854 143.257 52.8592C142.707 53.3472 142.142 53.8493 141.314 53.5124C140.36 53.1244 140.36 52.1925 140.36 51.3646C140.341 50.1286 140.334 48.8977 140.327 47.6638C140.32 46.556 140.315 45.4444 140.299 44.3256C140.294 43.8856 140.379 43.6822 140.879 43.7249C141.411 43.7579 141.944 43.7579 142.476 43.7249C142.535 43.7229 142.603 43.7277 142.674 43.7326C142.957 43.7522 143.283 43.775 143.249 43.3889C143.218 43.0479 142.981 43.13 142.757 43.2074C142.664 43.2394 142.573 43.2708 142.5 43.2708L142.492 43.2709C141.093 43.3018 140.532 43.3142 140.309 43.0479C140.16 42.8699 140.162 42.5671 140.166 42.0619C140.167 41.8225 140.169 41.5375 140.156 41.1987V41.0474C140.146 40.9821 140.152 40.9079 140.158 40.8337C140.171 40.6602 140.184 40.4859 140.017 40.4229C139.778 40.3333 139.679 40.5241 139.587 40.7019C139.559 40.7584 139.531 40.8136 139.498 40.8581C138.507 42.1875 137.296 43.1619 135.552 43.2802C135.474 43.2719 135.395 43.2904 135.329 43.3326C135.264 43.3747 135.215 43.438 135.19 43.512C135.269 43.6088 135.376 43.6799 135.496 43.7161C135.618 43.7522 135.746 43.752 135.867 43.7154C136.639 43.6113 136.849 43.9283 136.849 44.6899C136.823 46.3724 136.832 48.0528 136.84 49.7325V49.7346V49.7367V49.7387V49.7409V49.7429C136.844 50.5817 136.849 51.4202 136.849 52.2587C136.849 53.588 137.425 54.2739 138.754 54.4962C140.837 54.8463 142.7 54.4726 144.059 52.6608C144.616 54.0894 145.393 54.6713 146.718 54.6097C148.042 54.5483 148.934 53.7819 149.649 52.6939C150.192 54.2976 150.649 54.5956 152.232 54.5104C153.514 54.4442 154.452 53.7678 155.339 52.7364ZM157.821 55.5464L162.225 55.0734L162.429 55.0781C163.344 55.0639 164.293 55.1064 164.717 56.0526C164.918 56.521 164.971 57.0387 164.869 57.5377C164.768 58.0367 164.517 58.4936 164.15 58.8484C162.864 60.3243 159.818 60.7974 158.098 59.8512C156.825 59.1369 156.486 56.7621 157.502 55.7167C157.582 55.6204 157.696 55.5593 157.821 55.5464ZM162.077 44.5953C162.335 45.4636 162.448 46.3681 162.41 47.2727C162.42 48.0268 162.352 48.7799 162.206 49.5197C162.157 49.8463 161.995 50.146 161.749 50.367C161.501 50.588 161.184 50.7167 160.852 50.7308C160.496 50.7792 160.135 50.7087 159.825 50.5305C159.514 50.3524 159.271 50.0767 159.136 49.7468C158.877 49.0645 158.742 48.3424 158.736 47.6134C158.635 46.6089 158.726 45.5947 159.003 44.6236C159.27 43.7627 159.827 43.3228 160.566 43.3228C161.41 43.3417 161.824 43.881 162.077 44.5953ZM149.625 49.3684C149.604 49.6408 149.604 49.9143 149.625 50.1868C149.623 50.943 149.527 51.6962 149.339 52.4291C149.293 52.6543 149.168 52.8561 148.986 52.9989C148.806 53.1418 148.578 53.2163 148.348 53.2095C148.117 53.2169 147.891 53.1491 147.703 53.0167C147.516 52.8843 147.377 52.6944 147.309 52.4763C147.044 51.79 147.066 51.0277 147.366 50.3566C147.667 49.6853 148.224 49.1599 148.915 48.8953C149.434 48.6967 149.734 48.6825 149.625 49.3684ZM115.809 45.6455C115.852 48.1385 115.852 50.6362 115.852 53.1293C115.857 53.1313 115.862 53.1334 115.869 53.1353C115.874 53.137 115.878 53.1386 115.884 53.1402C115.957 53.1646 116.045 53.1939 116.037 53.3091C116.028 53.4414 115.928 53.4414 115.842 53.4414C115.685 53.9767 115.301 53.998 114.914 54.0196C114.628 54.0354 114.342 54.0513 114.141 54.2693C114.829 54.2778 115.518 54.2876 116.207 54.2975H116.209L116.212 54.2976H116.215H116.217L116.219 54.2977C120.145 54.3538 124.092 54.4102 128.142 54.2172C128.062 54.1062 127.956 54.0179 127.831 53.9614C127.706 53.905 127.568 53.8822 127.432 53.8955C126.926 53.8719 126.732 53.6306 126.732 53.1197V45.8537C126.708 45.6172 126.735 45.3785 126.814 45.1538C126.891 44.9292 127.017 44.7237 127.182 44.5518C127.348 44.3797 127.548 44.2452 127.77 44.1571C127.993 44.0692 128.232 44.0299 128.47 44.0419C129.4 44.0325 129.728 44.4203 129.824 45.6597C129.935 47.126 129.924 48.5939 129.914 50.0616C129.907 50.9894 129.9 51.9185 129.924 52.8454C129.939 53.5976 129.752 54.0801 128.866 53.9618C128.742 53.9476 128.614 53.995 128.542 54.3261C129.229 54.3216 129.914 54.3255 130.598 54.3296C132.081 54.3383 133.567 54.347 135.1 54.2693C135.056 54.1578 134.977 54.0626 134.877 53.9966C134.776 53.9305 134.658 53.8969 134.537 53.9003C133.374 53.7726 133.374 53.7726 133.374 52.6042C133.369 51.9235 133.368 51.2391 133.367 50.5543V50.5504V50.5484C133.365 49.0796 133.362 47.6079 133.327 46.1706C133.274 44.0609 132.207 43.0012 130.2 42.9586C129.515 42.9488 128.836 43.0946 128.216 43.3849C127.595 43.6751 127.05 44.102 126.621 44.6333V43.3702C126.626 42.9019 126.45 42.76 126.026 43.0154C124.841 43.671 123.524 44.0571 122.17 44.146C122.09 44.1549 121.989 44.1518 121.885 44.1486C121.603 44.14 121.301 44.1308 121.323 44.3588C121.351 44.6669 121.665 44.6199 121.953 44.5767C122.05 44.5621 122.144 44.548 122.223 44.548L122.236 44.5487C122.774 44.5768 123.243 44.6012 123.243 45.338V53.1339C123.248 53.5786 123.043 53.7442 122.618 53.8056C121.887 53.905 121.15 53.9429 120.412 53.9193C119.378 53.9051 119.287 53.8152 119.287 52.7839V44.9833C119.287 44.6292 119.259 44.2752 119.231 43.92C119.212 43.6962 119.194 43.472 119.183 43.2471C119.168 42.9728 119.068 42.9019 118.807 43.0012C116.87 43.7628 114.826 43.7543 112.782 43.7456C112.566 43.7447 112.35 43.7438 112.135 43.7438C111.844 43.7009 111.547 43.7251 111.267 43.8149C111.279 43.8522 111.287 43.8872 111.293 43.9167C111.305 43.9691 111.312 44.0041 111.334 44.0041C111.499 44.1054 111.661 44.0995 111.838 44.0931C111.957 44.0887 112.083 44.0842 112.22 44.1128C112.258 44.1208 112.297 44.128 112.337 44.1353C112.653 44.1934 113 44.2571 112.873 44.7278C112.371 46.5476 111.7 48.3089 110.998 50.1497C110.901 50.4049 110.803 50.6616 110.705 50.9201C109.847 48.8339 109.08 46.8613 108.417 44.8509C108.232 44.3258 108.417 44.1933 108.894 44.1128C108.962 44.1021 109.039 44.1055 109.118 44.1091C109.352 44.1194 109.61 44.1309 109.757 43.777C108.927 43.7646 108.108 43.782 107.296 43.7992C105.935 43.828 104.593 43.8564 103.247 43.7438C103.226 43.742 103.205 43.7392 103.184 43.7363C103.046 43.7178 102.901 43.6983 102.88 43.9236C102.856 44.1838 103.09 44.1838 103.256 44.1838C104.229 44.0655 104.543 44.6805 104.858 45.4421C106.087 48.446 107.36 51.4404 108.641 54.4301C108.653 54.4596 108.666 54.4904 108.678 54.5219C108.809 54.8537 108.974 55.2697 109.313 55.2438C109.609 55.2212 109.703 54.905 109.789 54.6147C109.811 54.5403 109.832 54.4674 109.857 54.4018C110.215 53.4285 110.572 52.4542 110.929 51.4797L110.93 51.4777L110.93 51.4759C111.692 49.3968 112.454 47.3168 113.235 45.2435C113.597 44.2501 114.203 43.9 115.142 44.1034C115.911 44.2702 115.867 44.8153 115.826 45.3218C115.818 45.4328 115.809 45.5427 115.809 45.6455ZM178.127 51.0572C178.165 51.2549 178.158 51.4584 178.107 51.653C178.056 51.8477 177.961 52.0287 177.832 52.183C176.426 54.6571 173.428 55.3856 170.731 53.9239C168.143 52.5047 167.071 49.1934 168.3 46.3551C168.867 45.07 169.899 44.0419 171.19 43.4729C172.482 42.9039 173.942 42.8352 175.282 43.2802C176.012 43.4758 176.667 43.8855 177.159 44.4561C177.651 45.0266 177.959 45.7313 178.041 46.478C178.117 46.9511 178.041 47.1497 177.484 47.1497C176.633 47.1497 175.781 47.1687 174.929 47.1876C174.077 47.2066 173.226 47.2254 172.375 47.2254C171.875 47.2254 171.745 47.3958 171.708 47.8641C171.614 48.9466 171.692 50.037 171.941 51.0951C172.303 52.6041 173.185 53.5076 174.395 53.6637C175.606 53.8198 176.883 53.0487 177.593 51.7716C177.631 51.7066 177.659 51.6317 177.689 51.5551C177.767 51.3471 177.852 51.1263 178.127 51.0572ZM173.29 46.7383H174.5C174.777 46.7383 174.943 46.6672 174.915 46.3597C174.917 45.6574 174.845 44.9566 174.701 44.2689C174.662 44.0338 174.55 43.8172 174.378 43.651C174.206 43.4849 173.985 43.378 173.748 43.3464C173.503 43.3118 173.253 43.3521 173.033 43.462C172.812 43.572 172.632 43.7462 172.514 43.9614C172.284 44.3203 172.121 44.7179 172.036 45.1346L172.033 45.1484C171.842 45.9413 171.746 46.3376 171.903 46.5356C172.061 46.7335 172.47 46.7335 173.29 46.7335V46.7383ZM60.1185 54.053C59.9977 54.202 59.8407 54.185 59.6878 54.1684C59.6399 54.1631 59.5924 54.1579 59.5466 54.1579H47.0119C46.954 54.1579 46.8939 54.1633 46.8333 54.1686C46.6177 54.1875 46.3957 54.207 46.2381 53.991C46.2399 53.9378 46.2608 53.887 46.2968 53.8477C46.3329 53.8084 46.3819 53.783 46.4351 53.7763L46.4442 53.7749C47.6032 53.5854 47.6223 53.5823 47.6078 52.3784C47.5985 51.6228 47.6053 50.8668 47.612 50.1105C47.6261 48.5269 47.6403 46.9425 47.5069 45.3603C47.4012 44.1388 47.0648 43.7572 46.0939 43.7811C45.8657 43.7703 45.6377 43.8068 45.4244 43.8881C45.2111 43.9695 45.0171 44.0939 44.855 44.2537C44.6927 44.4134 44.5657 44.6049 44.4819 44.8159C44.3982 45.0269 44.3595 45.2529 44.3684 45.4795V52.9652C44.3527 53.0591 44.3589 53.1551 44.3862 53.2462C44.4136 53.3374 44.4616 53.421 44.5265 53.491C44.5914 53.5609 44.6715 53.6152 44.7607 53.6497C44.8499 53.6843 44.9459 53.6983 45.0414 53.6904C45.0684 53.6904 45.0961 53.6895 45.1242 53.6885C45.2961 53.6827 45.4839 53.6762 45.6325 53.8812C45.4775 54.1327 45.2392 54.1155 45.0112 54.0991C44.9494 54.0946 44.8883 54.0902 44.8299 54.0912C41.8836 54.1246 38.9421 54.2438 36.0008 54.4824C35.3071 54.5189 34.6334 54.7255 34.0398 55.0835C33.6361 55.3317 33.4486 55.3174 33.4583 54.7829C33.4583 54.6949 33.4703 54.5952 33.4826 54.4937C33.5154 54.2214 33.5499 53.9366 33.3574 53.8288C33.1232 53.7175 32.9479 53.9116 32.7709 54.1076C32.6899 54.1974 32.6085 54.2874 32.521 54.3488C31.911 54.82 31.1848 55.1203 30.4182 55.2185C29.6515 55.3167 28.8724 55.2092 28.1618 54.907C27.7051 54.7351 27.3086 54.4353 27.0202 54.0441C26.7319 53.6528 26.5641 53.1869 26.5373 52.7028C26.4243 51.4913 26.4384 50.2779 26.4524 49.0663C26.4598 48.4219 26.4673 47.7779 26.4556 47.1351C26.4556 46.8714 26.4529 46.6083 26.4502 46.3449C26.4449 45.8169 26.4395 45.2875 26.4556 44.7495C26.4556 44.1579 26.2249 43.9003 25.6433 43.9194C25.5173 43.936 25.3896 43.936 25.2636 43.9194C25.2114 43.907 25.1485 43.9037 25.0844 43.9002C24.9009 43.8903 24.7075 43.8799 24.7253 43.657C24.7442 43.4203 24.9658 43.4439 25.1601 43.4647C25.2125 43.4703 25.2629 43.4758 25.3069 43.4758H29.5316C30.0121 43.4758 30.1804 43.5759 30.1708 44.096C30.1179 46.5912 30.0987 49.0817 30.0987 51.5769C30.1017 52.1359 30.1678 52.6928 30.2958 53.2371C30.3207 53.4361 30.395 53.6258 30.5119 53.7891C30.6289 53.9525 30.7849 54.0845 30.9658 54.1735C31.1468 54.2624 31.3471 54.3053 31.549 54.2984C31.7508 54.2916 31.9477 54.2351 32.1221 54.1342C32.5231 53.9897 32.8685 53.7244 33.1099 53.3753C33.3511 53.0262 33.4764 52.6109 33.4678 52.1876V45.1646C33.4678 44.57 33.4678 44.2694 33.3167 44.1118C33.1621 43.9506 32.8498 43.9387 32.2183 43.9146C32.092 43.9049 31.9667 43.8858 31.8434 43.8574C31.8137 43.8574 31.7886 43.8305 31.7542 43.7938C31.7383 43.7768 31.7204 43.7577 31.6992 43.7381C31.8425 43.4959 32.0669 43.5077 32.2795 43.5189C32.3307 43.5217 32.3812 43.5244 32.4298 43.5234C33.7851 43.5234 35.1452 43.5234 36.5007 43.4758C37.0196 43.4758 37.0726 43.657 37.0726 44.0912V52.5693C37.0726 53.7572 37.135 53.8193 38.3366 53.8193C38.9141 53.8193 39.4917 53.7803 40.0727 53.7411L40.1642 53.735L40.2591 53.7286C40.3498 53.7314 40.4399 53.7147 40.5233 53.6795C40.6067 53.6443 40.6815 53.5916 40.7423 53.5247C40.8031 53.458 40.8485 53.3789 40.8754 53.293C40.9025 53.2071 40.9102 53.1164 40.8983 53.0272V45.012C40.8983 44.5349 40.6436 44.3345 40.187 44.3059C39.7285 44.3483 39.266 44.3176 38.8173 44.2152C38.9987 43.9229 39.2412 43.9162 39.4566 43.9104C39.4977 43.9093 39.5381 43.9081 39.5766 43.9051C41.0171 43.8554 42.4252 43.4679 43.686 42.7744C44.1666 42.4929 44.2724 42.7219 44.2724 43.1513V44.2152C44.4629 44.2989 44.5418 44.1827 44.6153 44.0742C44.6382 44.0404 44.6606 44.0075 44.6857 43.9814C45.1923 43.4691 45.8203 43.091 46.5121 42.8818C47.204 42.6726 47.9377 42.6389 48.646 42.7839C50.1456 43.0034 50.9867 44.0721 51.0491 45.866C51.0869 47.3922 51.0878 48.9284 51.0889 50.4533C51.0892 51.0637 51.0896 51.6727 51.0924 52.2781C51.0924 52.9867 51.0924 53.3445 51.2725 53.5292C51.4562 53.7177 51.8275 53.726 52.5775 53.7429C52.7569 53.7429 52.9369 53.735 53.1169 53.727C53.4768 53.7111 53.8368 53.6952 54.1924 53.7429C54.8076 53.805 54.9374 53.5044 54.9326 52.9986V49.2581C54.9326 48.7831 54.9294 48.3039 54.9262 47.8227C54.9198 46.8537 54.9133 45.876 54.9326 44.907C54.9326 44.2534 54.7307 43.886 54.0098 43.9528C53.976 43.9528 53.9387 43.9554 53.9001 43.9581C53.7251 43.9705 53.524 43.9849 53.5003 43.762C53.476 43.5325 53.6911 43.5272 53.8802 43.5226C53.9153 43.5217 53.9494 43.5209 53.9809 43.5186C55.4517 43.4725 56.9049 43.1872 58.2825 42.6742C58.4404 43.3283 58.5003 44.0018 58.4603 44.6733V52.2353C58.4603 53.8336 58.5757 53.8383 59.9023 53.8002C59.9624 53.8002 60.0226 53.8371 60.0828 53.8741C60.0946 53.8813 60.1066 53.8886 60.1185 53.8956V53.8717L60.1542 53.9155C60.1567 53.9169 60.1593 53.9181 60.1618 53.9194L60.1606 53.9234L60.2194 53.9958L60.1185 54.053ZM71.7736 60.5128H74.345C74.0489 60.1144 73.7684 60.1175 73.5192 60.1201C73.4611 60.1208 73.4046 60.1213 73.3501 60.1169C72.3552 60.0262 72.2735 59.9594 72.2735 58.9575V52.9318V43.5425C72.2735 43.4931 72.2746 43.4424 72.2758 43.3916C72.2856 42.9512 72.2952 42.5135 71.5669 43.0653C71.3848 43.1863 71.1783 43.2669 70.9618 43.3016C70.7453 43.3361 70.5239 43.3238 70.3125 43.2656C70.0578 43.2137 69.8044 43.1536 69.5511 43.0935C69.1306 42.9937 68.7102 42.8941 68.2843 42.8316C65.9725 42.4785 63.8674 42.9031 62.2812 44.74C61.5438 45.5712 61.0535 46.5896 60.8651 47.6814C60.6767 48.7733 60.7976 49.8955 61.2143 50.9231C62.4927 54.5634 66.6694 55.4079 68.6881 53.4422C68.6943 53.436 68.7106 53.4452 68.7325 53.4575C68.761 53.4734 68.799 53.4947 68.837 53.4947V58.2085C68.8178 59.925 68.8082 59.926 67.0475 60.1166L67.0443 60.1169C67.037 60.1177 67.0296 60.1184 67.0221 60.1191C67.0146 60.1199 67.007 60.1204 66.9993 60.1211C66.9909 60.1218 66.9823 60.1225 66.9736 60.1233C66.8111 60.1362 66.6245 60.1512 66.6453 60.3459C66.6654 60.533 66.8394 60.5241 66.997 60.516C67.0283 60.5144 67.059 60.5128 67.0875 60.5128C68.6485 60.4318 70.2127 60.4318 71.7736 60.5128ZM68.7361 44.4537C68.8443 45.7325 68.8811 47.0162 68.8466 48.2991C68.8803 49.5052 68.8531 50.7121 68.7649 51.9155C68.64 52.9079 68.0968 53.6378 67.2269 53.7524C66.357 53.8669 65.689 53.4613 65.3044 52.4355C64.5931 50.508 64.67 48.4947 64.8237 46.4909C64.8587 45.7531 65.0214 45.0269 65.3044 44.3439C65.4362 44.0112 65.654 43.7187 65.9358 43.4959C66.2176 43.2731 66.5535 43.1279 66.9098 43.0749C68.0344 42.8888 68.5967 43.3277 68.7361 44.4537ZM80.5787 43.1703C80.8432 43.0339 81.1437 42.9822 81.4391 43.0225C82.6694 43.0225 83.8999 43.0225 85.1254 42.9795C85.6637 42.9795 85.8127 43.113 85.8079 43.6522C85.7887 45.4653 85.7951 47.2806 85.8015 49.0952C85.8048 50.0022 85.8079 50.9091 85.8079 51.8154C85.8079 52.4196 85.8079 52.7202 85.9592 52.8761C86.1091 53.0305 86.4071 53.0433 87.0006 53.0684L87.0432 53.0702C87.1106 53.0702 87.1909 53.0603 87.2749 53.0501C87.5561 53.0156 87.8779 52.9762 87.8891 53.2849C87.9 53.5899 87.5907 53.5743 87.3067 53.56C87.2176 53.5554 87.131 53.5511 87.0575 53.5568C86.7839 53.576 86.509 53.5881 86.2341 53.6003C85.0027 53.6547 83.7726 53.7092 82.6646 54.3917C82.3954 54.5587 82.2945 54.4203 82.2945 54.1531V52.8268C81.5212 53.6184 80.5354 54.173 79.4541 54.4251C77.1615 54.8259 75.5466 53.5997 75.4937 51.3001C75.4457 49.0863 75.4552 46.8726 75.4937 44.6588C75.4937 43.8764 75.3784 43.3564 74.4364 43.4327C74.3839 43.4453 74.3293 43.4469 74.2761 43.4377C74.2229 43.4284 74.1723 43.4084 74.1271 43.3788C74.0821 43.3493 74.0436 43.3109 74.0141 43.266C73.9846 43.2211 73.9648 43.1706 73.9557 43.1178C74.0518 42.9679 74.2046 42.978 74.3477 42.9876L74.3612 42.9885L74.3691 42.9891C75.7507 43.0606 77.1352 43.0606 78.5168 42.9891C78.9639 42.9891 79.0695 43.1178 79.0648 43.5472C79.0264 46.0663 79.0087 48.5822 79.0119 51.095C79.0199 51.5528 79.0762 52.0085 79.1801 52.4547C79.2054 52.6594 79.2831 52.8544 79.4056 53.021C79.5281 53.1877 79.6914 53.3205 79.88 53.407C80.0686 53.4935 80.2765 53.5308 80.4837 53.5152C80.6909 53.4996 80.8907 53.4319 81.0642 53.3183C81.4329 53.1667 81.7462 52.9067 81.9618 52.5731C82.1775 52.2397 82.2852 51.8487 82.2706 51.4528C82.2512 49.926 82.2577 48.3993 82.2641 46.8739V46.8719V46.8697V46.8677C82.2674 46.1071 82.2706 45.347 82.2706 44.5874C82.2706 43.4756 82.2369 43.4566 81.0978 43.4136C81.0625 43.4108 81.0248 43.4119 80.9864 43.413C80.8315 43.4177 80.6634 43.4226 80.5787 43.1703ZM98.5889 51.371C98.6271 51.1781 98.6202 50.9792 98.5685 50.7895C98.3129 50.9708 98.2109 51.2021 98.1153 51.4191C98.0725 51.5162 98.0309 51.6104 97.9774 51.696C97.2276 52.9555 95.9876 53.6378 94.7332 53.4327C93.3537 53.2131 92.7529 52.2066 92.3925 50.9994C92.1357 49.9349 92.0385 48.8384 92.1042 47.7456C92.1042 47.1875 92.2483 46.9631 92.8779 46.9631C93.7906 46.9708 94.7033 46.9446 95.6159 46.9185C96.4191 46.8955 97.2223 46.8726 98.0254 46.8726C98.4579 46.8726 98.6021 46.7867 98.5349 46.3095C98.4636 45.557 98.1688 44.8424 97.688 44.2563C97.2071 43.6703 96.5618 43.2392 95.8337 43.0176C95.1261 42.7679 94.3757 42.6596 93.6257 42.6989C92.8757 42.7384 92.1409 42.9245 91.4636 43.2469C90.7865 43.5693 90.1801 44.0214 89.6796 44.5774C89.1792 45.1333 88.7944 45.782 88.5475 46.4861C87.4325 49.7209 88.9609 53.0844 92.0081 54.1197C94.6659 55.0214 97.1267 54.1626 98.3475 51.9012C98.4678 51.7452 98.5504 51.5638 98.5889 51.371ZM94.9446 46.4956H93.7959L93.7191 46.5243C92.0417 46.5386 92.0368 46.5338 92.4502 44.8735C92.539 44.3417 92.7772 43.8455 93.1375 43.4422C93.266 43.2903 93.4333 43.1753 93.6217 43.1093C93.8101 43.0431 94.0129 43.0284 94.2091 43.0663C94.4053 43.1043 94.5876 43.1937 94.7373 43.3252C94.8869 43.4568 94.9983 43.6256 95.06 43.8143C95.3112 44.5835 95.4124 45.393 95.3579 46.1999C95.3579 46.4956 95.1561 46.4956 94.9446 46.4956ZM53.142 43.7774C53.16 43.7941 53.1783 43.8111 53.1927 43.8287C53.2889 43.8764 53.4042 43.8143 53.409 43.7523C53.4124 43.7086 53.3679 43.6577 53.3246 43.608C53.3065 43.5874 53.2886 43.5668 53.2744 43.5471C53.1687 43.528 53.0726 43.5568 53.0726 43.6808C53.0726 43.7125 53.1066 43.7443 53.142 43.7774Z" fill="#232525"/>
</g>
</svg>
