<svg width="150" height="56" viewBox="0 0 150 56" fill="none" xmlns="http://www.w3.org/2000/svg">
<g id="6556297c3f91ef46aad9e42f_Yotpo.svg">
<g id="Clip path group">
<mask id="mask0_3001_5347" style="mask-type:luminance" maskUnits="userSpaceOnUse" x="38" y="17" width="76" height="22">
<g id="a">
<path id="Vector" d="M113.214 17.522H38.3963V38.0969H113.214V17.522Z" fill="white"/>
</g>
</mask>
<g mask="url(#mask0_3001_5347)">
<g id="Group">
<path id="Vector_2" fill-rule="evenodd" clip-rule="evenodd" d="M42.6074 20.4336L45.347 28.0622L48.244 20.4336H52.3375L45.347 38.0965H41.2849L43.3632 32.6203L38.3879 20.4336H42.6074ZM85.8735 20.1488C89.5576 20.1488 92.2657 23.0292 92.2657 26.986C92.2657 30.9427 89.5576 33.8232 85.8735 33.8232C84.5194 33.8232 83.3543 33.475 82.4726 32.7469L82.4096 32.7153L82.3467 32.6837V38.0965H78.4105V20.4336H81.9058V21.7631L81.9373 21.7314C82.7876 20.7502 84.11 20.2121 85.716 20.1804H85.8104L85.8735 20.1488ZM59.5171 20.1488C63.5792 20.1488 66.4761 22.966 66.4761 26.986C66.4761 30.9744 63.5792 33.8232 59.5171 33.8232C55.4235 33.8232 52.5265 30.9744 52.5265 26.986C52.558 22.966 55.4235 20.1488 59.5171 20.1488ZM73.0574 17.5215V20.4336H76.3008V23.8523H73.0574V28.5687C73.0574 29.6132 73.5612 30.2147 74.5058 30.2463H74.5373H74.5689C75.1986 30.2463 75.6709 30.0881 76.1118 29.6766L76.1433 29.6449L76.2378 29.55H76.2693V33.3168L76.1433 33.38C75.4821 33.6966 75.1042 33.8232 73.9706 33.8232C70.8532 33.8232 69.1213 32.1139 69.0582 28.9169V28.8219V28.7269V23.8523H67.6412V20.4336H69.1842V17.5215H73.0574ZM100.862 20.1488C104.924 20.1488 107.821 22.966 107.821 26.986C107.821 30.9744 104.924 33.8232 100.862 33.8232C96.7687 33.8232 93.8716 30.9744 93.8716 26.986C93.9032 22.966 96.7687 20.1488 100.862 20.1488ZM111.064 29.4866C112.262 29.4866 113.237 30.4679 113.237 31.6707C113.237 32.8736 112.262 33.8549 111.064 33.8549C109.868 33.8549 108.891 32.8736 108.891 31.6707C108.891 30.4679 109.868 29.4866 111.064 29.4866ZM85.2751 23.7257C83.5118 23.7257 82.2836 25.0551 82.2836 26.986C82.2836 28.9485 83.4802 30.2463 85.2751 30.2463C87.07 30.2463 88.2981 28.9169 88.2981 26.986C88.2666 25.0235 87.07 23.7257 85.2751 23.7257ZM59.5171 23.7257C57.7222 23.7257 56.4941 25.0551 56.4941 26.986C56.4941 28.9169 57.7222 30.2463 59.5171 30.2463C61.2804 30.2463 62.5085 28.9169 62.5085 26.986C62.5085 25.0551 61.2804 23.7257 59.5171 23.7257ZM100.862 23.7257C99.0674 23.7257 97.8392 25.0551 97.8392 26.986C97.8392 28.9169 99.0674 30.2463 100.862 30.2463C102.626 30.2463 103.854 28.9169 103.854 26.986C103.854 25.0551 102.626 23.7257 100.862 23.7257Z" fill="#D6E4E2"/>
</g>
</g>
</g>
</g>
</svg>
